<mxfile host="65bd71144e">
    <diagram id="0ZQ1sVGdOcYQdKJQkC8y" name="Page-1">
        <mxGraphModel dx="459" dy="367" grid="1" gridSize="10" guides="1" tooltips="1" connect="1" arrows="1" fold="1" page="1" pageScale="1" pageWidth="1100" pageHeight="850" math="0" shadow="0">
            <root>
                <mxCell id="0"/>
                <mxCell id="1" parent="0"/>
                <mxCell id="2" value="" style="shape=image;verticalLabelPosition=bottom;labelBackgroundColor=default;verticalAlign=top;aspect=fixed;imageAspect=0;image=data:image/jpeg,/9j/4AAQSkZJRgABAQAAAQABAAD/2wBDAAMCAgICAgMCAgIDAwMDBAYEBAQEBAgGBgUGCQgKCgkICQkKDA8MCgsOCwkJDRENDg8QEBEQCgwSExIQEw8QEBD/2wBDAQMDAwQDBAgEBAgQCwkLEBAQEBAQEBAQEBAQEBAQEBAQEBAQEBAQEBAQEBAQEBAQEBAQEBAQEBAQEBAQEBAQEBD/wAARCAG7AbsDASIAAhEBAxEB/8QAHQABAQACAwEBAQAAAAAAAAAAAAcFBgMECAkBAv/EAFcQAAAEBAICCgsMCAUDBAMAAAABAgMEBQYHCBEhURIYOFaVl7S10tUTFRciMUFxd5az0RQWN1NUVVdhdpSxsgkZMkJYddPUIzZ0gcQzNcMkYpGhUnOS/8QAGwEBAAIDAQEAAAAAAAAAAAAAAAUGAgQHAwH/xABHEQACAQMBBAMLCQUIAgMAAAAAAQIDBBEhBRIxQRNRkQYUNFJUYXFygbHRFSIyNZKh0uHwFlOiweIjJEJic4KTskTCo/Hy/9oADAMBAAIRAxEAPwD6pgA1G7lXTKgbYVTWsnYhno6SSqIjoduJSpTSnG0GoiWSVJM05lpyMj+sZ04OpNQjxbwYVakaMJVJcEm+w804r8bEZbaoUW/tI/ARU4gXDOcRzzZPsw6stEOgs8jcI/2zP9nIk+HZbGAfrBMRfzlIuC0+0VCTzOczGnJVWFe0FhUo1VSMHMICGn8hUiLiYdR5k+aSWeSVZ5kZnmeenIdjtnS/yvBjwG50hd7alZW1NUpUFNri+OXz1wzm13X2jd1nWhcuCfCK0wuWmU+HXxJP+sExF/OUi4LT7Q/WCYi/nKRcFp9orHbOl/leDHgNzpB2zpf5Xgx4Dc6Q982Pkq7PyNXd2l5bLt/qJP8ArBMRfzlIuC0+0UKymJ7FTeepnpZBTynZXJZUycdPJ1EypPueWwiczUtR7IiNZkStijMjVkZ5klKlJzC2pnNYCOdt7ROEmtJnAQ64tUok8iUuNdZQWazaQpZbMy0aM/HrMiOfXzuJMJthXt3HyGQSCj4WtZlNXp1LKal6YCDilwrxNNGpBGaj71CTPNR5mRH+6kidHa3GKdK3jFyeMvDxo3nGM8E8csn3pr213q1e6nKMVvYWVvaqON7LXGSzzSPfVqbkSG69HM1jTLkS7LXYmIhWH4hBIXEEy4ps3diRFsSUaTURZEeRlmRHoLcB57wG7minv9XMOVOD0IKRfUY291UpQ4RbS9jOj7MrzurKlXqcZRTfpayAABqm8AAAAAAAH4ZkRGZnkRDwpiMx8T6R1qulrJREtel8qNTUbM32CiERb+ekmdOXY05ZbL9488tBEavSuKC5E4tRZmc1lI5VKplEsuQ8KcLM2FvQzrbzqW1pWhKkmojSo9GeWvPwDzetqNkrMKzX9I4RaQm8RDtxS5PNJEpMXDIWWaSdSlZklRlpyIz8WkWDY1tSX94rw31qks81jLxrnGV5iq90N5Xb70tajg8Jt45NvCzlJZw/O8ekkf6wTEX85SLgtPtD9YJiL+cpFwWn2isds6X+V4MeA3OkHbOl/leDHgNzpCw5sfJV2fkVPd2l5bLt/qJP+sExF/OUi4LT7Q/WCYi/nKRcFp9orHbOl/leDHgNzpDpVLHziXUjNayou22FSuISQNe6JqxIKfN6JhGPjlNqcIzQWkzPxERnpyPL6nYtpd7R169Pej41tKKcu/JPGumXw8ylk71i8S+Ie46plWlaVNI5Bb2liJ6ezhUpTmrwGULDlp2by8yLQR7ElJMyM1ISv2ZQlXQVfUbJq1lsM9Dwk7g245hp7LsiG3CzSSssyzyMs8jPymPnJi/q+YRlI2nkUrgpdIZBNqShakdkcmhUwkAiOiTUpxaWk/WZ5ZmeWajzzUoz94YbPgAt99noL1RCD21a0428LqEFHebSS5JZ49bb7OC63Ze529rSu52VSbnuxTcpPi3jguSSfpby3ySpIAArJcgAAAAAAAAAAAAAAAnWG+oJzVmHi11U1HMXY+bTmi5JMI+LePNcREPQLK3HFZeNSlKM/rMUUSrCduWLN+b+nubmABVQAAAAAAAAAAAAAAAAAAAAAB+GeRGeoh+j+HTyaWepJgCe4cJ/Oarw82uqio5i7HzacUZJI+Pi3jzciIh2BZW44rLxqUpRn9ZiiiWYUyywu2eLVQNPc3MCpgAAAAAAAACbYk/gAuD9no31RikibYk/gAuD9no31RjZs/CafrL3mpf+CVfVl7mfOnGOpXdOkrWyPYNUjJkNpz0IT7nzyIvEWZmeX1iEC7Yx/hRlP2Tk3JyEJHV9m+B0/Qjhm2PD6vrMAADdI0reEx55jEbQa2XVtqOaEgzSoyM0qbWlRaPEZGZGXjIzFCxHIQ3h5ti22kkpTUVWklJFkREUyc0EJ1hR3RdBfzZH5VCjYkdz5bL7SVbzk4IK7+sqXs91Qs1j9T1/93/aietMBu5op7/VzDlTg9CDz3gN3NFPf6uYcqcHoQc+2r4dW9aXvOrbE+rbf1I+5AAAaBKAAAAAAABF8W6UrtASFpJSVVBJCMjLMjLtgyPnXixccdxGV4pxalmU1NJGo8zyJCSIvIRERf7D6K4tfghT9oZJzgyPnRiu3Rde/wA2X+VIvHcrw+3/AOhzXu44v/Z7qhJwABdTnIF3wbrWVzJ4wSz7HEUhOW3UZ964jsGexUXjLMiPI/GRCEC7YOPhRm32TnPJzGjtPwOp6GSWx/D6PrI7eK3/AC/ZPzaSn8FD6GYbPgAt99noL1RD554rf8v2T82kp/BQ+hmGz4ALffZ6C9UQqG3Pq2j60vey/dzX1xcepH3RKSAAKedAAAAAAAAAAAAAAAACVYTtyxZvzf09zcwKqJVhO3LFm/N/T3NzAAqoAAAAAAAAAAAAAAAAAAAAAA44g8od09SFfgOQcMYeUI+eptX4ACaYViywwWgLVQVP83sCoiX4Wiywx2iLVQcg5vYFQAAAAAAAAAE2xJ/ABcH7PRvqjHBF4crfRsU9GPVDdBLj7inVkzdOp2kEajzMkoRMCSgtOhKSIiLQREQnFy6Wt7TVM3HtxQ05reeVZEUTGxL8vmFYzqfE0yo0JbImYyKeSh1alEadgkl7Ej05KLZbVlFyuINLg036Mo0tozjC1qKT4pped4eh42xj/CjKfsnJuTkISPV7p0zdKm6eZvxYu8TFS07Lm5QU4paWEZzCGa0M9nREoyJZEZkaizMzLPPIySnpdyPDf9GOKHgWA6A6Ta3sbWjGjOLzHTTDXpWvM4/e7Nne3ErinJYlrrlNZ5NY5Hl0B6i7keG/6McUPAsB0A7keG/6McUPAsB0BsfKtLxZdi+Jq/Ilfx49r+BNcKO6LoL+bI/KoUbEjufLZfaSrecnBmKeh7c2fjirK0OH69E9q2GSspa9V0tSiEgHFINPZiRCpzdURKPvVaPGRpPSNni7YQdR4a7YVFe+bRNNSSmY2fTCfoiGTZmEU4/GrU1DMNKIj7I6ZGZHkREnNXgEXc3UZXVO5aaiml5292pwSy+aXpJm0spxsatmmnJpvOu6lvUuLaS5NvqRdcBu5op7/VzDlTg9CD5xzvGDZuaQsslMHaSu5PLZJDe4oCFp+5E1kTKWSUZka2oB1pC1nnma17JWn9oxWbIIt/d6Ut1NNpRdek5FGxqZXKoyNvVVLq5nGmZ5tMNFGEaiSSV7JeeRGkyLPYr2FU2ns28VWpdVKe7GTb4rm+GjLzsbbGz3RpWNKrvSjFLRSxosZ1Wi9J7DASra0263x3V42Kq6xDa0263x3V42Kq6xEGWUqoCVbWm3W+O6vGxVXWIbWm3W+O6vGxVXWIAqoCVbWm3W+O6vGxVXWIbWm3W+O6vGxVXWIAxuLX4IU/aGSc4Mj50Yrt0XXv8ANl/lSPYN+5NTMNaC4lD2bmNaVFPpFMZI5Hpiqkm1Quw8R7o2aUMnGPvqbUgkGpZN5Fnsdlmae9j9UQ1tLwzBFa3ZsLe6S1bFMNImq6UlbaoONfQgkG9sYlGaDMkpPItZ5moy2R3Xufk7Smqk0/8AEuWdVBp4fJo5z3Vwjf1nSpSWcRabzh4dSLWUmspvgzyMA9RdyPDf9GOKHgWA6AdyPDf9GOKHgWA6As3yrS8WXYviU75Er+PHtfwPLou2Dj4UZt9k5zycxtncjw3/AEY4oeBYDoDuNO0/aqSThFgrB3aiKjnsA9K1zurZYZrgId0iJwmGYdGwUoyLQpWRkess0nr3V7G6oyo04vMtNcJe3U2rLZs7K4hcVZLEXnTLbxySxxfZ1mpYrf8AL9k/NpKfwUPoZhs+AC332egvVEPLFzrfULJ6StPdK+DzjUjpqhJVLmqbTmiPm8ySjZHDGg8jbbQRpNxR5ZZ5aDMalUmMa1NUTEplGWxuNL1IZbh24aR3UnMng2220klCUQsE80wjIiL9lBGfjzFfvqNfadpTo2sHLdcsvRLi9Fnj7C07NuLbY1/VuL6oob8YpLDbxhavCePNnV8eHH6OgPLFm6VoK58klc6qCEurSJ1GTjkhg4q89UvxUxh207JyIJso1OwaIjTkoz77MjyIlINdS2tNut8d1eNiqusRUa1GdCbp1Fhr9ci/W9xTuqaq0nlP0r7nrw19GpVQEq2tNut8d1eNiqusQ2tNut8d1eNiqusR5HsVUBKtrTbrfHdXjYqrrENrTbrfHdXjYqrrEAVUBKtrTbrfHdXjYqrrENrTbrfHdXjYqrrEAVUBKtrTbrfHdXjYqrrENrTbrfHdXjYqrrEAVUSrCduWLN+b+nubmA2tNut8d1eNiqusRNMMmHyg51httROYyf3KbiI+h5FEuohLm1JCsJWuAZUom2WY9LTSMzPJDaUoSWRJIiIiAHqABKtrTbrfHdXjYqrrENrTbrfHdXjYqrrEAVUBKtrTbrfHdXjYqrrENrTbrfHdXjYqrrEAVUBKtrTbrfHdXjYqrrENrTbrfHdXjYqrrEAVUBKtrTbrfHdXjYqrrENrTbrfHdXjYqrrEAVUBKtrTbrfHdXjYqrrENrTbrfHdXjYqrrEAVUBKtrTbrfHdXjYqrrENrTbrfHdXjYqrrEAVUdeYHlARJ6mV/lMTLa0263x3V42Kq6xHXmOGy3bcviXCqO6maWVmWd16pMv2T8RzDSAO/hdLLDPaQtVCyDm9kU4eZ8OuHmgpvh9tjNYuf3LbfjaNksQ6iFudUsMyla4JlRk2y1HpbaRmehCEpSksiSREREKHtabdb47q8bFVdYgCqgJVtabdb47q8bFVdYhtabdb47q8bFVdYgCqgJVtabdb47q8bFVdYinwkM3BQrMGyp1TbDaWkG88t1ZkksiNS1malno0qUZmZ6TMzAE9vpXFf0dRzxWtoWYVLU0aRtQaWWNkxCZlpedUeRHsfEgjzUeWeRZmPnnLbS405NU8wrSUU5W8FPZqazjo+HiOxvRGzUSlEtSVaSzIjy8GgtRDb8dlf13Tt/ouW0/Ws+lkImVwayh4OZPMtko0nmexQoizMeeu65db6Tqs4aiemOhbF2bVoWinT3HvpN5Tb9HHgco7o9r0Lm+lTq766NtLdkks9fDOWXbtL+kK+OuT9/V0w7S/pCvjrk/f1dMQnuuXW+k6rOGonph3XLrfSdVnDUT0xJ95V/FpfZfxIX5RtvHrfbXwLt2l/SFfHXJ+/q6Ydpf0hXx1yfv6umIT3XLrfSdVnDUT0xywt0ruxsUzBQtyqsW9EOJabT27iC2SlHkRZmvItJh3lWX+Gl9l/E+raNu9FOt9tfAuPaX9IV8dcn7+rpjXawtFjRuCzDw1b03W88ZhFGthuOiDeQ2oyyNSUqXkR5aMx3+41jq+TV/6Qn/AFw7jWOr5NX/AKQn/XGtCrCm96FSin+v8xuToTqx3J0rhrqb/pOvbzCrOZLExlbYi4CLo+h6ebKKjTfUlMRMV595CsER57JZlkZlp05FpMjLN0Demb3kxW28dbgUSempNMUQcgkUNkmHl8KlsyIiSnJOzMklslZeIiLJKSIuvPJlV0dgzqCFracTGYTSW3MTAuqjoxUSto24IiU2S1KVoJWy8B5ZmZl4R6JwQ4XitzJmrq11LtjVE2Y/9BCvI76WQqy8Jkf7LzhHp8aU97oM1kNW9u40qFWvdtOesIpcNVq126vq0Xn3dnWE61zRtbGLjD5tSbfHR6JtY4Y0XXq+GnrMAAc9OrgAAABEsTdb3ik1LqpmyNDTiaz2ZoUh2aQ7P+FLmjLI1IUoyJTp597lmSdJnpyI7aPlLieuXcaUX+reWyqv6kgoSHmikMw8PNX22207FOhKUqIiL6iE1sKxd9c8vmrOHnD7Cud0+01s2zzr897uYtJrTOmUzkpS0WNKhXY16jqcrmTrmSycjDg4k2/dCyMzJS8l98ZbJWk9Ok9Y2LtL+kK+OuT9/V0xCe65db6Tqs4aiemHdcut9J1WcNRPTF9laXM3vSVNv1X8Tl8L60px3YSqpeaa+Bdu0v6Qr465P39XTDtL+kK+OuT9/V0xCe65db6Tqs4aiemHdcut9J1WcNRPTGPeVfxaX2X8TL5RtvHrfbXwLt2l/SFfHXJ+/q6Ydpf0hXx1yfv6umI3TldXwq2eQVNU7X9XRszmLxMQsOmePpU64fgSRqcIsz+sxUe41jq+TV/6Qn/XHhVp9A8VXRi/Ose9mzQq98reoq4kl1Sz7omHq+x+MGv4tiPrej6ynkRDNm0y5HvdmNpBnmaU7JZ5EZ6dAzlvrAQVpJfFXgxNyRyAlMmdJEppp9SPdE9jstkls05n/gloNWZZGWefekZK4HrQY5IZlyIiGq8baaSa1rVURklKSLMzM+z6CIhy3bjKiq/C9Y92Ni5jOpvMJnPWErecXERD6ziyQhBGZmpR/spIvIRD461SooUYVIbknh7nFLDfW8Zxj3GUbejSdS5nSqb8Y7y6Tg3vRjwwm8byeOGmHobphSupVl48XhVlVcTsnXZTHNw0K2Z9ggocklsGWk/upTn5TMzM8zMzH0REAwj4a4OxVH9tZ7DtO1lO2kqmL2hXuRvwphWzLxEeRrMv2laySkX8UnbdzQubr+7r5kUor2dXmOj9zdnc2ll/e3mpNuT69ccfP/8AQAAEQT4AAAAAAAAAAAEqwnblizfm/p7m5gVUSrCduWLN+b+nubmABVQAAAAAAAAAAAAAAAAAAAAAB1JueUqjT1Q7n5THbHSnR5SaPPVDO/kMAaDhkLLDbagtVDyLkDIpYm2GgssONqi1UTIuQMikgAAAAAAAA8bYocGlzb23Zfrql5/TEHLnYKGhuxx8TEIeJTZGSj2KGVpy06O+/wDgedJxaHCzT82jJFMsSk0XFy99cLEKh6Ueca7IgzSrYLSsyUWZHkZGZH4jMfQjENNavhLazCT2+mcogainKDg4V+YzFuDSw0osnXkKWZZrSk8iy0kpaVeIfOracXS3w0L6TQ3tF42Jezq26VxX3Ix0ilu5eObyn+snNe6TZ1OjdOVrbdJKXzpN72FnksNe32H73OMJn8SM99D3+kHc4wmfxIz30Pf6Q/NpxdLfDQvpNDe0NpxdLfDQvpNDe0TXT0PK3/B+Erve115DHsqfjP3ucYTP4kZ76Hv9If01b3Cgw6h5nErP23G1EpC00g+SkqLSRkZL0GP42nF0t8NC+k0N7Q2nF0t8NC+k0N7Q6eh5W/4Pwjva68hj2VPxmT97+HH+LGr/AEai/wCoN7tphoou9UNN+5ZiOqiYvypojWuLkkRDQ6XVkrsaFLU54zSeexIzIiM8vAJknBtdNaiQif0MpSjyIiqWHMzP/wCR78sNY6ItBIJHTMPG9hhJRDriJh2E9M2mr6SJ15Z/FNI/w206DPSai7xJqi9qX9O0o5t67lN8PoNe3EfZ9/Im9i7Lq31fdurVRguOs09erM/b7McWjVcPOFqNoO3yqSu89KZ5EM1b76YcoJ915hbqYdDbZu9lbQajJZKXllkZkkzM9JD0cACk3N1Vu6jqVXq+w6NZ2VGwpKlRWi08/tYAAGubYAAAAeFbyYFriXAu9Udw36ypSVU3NJgca869EPnEw0KRFs1mjsRNmokko8jcItai8I91CD4vG65qW3yrc2+m8hgIqensZo7MZs1BrTAl4UIJZkZ9kUWxMy0bFKy/eErsi6rW1wlRko72jb5LrITb9lb3do5XEHLc1SWjb4Jfr0nhhdtsJiFqSWJOdq2JmWZUe/kf1l3w/O5xhM/iRnvoe/0h+bTi6W+GhfSaG9obTi6W+GhfSaG9ovvT0PK3/B+E5d3tc+Qx7Kn4z97nGEz+JGe+h7/SDucYTP4kZ76Hv9Ifm04ulvhoX0mhvaG04ulvhoX0mhvaHT0PK3/B+Ed7XXkMeyp+M5YagsKsG+mJg8TNQsPIz2LjdIxCVFmWR5GS8y0GY73vfw4/xY1f6NRf9QYzacXS3w0L6TQ3tHaleCq6kzmULLkVDRJHEvIazbqBh1RZmRGZISeyUZeHItJjGVa24u6f8H4TKNC84Rsl/wDJ+MpdF4TIC79GzGprO4gp7M1Qr3uZhc1lkTAwzr5bE1JNZrUvIkq0qShWRmRax6hsTh6ZoCgaElFfNy6Z1BQ65m5Buwji3IVtyLiFL7InZoSo1kjJJGZFkZqyz0GW1Wqtmi3EFDySWvuQ8jk0CiVSuAIy7/JWzfjXjL9p55zTkWhKSLwGtSSoIpG0NrV7jNKM8wzlaJPg1q0lybydI2VsK2tEq8qeKmMNZbXFPKTb5pY15ZAAAhixAAAAAAAAAAAAAAABKsJ25Ys35v6e5uYFVEqwnblizfm/p7m5gAVUAAAAAAAAAAAAAAAAAAAAAAdCfHlI5ieqEe/IY74x9QnlIJmeqDe/IYA0jDWWWHS1haqKkfIWRRxOcN5ZYd7XFqouSchZFGAAAAAAAAB0JpIJFPOxdupLATDsGy7F7qhkO7DPLPY7IjyzyLPLUQ6HvBoXeXIeDmeiM8AzVScVhMwdKEnlpdhgfeDQu8uQ8HM9EPeDQu8uQ8HM9EZ4B96WfjPtMehp+KuwwPvBoXeXIeDmeiNFsLAU9cGxluq+qOjqcXNqlpOUTiPUzKmUIVEREG064aU7HvS2S1ZF4iFYEqwnblizfm/p7m5gOln4z7R0NPxV2G8JoOh0KJaKMkSVJPMjKXMkZH//ACM6ADGUpS+k8mcYRh9FYAAAxMgAAAAAAADGTOmKbnT6YqcU9LI95CCbS5EwjbqiSRmZJI1EZ5ZmZ5fWYyYD6pOLyj5KKksSWTA+8Ghd5ch4OZ6Ie8Ghd5ch4OZ6IzwDPpZ+M+08+hp+KuwwPvBoXeXIeDmeiJ1iQkNPUnh4ujVNOU3J4CbSai53MICLZlzJLh4hmBeW24nNPhSpKTL6yFjEqxY7li8nm/qHm58Oln4z7R0NPxV2G7+8Ghd5ch4OZ6I5Yai6OgohuLg6TkzD7KiW261ANJWhReAyMk5kf1jMgPnSTfNn1Uaa/wAK7AAAMD0AAAAAAAAAAAAAAAAAAAJVhO3LFm/N/T3NzAqolWE7csWb839Pc3MACqgAAAAAAAAAAAAAAAAAAAAADG1KeVOTU9UE/wCrMZIYuqDypmbnqgIj1agBp+HMssPdsC1UZJOQsiiCe4diyw/WyLVR0l5E0KEAAAAAAAAAAAAAAAACVYTtyxZvzf09zcwKqJVhO3LFm/N/T3NzAAqoAAAAAAAAAAAAAAAAAAAAAAlWLHcsXk839Q83PiqiVYsdyxeTzf1Dzc+AKqAAAAAAAAAAAAAAAAAAAAAAAAAAlWE7csWb839Pc3MCqiVYTtyxZvzf09zcwAKqAAAAAAAAAAAAAAAAAAAAAAMVVh5UtOT1S+I9WoZUYirzypKdnql0T6pQA1bD0WVgbaFqo+TciaFAGgYfSysLbYtVISbkTQ38AAAAAAAAAAAAAAAAEqwnblizfm/p7m5gVUSrCduWLN+b+nubmABVQAAAAAAAAAAAAAAAAAAAAABKsWO5YvJ5v6h5ufFVEtxVOKawv3gdQSDUigqgURLQS05lLn/CkyMjL6jLIwBUgH4k80kesh+gAAAAAAAAAAAAAAAAAPwzIiMzPIiAH6A8J4jMfE+kdarpayURLXpfKjU1GzN9gohEW/npJnTl2NOWWy/ePPLQRGqUfrBMRfzlIuC0+0WCh3M31emqiSWeTevuKpc92WzLarKk3KWNMpZXseT6hiVYTtyxZvzf09zcwPCP6wTEX85SLgtPtHFCY+cQEBCswEBE05DQ0M2llllmTtoQ2hJZJSlJHkREREREWgiIe37KX/XHtfwPD9udmdU+xfE+pAD5efrBMRfzlIuC0+0VmxeJfEPcdUyrStKmkcgt7SxE9PZwqUpzV4DKFhy07N5eZFoI9iSkmZGakJX41+5q8t4OpUccLzvsWnF8j3tu7CwuqipUoybfmXtbedEuLfI91AMDQlXQVfUbJq1lsM9Dwk7g245hp7LsiG3CzSSssyzyMs8jPymM8IGUXCTjLii0wnGpFTi8p6oAADEyAAAAAAAAAAAAw1ZnlR89PVLYr1ShmRha2PKjJ+eqVxXqlADXLAllYi3BaqRk/I2hvo0SwhZWLt0Wqk5RyNob2AAAAAAAAAAAAAAAACVYTtyxZvzf09zcwKqJVhO3LFm/N/T3NzAAqoAAAAAAAAAAAAAAAAAAAAAAlmKss8L14S10DUHNz4qYl2Kcs8MV3i10HUHN74ApzJ5soPWkvwH9jihDzhWT1tp/AcoAAAAAAAAAAAAAAAAJRiguROLUWZnNZSOVSqZRLLkPCnCzNhb0M6286ltaVoSpJqI0qPRnlrz8Aq4i+LdKV2gJC0kpKqgkhGRlmRl2wZG3YRjO6pxmsreWV7TQ2pOcLKrKm8NReH1PBAFtRslZhWa/pHCLSE3iIduKXJ5pIlJi4ZCyzSTqUrMkqMtORGfi0jj7Z0v8rwY8BudIebsWLjjuIyvFOLUsymppI1HmeRISRF5CIiL/AGElHQbfZXT0o1XPG8k8Jdepym6233tXnQVPKi2st6vDxl4SR7r7Z0v8rwY8BudIO2dL/K8GPAbnSHhQB7fIq/ePsR4ftE/3S7We26lmkzl1LzWq6MtxhTrhiRMe65pDSGnzdiYWGzIjfNtThZtl+8ZHoLTry0HF/V8wjKRtPIpXBS6QyCbUlC1I7I5NCphIBEdEmpTi0tJ+szyzM8s1HnmpRnrGDkzO5s7ZMzNt6kZyhxPiWn3OZ5GXjLMi0fUO3it/y/ZPzaSn8FDWpW8aF/Ci9ca59MX7NMcfOble6lc7LqV183e0x6JR58cPKyn1H0Mw2fABb77PQXqiFJE2w2fABb77PQXqiFJHPrzwip6z951XZ/glL1Y+5AAAa5tgAAAAAAAAAAAYOujyomoT1SqL9SoZwYGvTyoWoz1SmM9SoAYOxBZWPt4WqlJRyNob0NHsWWVkrfFqpWU8kaG8AAAAAAAAAAAAAAAAAlWE7csWb839Pc3MCqiVYTtyxZvzf09zcwAKqAAAAAAAAAAAAAAAAAAAAAAJjiiLPDNdwtdCT/m94U4TPE8WeGq7Ja6Gn3IHgBRIA84GHPW0j8CHYHVlh5y2EPWw3+Uh2gAAAAAAAAAAAAAAAARjFr8EKftDJOcGRZxGMWvwQp+0Mk5wZG5s/wALp+sveR+1fAa3qv3HzoxXbouvf5sv8qRJxWMV26Lr3+bL/KkScdXsfBaXqx9yOGbT8NrevL3sAADaNIu2Dj4UZt9k5zycx28Vv+X7J+bSU/godTBx8KM2+yc55OY7eK3/AC/ZPzaSn8FCCn9ar0L3SLNT+o5el/8AaB9DMNnwAW++z0F6ohSRNsNnwAW++z0F6ohSRze88Iqes/edf2f4JS9WPuQAAGubYAAAAAAAAAAAGv3BPKgqlPVKIz1KxsA164h5W/qc9UmjfULAGKseWVlaALVS8q5I2N2Gl2SLKzNBFqpiV8kbG6AAAAAAAAAmk2w4WYnk1jZ3NKON6NmEQ5FRLvbGLRs3XFGpaskukRZmZnkREWodXauWL3kr4Wjf6wqoACVbVyxm8x4vJOI7+sG1dsdvOiC8k6j/AOsKqAAlW1dsfvRi+HJh/XE0wyYcrPzzDbaedzOmYx2MmFDyKKiHEzqPbJbrkAypRklLxJTmZnoIiIvERD1AJVhO3LFm/N/T3NzAAbV6yW9aPLyVBMv64bV6ye9mZekUy/uBVQAEq2r9lfFTk0LyVJM/7gNq/Zbe9Ny8lTTT+4FVAASrawWY+YZz/tVE1/uQ2sFmfmSeelU2/uRVQAEq2sFmvmafF5Ksm/8AchtYbOfNNQel03/uhVQAEq2sNnfmyoy8lYTj+6Daw2f+bqlLyVlOf7oVUABKtrFaD5DVHppOv7sNrFaH5JVReStp3/diqgAJVtY7R/JqtLyVxPP7sT7ENhztdKLA3MmsCzVRRMFR85iGey1nOXkbNEE6pOybXFGhZZkWaVEaTLQZGWgelhN8SpZ4c7qFromecgeAGIlWGe07srg3FIrHNcO2o8q7npFpSXiKMHa2slp9VaF5K+n394KPIzzkkvPXCtfkId4ASrayWo//ACrcvJcCf/3obWS1Xxtc/wC1wqg/vRVQAEq2stq/E/XZeS4lQ/3obWW1vyqvi8lxqi/vhVQAEq2s1rvltwOMio/74NrNa/5fcMvJcqo/74VUABKtrNbH5yuKXkuZUn9+G1ntl863I4zql/vxVQAHDBQjMBBsQMObptQzSWkG66p1exSREWyWszUo8i0qUZmfhMzMecMWdXM11aWuaNt17snE/pWPk6opEsaU8tmIVEkskJ2BGZrQTWyVl+zmRHpIyLaMTdb3ik1LqpmyNDTiaz2ZoUh2aQ7P+FLmjLI1IUoyJTp597lmSdJnpyI/C1KWixpUK7GvUdTlcydcyWTkYcHEm37oWRmZKXkvvjLZK0np0nrFj2Ns6EkrqpUjFppxTa1w1nPm5Lt9NR7oNrTg3Y0qU5RkmpSjFvGU0scm84b7OPDeanh7a3imCK1u1YS9skq2JYaRNXKUlbaoONfQgkG9sYlGbZmSSPYlrPM1H3x4juR4b/oxxQ8CwHQDtL+kK+OuT9/V0w7S/pCvjrk/f1dMWOOYLdhXikuC6R6fcVCTVSTnUtpyk+LdJZb63h8R3I8N/wBGOKHgWA6AdyPDf9GOKHgWA6Adpf0hXx1yfv6umHaX9IV8dcn7+rpjLen5RH/k/Ix3afks/wDi/M7jTtP2qkk4RYKwd2oio57APStc7q2WGa4CHdIicJhmHRsFKMi0KVkZHrLNJ7xc631CyekrT3Svg841I6aoSVS5qm05oj5vMko2RwxoPI220EaTcUeWWeWgzE77S/pCvjrk/f1dMapV9j8YNfxbEfW9H1lPIiGbNplyPe7MbSDPM0p2SzyIz06BgqUZVIylXiuOWp5k9MYy+Hs4ctdTN1pwpShC2nLRYi4YimnnLS469fHRPTQv0L+kvpmChmoODsxFMQ7CEtNNNTZtCG0JLJKUpJnIiIiIiIvAL9b25sNfeiYZqtqSjKQhavbcOTQiZ681MJhDNES3IhtcOTTrDZd5sVksjVmR6CUg1+H7fWAgrSS+KvBibkjkBKZM6SJTTT6ke6J7HZbJLZpzP/BLQasyyMs8+9IyVuWFK6lWXjxeFWVVxOyddlMc3DQrZn2CChySWwZaT+6lOflMzMzzMzMR1/sqynRqTs46QTbllvL6lrh+d8uHHhL7L25tKnXpU7+fzqjSUN1JpN43paZX+Vc+PDj682s1rfHFV8fluNUR/wDODay2q8btdH5bhVAf/NFVAUs6KSrayWo8Z1sflr+fn/zQ2sdpfG3WJ+Wu56f/ADBVQAEq2sdo/HD1aflrieH/AMsNrFaHxwVUn5a0nR/8sVUABKtrFZ7xy6pT8tYzk/8AlBtYbOeOU1Aflq6bn/yhVQAEq2sFmfHJJ4flqqbH/wAkYCv8NFnIOhKki2JDNydYlEY4g1VLM1ESksrMtBxBkfg8B6BdBrVzDytxVZ6pJHeoWAJHaPDVZ2YWpouPjKemS34mnpc86oqgmSSNaoZszMkk+RFpPwEREQ2zavWS8dLzA/LUEyP/AM42SzRZWfoYtVNSzkrY3EASravWQ8dJRZ+WeTA//OG1dsb46NfPyzmPP/zCqgAJVtXLF+OiVn5ZtGn/AOYb/S1LSKi5FC0zTMD7jlsHs+wMdlW5sNmtS1d8szUealKPSfjGWAAAAAAAAAASrCduWLN+b+nubmBVRKsJ25Ys35v6e5uYAFVAAAAAAAAAAAAAAAAAAAAAAE5xIlnh3ukWui53yF4UYTvEYWeHu55a6MnXIXgBulPHnIJaeuDZ/IQyAxtNHnTkqPXBMerIZIAAAAAAAAAAAAAAAB8pcT1y7jSi/wBW8tlVf1JBQkPNFIZh4eavtttp2KdCUpUREX1EJf3XLrfSdVnDUT0x7AvJgWuJcC71R3DfrKlJVTc0mBxrzr0Q+cTDQpEWzWaOxE2aiSSjyNwi1qLwiFLtthMQtSSxJztWxMyzKj38j+su+HT7G9sp0IRgt5qKziLlh454TOL7S2dtGndVJ1HuJyljemo5WeWWiad1y630nVZw1E9MO65db6Tqs4aiemKV3OMJn8SM99D3+kHc4wmfxIz30Pf6Q3O+Lb93L/jl+E0O9Lz99H/lh+Imvdcut9J1WcNRPTGSpyur4VbPIKmqdr+ro2ZzF4mIWHTPH0qdcPwJI1OEWZ/WY3jucYTP4kZ76Hv9IckNQWFWDfTEweJmoWHkZ7FxukYhKizLI8jJeZaDMYyuLfD3abz/AKcvgfY2l1vLeqxx/qw/EZXuNY6vk1f+kJ/1x/D1oMckMy5ERDVeNtNJNa1qqIySlJFmZmfZ9BEQ4/e/hx/ixq/0ai/6goVF4TIC79GzGprO4gp7M1Qr3uZhc1lkTAwzr5bE1JNZrUvIkq0qShWRmRaxH1LvoVvVd2K63Sml2tkrRsO+JblDelLjhV6bfYkaNduMqKr8L1j3Y2LmM6m8wmc9YSt5xcREPrOLJCEEZmalH+yki8hEPY2EfDXB2Ko/trPYdp2sp20lUxe0K9yN+FMK2ZeIjyNZl+0rWSUjKWJw9M0BQNCSivm5dM6godczcg3YRxbkK25FxCl9kTs0JUayRkkjMiyM1ZZ6DK1irbT2t0lN2dD6G9Jt9eZNr2Y/WhdtjbB6GtG/ulmpuQST5YhFNvz5TXo9IAAFfLWAAAAAAAAAAABrNzzytrVp6pFH8nWNmGr3TPK2NXnqkMw5OsAcFnSytHRBaqclvJWxt41G0JZWmootVOy3kzY24AAAAAAAAAAAAAAAAEqwnblizfm/p7m5gVUSrCduWLN+b+nubmABVQAAAAAAAAAAAAAAAAAAAAABPcRBZ4f7mlro6dcidFCGgYgyzsHcotdITnkToA2ulTzpiUHrgIf1aRlBiaRPOlJKeuXQ3q0jLAAAAAAAAAAAAAAAAIPi8brmpbfKtzb6byGAip6exmjsxmzUGtMCXhQglmRn2RRbEzLRsUrL94eFtpxdLfDQvpNDe0fU6Z0xTc6fTFTinpZHvIQTaXImEbdUSSMzJJGojPLMzPL6zHU94NC7y5Dwcz0RPbP25PZ1HoqSXW9PzKvtXuap7WuOnrSfDC14LsPl5tOLpb4aF9Job2htOLpb4aF9Job2j6h+8Ghd5ch4OZ6Ie8Ghd5ch4OZ6I3/2ruOpdn5kZ+w1p1vt/I+Xm04ulvhoX0mhvaG04ulvhoX0mhvaPqH7waF3lyHg5nojRbCwFPXBsZbqvqjo6nFzapaTlE4j1MyplCFRERBtOuGlOx70tktWReIg/au46l2fmP2GtOt9v5HgCV4KrqTOZQsuRUNEkcS8hrNuoGHVFmZEZkhJ7JRl4ci0mPotaq2aLcQUPJJa+5DyOTQKJVK4AjLv8lbN+NeMv2nnnNORaEpIvAa1JLaIai6OgohuLg6TkzD7KiW261ANJWhReAyMk5kf1jMiL2ltqvtGKhPgvN+v1kmtj9zttsmTqU/pPz/kv0l1AAAQxYQAAAAAAAAAAAAAAA1W6x5WurE9UgmHJ1jahql2jytXWZ6qfmPJnAB+WkLK1NGFqp6XcmbG2DVbUFla2ji1SCX8mQNqAAAAAAAAAAAAAAAABKsJ25Ys35v6e5uYFVEqwnblizfm/p7m5gAVUAAAAAAAAAAAAAAAAAAAAAAaFf8ALOxFyC10jOORujfRol+izsZcUtdJzfkboA2KjTzpCRnrlsL6pIzIwlEHnRcgPXK4X1SRmwAAAAAAAAAAAAAAAAAAAAAAAEqwnblizfm/p7m5gVUSrCduWLN+b+nubmABVQAAAAAAAAAAAAAAAAAAAAABqV3TytPWp6qdmXJnBto1C8J5Wkrc9VOTLkzgA5rVllbCkC1SGX8nQNpGsWvLK2dJFqkUBydA2cAAAAAAAAAAAAAAAAEqwnblizfm/p7m5gVUSrCduWLN+b+nubmABVQAAAAAAAAAAAAAAAAAAAAABo19izshcMtdKTbkbo3kaRfIs7KXALXS015I6AM1Qh50PTx65VCepSM6MBb886Dps9cog/UoGfAAAAAAAAAAAAAAAAAAAAAAAASrCduWLN+b+nubmBVRKsJ25Ys35v6e5uYAFVAAAAAAAAAAAAAAAAAAAAAAGn3kPK0NcnqpuZ8lcG4DTb0HlZ2uz1U1NOSuADu2yLK29KFqkcD6hA2Ua5bYsrdUsWqSwPqEDYwAAAAAAAAAAAAAAAASrCduWLN+b+nubmBVRKsJ25Ys35v6e5uYAFVAAAAAAAAAAAAAAAAAAAAAAGlXtLOzFfFrpia8kcG6jTL0lnZyuy10zNOSuADJW7PO39Mnrk0F6hA2Ea5bc87d0seuSwPqEDYwAAAAAAAAAAAAAAAAfhmREZmeREP0SjFBcicWoszOaykcqlUyiWXIeFOFmbC3oZ1t51La0rQlSTURpUejPLXn4B60KMrirGlDjJpdp4XNxC1ozr1OEU2/YeasRmPifSOtV0tZKIlr0vlRqajZm+wUQiLfz0kzpy7GnLLZfvHnloIjVKP1gmIv5ykXBafaK4tqNkrMKzX9I4RaQm8RDtxS5PNJEpMXDIWWaSdSlZklRlpyIz8WkcfbOl/leDHgNzpC70IWNKmod7qWOfHPnzg5vc1Np16sqnfThn/CtMebG9p7desk/wCsExF/OUi4LT7RxQmPnEBAQrMBARNOQ0NDNpZZZZk7aENoSWSUpSR5ERERERFoIiFd7Z0v8rwY8BudIO2dL/K8GPAbnSHrmx8lXZ+R4bu0vLZdv9RJ/wBYJiL+cpFwWn2is2LxL4h7jqmVaVpU0jkFvaWInp7OFSlOavAZQsOWnZvLzItBHsSUkzIzUhK8dUs0mcupea1XRluMKdcMSJj3XNIaQ0+bsTCw2ZEb5tqcLNsv3jI9BadeWg4v6vmEZSNp5FK4KXSGQTakoWpHZHJoVMJAIjok1KcWlpP1meWZnlmo881KM3QWt240aVCMXJ4zo2sLL0xxxwzpz1HfV7YqVxWuZzUUnu6pSy8LXPDPHGvLTivo3QlXQVfUbJq1lsM9Dwk7g245hp7LsiG3CzSSssyzyMs8jPymM8Jths+AC332egvVEKSKJcQVOtOEeCbX3nTrSpKtb06kuLSb9qAAA8TYAAAAAAAAAAAA0u9Z5War09VMTTkrg3QaTe88rL1+eql5ryRwAZS3JZW9pgtUmgvUIGxDX7ellQNNFqk8H6lA2AAAAAAAAAAAAAAAAAEqwnblizfm/p7m5gVUSrCduWLN+b+nubmABVQAAAAAAAAAAAAAAAAAAAAABp95CztDXJa6bmfJXBuA1G8BZ2lrYtdOTLkzgA7NsjztvSh65HAcnQNlGsWuPO2VInrkUBydA2cAAAAAAAAAAAAAAAAEXxbpSu0BIWklJVUEkIyMsyMu2DItAjGLX4IU/aGSc4Mjc2f4XT9Ze8j9q+A1vVfuPnVixccdxGV4pxalmU1NJGo8zyJCSIvIRERf7CSisYrt0XXv82X+VIk46vYeC0vVj7kcM2n4bW9eXvYAAG0aRdsHJmdzZ2yZmbb1IzlDifEtPuczyMvGWZFo+odvFb/l+yfm0lP4KHUwcfCjNvsnOeTmO3it/wAv2T82kp/BQgp/Wq9C90izU/qOXpf/AGgfQzDZ8AFvvs9BeqIUkTbDZ8AFvvs9BeqIUkc3vPCKnrP3nX9n+CUvVj7kAABrm2AAAAAAAAAAABpF8jysncE9VLTbkjo3caNfY8rIXDPVSk25G6AM3QJZUJThapRB+pSM8MFQhZUPTxapVCepSM6AAAAAAAAAAnVQWFoepZzFz6Yz24rMTGudlcRL7kVFAQ6T1Nw8PHIaaLR+yhCS+oY/a0263x3V42Kq6xAFVASra0263x3V42Kq6xDa0263x3V42Kq6xAFVEqwnblizfm/p7m5gNrTbrfHdXjYqrrETTDJh8oOdYbbUTmMn9ym4iPoeRRLqIS5tSQrCVrgGVKJtlmPS00jMzyQ2lKElkSSIiIgB6gASra0263x3V42Kq6xDa0263x3V42Kq6xAFVASra0263x3V42Kq6xDa0263x3V42Kq6xAFVASra0263x3V42Kq6xDa0263x3V42Kq6xAFVASra0263x3V42Kq6xDa0263x3V42Kq6xAFVASra0263x3V42Kq6xDa0263x3V42Kq6xAFVASra0263x3V42Kq6xDa0263x3V42Kq6xAFVGp3bLO1NaFrp6Y8mcGrbWm3W+O6vGxVXWI1q5mHG30Hbiq4tmoboKcYkkc4hL106ndQZkwsyJSFzA0rLRpSojIy0GRkAKhak87XUeeuQS/k6BtQglsMOdvo62tJRz1Q3QS5ESOAdWTN06naQRqh0GZJQiYElBadCUkREWgiIhs21pt1vjurxsVV1iAKqAlW1pt1vjurxsVV1iG1pt1vjurxsVV1iAKqAlW1pt1vjurxsVV1iG1pt1vjurxsVV1iAKqAlW1pt1vjurxsVV1iG1pt1vjurxsVV1iAKqAlW1pt1vjurxsVV1iG1pt1vjurxsVV1iAKqIxi1+CFP2hknODIyW1pt1vjurxsVV1iIvfuTUzDWguJQ9m5jWlRT6RTGSOR6YqpJtULsPEe6NmlDJxj76m1IJBqWTeRZ7HZZmnvd/ZkHO7ptcFJZfVqlqRm2akYWNVPi4ywub0bwvYjx9iu3Rde/zZf5UiTj1zU8PbW8UwRWt2rCXtklWxLDSJq5SkrbVBxr6EEg3tjEozbMySR7EtZ5mo++PEdyPDf9GOKHgWA6A6LbbQhQowpTi8xST4PgsccnI7zZVS5uJ1qc47sm2s5Tw3nVNaM8ugPUXcjw3/Rjih4FgOgHcjw3/Rjih4FgOgPf5VpeLLsXxNf5Er+PHtfwNTwcfCjNvsnOeTmO3it/y/ZPzaSn8FDbWnaftVJJwiwVg7tRFRz2Aela53VssM1wEO6RE4TDMOjYKUZFoUrIyPWWaT3i51vqFk9JWnulfB5xqR01QkqlzVNpzRHzeZJRsjhjQeRttoI0m4o8ss8tBmIud1FXsblp4eiWmW0nyT555+l6EzTspPZ07RSWVq3qopOUebS4JZeM8ksvQ9T4bPgAt99noL1RCkj5xVJjGtTVExKZRlsbjS9SGW4duGkd1JzJ4NtttJJQlELBPNMIyIi/ZQRn48xdrN0rQVz5JK51UEJdWkTqMnHJDBxV56pfipjDtp2TkQTZRqdg0RGnJRn32ZHkRKQa6df7MvKMpV61PdTb5p+fkzoOy9s7PuIwtbervSikuElwwuawsvhrx0PU4CVbWm3W+O6vGxVXWIbWm3W+O6vGxVXWIiSdKqAlW1pt1vjurxsVV1iG1pt1vjurxsVV1iAKqAlW1pt1vjurxsVV1iG1pt1vjurxsVV1iAKqAlW1pt1vjurxsVV1iG1pt1vjurxsVV1iAKqNEvyeVjbinqpOb8jdGF2tNut8d1eNiqusRpV7cO9ASyzFfTKHqC5y3YSmJq+2mIujUz7RqTCOKIltOR6kOJzLSlSTSZZkZGRmQAt9EFlRcgLVK4X1SRmxFKSw3W9fpSSvOVFdIlOS+GUokXVqhCSM20noSmYESS+oiIi8Qy21pt1vjurxsVV1iAKqAlW1pt1vjurxsVV1iG1pt1vjurxsVV1iAKqAlW1pt1vjurxsVV1iKLIJHBU1JoSQy5+YPQ0E2TTa5hMYiPiFFrciIha3XT/9y1qP6wBkAAAAAAAASrCduWLN+b+nubmBVRKsJ25Ys35v6e5uYAFVAAAAAAAAAAAAAAAAAAAAAAGr3SLO2NXlrkMw5OsbQNZucWdtqsLXI4/k6wB17Qnnaaij107LeTNjbhp9nDztFQ566blnJWxuAAAAAAAAAAAAAAAACJYm63vFJqXVTNkaGnE1nszQpDs0h2f8KXNGWRqQpRkSnTz73LMk6TPTkR+FqUtFjSoV2Neo6nK5k65ksnIw4OJNv3QsjMyUvJffGWyVpPTpPWOPE9cu40ov9W8tlVf1JBQkPNFIZh4eavtttp2KdCUpUREX1EJf3XLrfSdVnDUT0x0fZWza1tapU9xqSTeU23z115HIdt7YoXl7KVXpE4NxW7JJLGjxpnXmXbtL+kK+OuT9/V0w7S/pCvjrk/f1dMQnuuXW+k6rOGonph3XLrfSdVnDUT0xvd5V/FpfZfxIz5RtvHrfbXwLt2l/SFfHXJ+/q6Ydpf0hXx1yfv6umIT3XLrfSdVnDUT0xkqcrq+FWzyCpqna/q6NmcxeJiFh0zx9KnXD8CSNThFmf1mPjs60VlxpY9V/EyjtC3m1GMqzb/zr4Fk7S/pCvjrk/f1dMapV9j8YNfxbEfW9H1lPIiGbNplyPe7MbSDPM0p2SzyIz06BmO41jq+TV/6Qn/XH8PWgxyQzLkRENV4200k1rWqojJKUkWZmZ9n0ERDXhWjTlvQqUU/N/wDo2qlvOrHdqUrhrz6/+pz2+sBBWkl8VeDE3JHICUyZ0kSmmn1I90T2Oy2SWzTmf+CWg1ZlkZZ596RkrcsKV1KsvHi8Ksqridk67KY5uGhWzPsEFDkktgy0n91Kc/KZmZnmZmY0u7cZUVX4XrHuxsXMZ1N5hM56wlbzi4iIfWcWSEIIzM1KP9lJF5CIexsI+GuDsVR/bWew7TtZTtpKpi9oV7kb8KYVsy8RHkazL9pWskpGhtK7hTtKlW5eakt6CS4JJ4eOzLfF6IlNkWNStfUqFmt2jDcqSb4ttKSy+bWcJcFq+OS/gAChHUQAAAAAAAAAAANBxAnlYa5J6qRnHInRvwn+IQ8rB3LPVR855E6ANoo8sqRkhapdDeqSMwMTSRZUrJi1S+H9WkZYAAAAAAAAAAAAAAAAEqwnblizfm/p7m5gVUSrCduWLN+b+nubmABVQAAAAAAAAAAAAAAAAAAAAABrdyizt1VRa5JHeoWNkGu3FLO31Tlrk0b6hYAx9mDzs9Qp66alfJWxuQ0uyZ52ZoI9dMSvkjY3QAAAAAAAAAAAAAAAB4VvJgWuJcC71R3DfrKlJVTc0mBxrzr0Q+cTDQpEWzWaOxE2aiSSjyNwi1qLwiFLtthMQtSSxJztWxMyzKj38j+su+HufF43XNS2+Vbm303kMBFT09jNHZjNmoNaYEvChBLMjPsii2JmWjYpWX7w8LbTi6W+GhfSaG9ov2yL2de3Tua+5jRJbvBc3lM5dt7Z1O2u3GztekzrJy3msvXCxJe3j1cj97nGEz+JGe+h7/SDucYTP4kZ76Hv9Ifm04ulvhoX0mhvaG04ulvhoX0mhvaJTp6Hlb/g/CQne115DHsqfjP3ucYTP4kZ76Hv9IckNQWFWDfTEweJmoWHkZ7FxukYhKizLI8jJeZaDMcW04ulvhoX0mhvaG04ulvhoX0mhvaHTW7/APLf8H4Qra6WqsY9lT8Zk/e/hx/ixq/0ai/6goVF4TIC79GzGprO4gp7M1Qr3uZhc1lkTAwzr5bE1JNZrUvIkq0qShWRmRaxNJXgqupM5lCy5FQ0SRxLyGs26gYdUWZkRmSEnslGXhyLSY+i1qrZotxBQ8klr7kPI5NAolUrgCMu/wAlbN+NeMv2nnnNORaEpIvAa1JKH2rtGNnBO2ruUvOotY9kVx+JP7E2RPaFSSvLZQgupzTy/TN8PRxwarYnD0zQFA0JKK+bl0zqCh1zNyDdhHFuQrbkXEKX2ROzQlRrJGSSMyLIzVlnoMrWACl17ipczdSo9W2+15f3s6La2tKzpqlSWEkl2JJZ69EkAAB4mwAAAAAAAAAAABPsRB5Yf7mnqo6dcidFBE8xFnlh8ueeqjZ1yF4AbfSxZUxKC1QEP6tIygxtMllTcqLVAserSMkAAAAAAAAAAAAAAAACVYTtyxZvzf09zcwKqJVhO3LFm/N/T3NzAAqoAAAAAAAAAAAAAAAAAAAAAAwFwSzoKpS1yiM9SsZ8YKvCzoaoi1ymL9SoAYax552VoA9dLyrkjY3YaPYo87I29PXSsp5I0N4AAAAAAAAAAAAAAAAYyZ0xTc6fTFTinpZHvIQTaXImEbdUSSMzJJGojPLMzPL6zHU94NC7y5Dwcz0RngGaqTSwmzzdKnJ5cV2GB94NC7y5Dwcz0Q94NC7y5Dwcz0RngH3pZ+M+0+dDT8VdhgfeDQu8uQ8HM9EaLYWAp64NjLdV9UdHU4ubVLSconEepmVMoQqIiINp1w0p2PelslqyLxEKwJVhO3LFm/N/T3NzAdLPxn2joafirsN8hqLo6CiG4uDpOTMPsqJbbrUA0laFF4DIyTmR/WMyADCUnLizOMIw0isAAAfDIAAAAAAAAAAAAAAAJ1iPPLDzdE9VGTvkLwoonGJI8sOt0z1UVPOQvADdqdLKn5YWqDZ/IQyI6EgLKRS4tUIz+Qh3wAAAAAAAAAAAAAAAASrCduWLN+b+nubmBVRKsJ25Ys35v6e5uYAFVAAAAAAAAAAAAAAAAAAAAAAGErgs6KqAtcri/VKGbGGrQs6Onpa5ZFeqUANdsMedjbdnrpOUcjaG9jQrBHnYm3B66Sk/I2hvoAAAAAAAAAAAAAAAAAAAAAAACVYTtyxZvzf09zcwKqJVhO3LFm/N/T3NzAAqoAAAAAAAAAAAAAAAAAAAAAAm+JY8sOV1T1UTPOQPCkCa4mTyw33XPVRE95A8AN9khZSaALVCtfkId0dOTllKYItUO3+Uh3AAAAAAAAAAAAAAAAASrCduWLN+b+nubmBVRKsJ25Ys35v6e5uYAFVAAAAAAAAAAAAAAAAAAAAAAGIq8s6SnZa5dE+qUMuMVVZZ0vOC1wER6tQA1XD6edhbbHrpCTciaG/ifYeTzsDbM9dHybkTQoIAAAAAAAAAAAAAAAAAAAAAAACVYTtyxZvzf09zcwKqJVhO3LFm/N/T3NzAAqoAAAAAAAAAAAAAAAAAAAwda1nILf01G1XU0YUPAwSMzy0rcWehLaC/eUo8iIvwLMx5yRT9T3bjX65uLM5zKSjcilclgY5yHTAQhGZpJzY5bJ1WeajP/wCtCU69auqTUUsslNn7MlexdSUt2C0zjOX1JaZ8/V7UeqRM8Tp5Ya7snqoafcgeEp7i1N/P9U8NPe0cUVYyko6Gego2b1LEQ8Q2pp5l2cOrQ4hRZKSpJnkZGRmRkfhHj33Lxfv/ACJD5Co/vn9n+o9OysspZCFqYb/KQ7Q8uFZWmkkSUz6qSItBEU6e9o/e4tTfz/VPDT3tDvuXi/f+Q+QqP75/Z/qPUQDxRcWl6epUoSQSCZ1RM6onGbcugSnb2ReI3ndPetp06s8jLMiJRpq2D2EnEsp2r5NPJq9HxUuqFcM46t5biTUllsjNOyPX49BnkWY+0rvpKnRuP3mF5sFWto7pVM4xpu4zrjPF6HoEAAbpXgAAAAAAACVYTtyxZvzf09zcwKqJVhO3LFm/N/T3NzAAqoAAAAAAAAAAAAAAAAAAAAAAxlTFnTc2LXAv+rUMmMdURZ0/My1wb35DAGm4dDzw+WxPXRsl5CyKGJ1hwPPDxa49dFyTkLIooAAAAAAAAAAAAAAAAAAAAAAACVYTtyxZvzf09zcwKqJVhO3LFm/N/T3NzAAqoAAAAAAAAAAAAAAAAADzdicp5us7l2/pSYTeZQkA9DzCLMoN8m1JeaSg0OFmRkSi8GeWZEZ5ZZiPpXDzBx5ymZ3e+eQLTqmUx0HMSNh1STyPYGaSMyz8eRCy4jzNN0aMUkzIykc9MjL/APQkdOyyUotXTZISSS9xkeRFlpNRmZ//ACIWvHfryX64I6Ls2s6GzKU+OnD0ynl/ciUe45x8RfvhFPsD3HOPiL98Ip9g9GAMOg857fKT8T7zzn7jnHxF++EU+wdmUwcJFTiDks+qq81POTJzsEG9MpmSGXnctDZKJJ5KPxF4x6DE5vsRFSMvcIu+bnkApCvGk+y+EtR6R8lS3FvZPWjeuvNU93GdMmIsbI4Vid1pMYyIiplMoKdvSpExj3jeiVQ7RESUqWfkLPIizyLxERFUcMn/AFrj/a6I9W2J/Zj/ALncD7WRv4kKBhk/61x/tdEerbHvaLE4+0jNutyoV8/5P5FvAAEuUIAAAAAAAAlWE7csWb839Pc3MCqiVYTtyxZvzf09zcwAKqAAAAAAAAAAAAAAAAAAAAAAOhPizkcxLXCPfkMd8dOclnJ44tcM7+UwBomGs88OlrD10VI+QsijibYZzzw4WpPXREi5AyKSAAAAAAAAAAAAAAAAAAAAAAAAlWE7csWb839Pc3MCqiVYTtyxZvzf09zcwAKqAAAAAAAAAAAAAAAAAA854kPhQo3+RT31CR1LMfBZTf8Aok/iY7eJD4UKN/kU99QkdSzHwWU3/ok/iYiKnhEv1yRf7X6po/rnM3QAAZHgBOb7f5Pgv51AetIUYTm+3+T4L+dQHrSHnV+gzasvCIek4bMf9zuB9rI38SFAwyf9a4/2uiPVtif2Y/7ncD7WRv4kKBhk/wCtcf7XRHq2xlafTj7Tx254PX/2fyLeAAJcoZOqgsLQ9SzmLn0xntxWYmNc7K4iX3IqKAh0nqbh4eOQ00Wj9lCEl9Qx+1pt1vjurxsVV1iKqAAlW1pt1vjurxsVV1iG1pt1vjurxsVV1iKqAAlW1pt1vjurxsVV1iJphkw+UHOsNtqJzGT+5TcRH0PIol1EJc2pIVhK1wDKlE2yzHpaaRmZ5IbSlCSyJJEREQ9QCVYTtyxZvzf09zcwAG1pt1vjurxsVV1iG1pt1vjurxsVV1iKqAAlW1pt1vjurxsVV1iG1pt1vjurxsVV1iKqAAlW1pt1vjurxsVV1iG1pt1vjurxsVV1iKqAAlW1pt1vjurxsVV1iG1pt1vjurxsVV1iKqAAlW1pt1vjurxsVV1iG1pt1vjurxsVV1iKqAAlW1pt1vjurxsVV1iG1pt1vjurxsVV1iKqAAlW1pt1vjurxsVV1iOtMsNVu0y6KUmorqGZMLMiO69UmX7J+EjmGRivDrzEs5fElrZX+UwB5ww7YeqCnGH62U3ip/cxt+Oo6SxLiIW59SwzKVrgmlGTbLUeltpGZ6EISlKSyJJEREQoW1pt1vjurxsVV1iOfC8eeGi0h66FkPN7IpwAlW1pt1vjurxsVV1iG1pt1vjurxsVV1iKqAAlW1pt1vjurxsVV1iG1pt1vjurxsVV1iKqAAlW1pt1vjurxsVV1iG1pt1vjurxsVV1iKqAAlW1pt1vjurxsVV1iG1pt1vjurxsVV1iKqAAlW1pt1vjurxsVV1iG1pt1vjurxsVV1iKqAAlW1pt1vjurxsVV1iG1pt1vjurxsVV1iKqAAlW1pt1vjurxsVV1iJphkw+UHOsNtqJzGT+5TcRH0PIol1EJc2pIVhK1wDKlE2yzHpaaRmZ5IbSlCSyJJEREQ9QCVYTtyxZvzf09zcwAG1pt1vjurxsVV1iG1pt1vjurxsVV1iKqAAlW1pt1vjurxsVV1iG1pt1vjurxsVV1iKqAAlW1pt1vjurxsVV1iG1pt1vjurxsVV1iKqAAlW1pt1vjurxsVV1iG1pt1vjurxsVV1iKqAAlW1pt1vjurxsVV1iOnOLA2mkErip1OqxufBwME0p6Ifdu1VKUNoLwmZ9sRW4yLhZfCPx8a+hmHhm1PPOrPJKEJLNSjPxEREZjx9W96KRvRVhwk/qmGldBSV4lsQDrhpdnL6T0OupLSlovEk8s/Kfe69xcRoLzvgSmy9l1NpVHhPcj9JpZ9i875dr0NVlEVIlXfkdRNOVBB0jHw0ezLVVVVcymzrzKWjSp41TGIe7Clw1ERJQaSMklnsjyMbBKHatoWGVT9FXIt9MJIy4tUEmdRiifh21KNXY82lZKIjM9J6tGRaC2KdVvYKokQ7c9mtOx6YQjSwT7RL7ER5ZknNOgtBaC1EMX7vww/F0n92LoiIllycnJZ9JfacVTpxpRpSUUsY3crRtp66511Hv2utvus/9/iekHv2utvus/wDf4npB7vww/F0n92Loh7vww/F0n92Lohr4y7TLEf3L+x+Y9+11t91n/v8AE9IcC0TOs5hAquXcmimpVLoluMTL5JF6Il1B5pNxbqtkREZ+AtB/UeRlz+78MPxdJ/di6Ie78MPxdJ/di6I+ceMl2hYjrGnJPrUFk1akanqOOnda0dbxtC5jNqjjIpc1PvoaBhDVl2XZFmSlKyPYkXlH9w+GKsYJx92WXmqeWKinOzRCZXUM6l7bzuREbim4aObbNZkRZq2OZ5aRv8juFYymWHIanp7IZc06rZuJhkdjJassszyLSMdU9y4itopmhrRzBETGx6DVGzZsldilsPnkaiPR356ctWjLSZGWUd2Czva+ZmNbpLiTgqWIPDe9FPguLyuXJfzIpPqeqySVcxT0Dei5U6ahI2GhprEMV5UTbMMt10kk0ajmJ7JZ99mRZZZHpzJWx+i0gkcFTUmhJDLn5g9DQTZNNrmExiI+IUWtyIiFrddP/wBy1qP6x5PrajZLQlvZJIZM1khE/lynXlZdkiHTeLZOLPxmf/0WRFoIewBv2TnmSm88P5lW7o426jSlQgor5y0SWcburx+kAABvlXAAAACVYTtyxZvzf09zcwKqJVhO3LFm/N/T3NzAAqoAAAAAAAAAAAAAAAAAAAAAA4Yws4R8tbavwHMOOILNhwtaD/AATPC0eeGO0R66DkHN7AqAluFU88L9nz10FT/NzAqQAAAAAAAAAAAAAAAAAAAAAAACVYTtyxZvzf09zcwKqJVhO3LFm/N/T3NzAAqoAAAAAAAAAAAAAAw1ZpSqj56lREZHLYojI/GXYlDzZaGk6VjbaU9FxtNSqIfdg0qW67BtrWo8z0mZlmY9MVRDvxlMzeEhWlOPPwEQ22hPhUo21ERF5TMeQpBcyZ2xt3KJRUVrK4hYuGaTBMuRcpVDwz8SeyNDZOLMj05eJJnoPIjyEfeNKcXLhh/yLZ3PRnUt6lOk/nOUdM45SKp7yaM3oyX7g10Q95NGb0ZL9wa6I1JNV3rUkj7lEuLMs8jnreZf/Q/ffVev6KZdw637Bq70er7mTPQ1/HX218TbPeTRm9GS/cGuiHvJozejJfuDXRGp++q9f0Uy7h1v2B76r1/RTLuHW/YG9Hq+5joa/jr7a+JsU0p23sll0RNppTUkh4SFQbjzpy9syQkvCZ5JzGne/wBw6fHU1wYX9Mdx2pLzPtm0/aSVuIV4UrnbRkf+xpHX7Z3V+haR8LM9EYSl4q+5ntTpNL+0ll+apFfE/luucPDriWml02tazJKUlKyMzM/ARf4Y/iiWJXI7wXCRDswsBBQ0JLXDJCUtNNp7BslKyLIiLwmZ+UYaOuzO6eqyX0rUlo4ZUXHlskwspeRGxRpPMi2DaU98ZmR6My0EY5abtpXF3rsTxyY0zUlLUdNUwbs0VNIBcHERTbCCSUOgz0d+rMzyM8klmeR5EeKbm0orLz1Y5HtOMLenOVaW7FxzlyUs/OXDHPR+k3+2NLxF6aqYuRPmFooyQxB+9+CcSaSmMUg8jjHCPwoSZZILWXiyUSvRw4IGBgpXBQ8tl0K1DQkK0llhlpJJQ22kskpSRaCIiIiIhziZo0lSjjnzOe7QvpX1XexiK0iupfF8W+bAAA9jQAAAACVYTtyxZvzf09zcwKqMfT0gk1JyCWUtTkuagJTJoNmXwEIyWSIeHaQSG20/UlKUkX1EAMgAAAAAAAAAAAAAAAAAAAAAAP5WWaFFrIx/QACV4UTzwt2dPXQFPc3MCqDH09IJNScgllLU5LmoCUyaDZl8BCMlkiHh2kEhttP1JSlJF9RDIAAAAAAAAAAAAAAAAAAAAAAAAJVhO3LFm/N/T3NzAqox9PSCTUnIJZS1OS5qAlMmg2ZfAQjJZIh4dpBIbbT9SUpSRfUQAyAAAAAAAAAAAAAAADyHcq7Mnqa9j5TyEmr0ioN52DgGYWCceS9MyPYvPL2JZFsMtikj1EovCY9eDyJcOgqYar2oX2ISKYVFzF2KeJmYRDaVuuHslr2KVkWZmeoaV7vuCUessfc26Ea85Vk87umOWdH92ntZku7tR/zXUfBDvsDu7Uf811HwQ77BpvvJkGqZcKxX9QPeTINUy4Viv6gj/wC18xatyx6pfcbl3dqP+a6j4Id9gd3aj/muo+CHfYNN95Mg1TLhWK/qB7yZBqmXCsV/UD+18w3LHql9xuXd2o/5rqPgh32DijL/ANGwkI9FKldQ5NIUvvpY4gjyLwGo9BeUxqXvJkGqZcKxX9Qfw9QdNxDSmH2Y9xtZGlSFzOKNKi1GRuaQ/tfMfVGwzqpfcdzDpSFQ3VuHD3SjWiahJZMFTCNmC0H/AI8RsNi1BMZ/uNoMjUrWZFp0GPaQw9ISKT0zTEskUhl7UFAQkM2hllotCSyzM8z0mZmZmZnmZmZmZmZjMCVtqHQQxzfEo22NpPadz0iWIrSK6l+vgAABsEUf/9k=;" vertex="1" parent="1">
                    <mxGeometry x="100" y="110" width="220" height="220" as="geometry"/>
                </mxCell>
                <mxCell id="3" value="&lt;div style=&quot;text-align: left;&quot;&gt;&lt;span style=&quot;background-color: initial;&quot;&gt;jabbhi ek entire column and entire row dono me koi akela he&amp;nbsp;&lt;/span&gt;&lt;/div&gt;&lt;div style=&quot;text-align: left;&quot;&gt;&lt;span style=&quot;background-color: initial;&quot;&gt;esa dhunda he to fir&amp;nbsp;&lt;/span&gt;&lt;/div&gt;" style="text;html=1;align=center;verticalAlign=middle;resizable=0;points=[];autosize=1;strokeColor=none;fillColor=none;" vertex="1" parent="1">
                    <mxGeometry x="320" y="110" width="350" height="40" as="geometry"/>
                </mxCell>
                <mxCell id="4" value="" style="shape=stencil(lVnLchw3DPyavaJIgi+cZec/VGU52oosuWQlsf8+mGyBIjEzrfJNmmUP2UDjxbnw3Y/H++8PlxR+vL2+/PXw7/XL2+OFP11Suj4/Prxe3/SvC3++8N3Xl9eHP19f/n7+cvv/+/22cvvr28s/2xt+3nCZct1AKfy6PYjU+f8Hf9yWP12fp+WFSluWF+J8vrxRT+vbA/V4vl4o5XV9ppDO12+vKyugUQHnj8mfSAnXDgCZZDWQUpYAAI2YFwAH4gYAYiYZgEwNcEiJeD0SCwXAQZ3sSOdkfjwG7DhkJY0AYicegE5SzgFKMayOK0wJkOZuFAegUgXSyyrksAKEMuCgFHm1Uo3UgFizqnUNhpopAdIbxfVItVIWAGje07VTBjvUIWYDtEARcKjFwn0AIiUE2Hm6JQrArI3tfROgggBq9QAg4EhNvKd1T3ikSiV50h0EkALiqtbN04iDUF05VKZYzwGdfTyoZwqQRi/UnFobVZAqezdtDoBY7j/OxdHcNFkpg4iTYql38kMEHKRTkxVQzDMn6T5QWM/UA1WQNnSLvJqpZ4pAG0rC5crebM9jAHvWXZ0PYlQCpTVGRQMCHEkPUFbSkqHnlKIHFHtyDAje1VJhRWm7AqGABlytaUhWs4qQADGpOKvsACj1dR/UCkCka/OOU7GgCNJk7XKlNMooV47sPpsVHUkT0xqj6mnUzihA3A44zyjpthNfQDv0HeloZe/M08EBAvT0VnCK3wGKT/uf7gEViY+PIg4DevVmFXSkbAVnirgMtLTtsJMGLEHsuxNVa8RWys4PgmtW3O0gcBbYWos1a0z5+UxMEvwWDcdoz541zAJtp77xitOQq94RGdj1IKgLnFG2tOFIM2yAlIPfYSj+zKxuiNOAgBzEEt0coyAgfhug6our47aqiORarLcYgA4TUxtCmAp1Qg1QtBAegGphftZiuaDWJ/2DQu2OxDCC1CYuHvSQKEZldMIToAB56w7FkdYQRX2lxoPrvjvs+pSiuxLQbjkj0sFz0OwJc+Xop6ahhtEOaTeYVSt7pw3TKm8VfELSqL6dUcGjNPOuzQFoeAe2nyfHoauTzUo7AJrZ33vtCVA+qCjFAyLKfH3nOIGe1qlqLz5GA7L4+qBmDWgEL36SUzOghqkEP8lt0ygI0VztxLNaAemcdrNig6mSu11LTNMoykucTQjTzQbcIVgvMu5Oxk3e8f1Pt2F1AAocUZIO+Q6QrEweA9j3oVlgFU3azqy5VT2DbgVi9wGknkHXObH6YZQbvKiIbJelA8BwRInBd+tJKIAddo1AyvAKq/oxLgXotmyD6uj48NjH3stqAlRMotWmETvwMmqkn2FPc+HJcu8vaMxgvw7jEAM5BMsj7zfpyPTBt+eRIqhpwV8SB3jJEH0FHJcOJ8vdRYxyR9FrhpiWo1D0Xc4YHE5Ekz1VZPfdrKZBg+6FfSGO9s3hZPn++8hvLl+8qn+8f4r5en16un3JmX/3n2700e2zD3/+Dw==);lineShape=1;" vertex="1" parent="1">
                    <mxGeometry x="322.7788360430802" y="349.39908952278495" width="55.714667298731854" height="46.68281269946639" as="geometry"/>
                </mxCell>
                <mxCell id="27" value="&lt;div style=&quot;text-align: left;&quot;&gt;&lt;span style=&quot;background-color: initial;&quot;&gt;ye numbering nikalo&lt;/span&gt;&lt;/div&gt;&lt;div style=&quot;text-align: left;&quot;&gt;&lt;span style=&quot;background-color: initial;&quot;&gt;ki har ek column line me kitne he&amp;nbsp;&lt;/span&gt;&lt;/div&gt;&lt;div style=&quot;text-align: left;&quot;&gt;&lt;span style=&quot;background-color: initial;&quot;&gt;and har ek row line me kitne he&lt;/span&gt;&lt;/div&gt;" style="text;html=1;align=center;verticalAlign=middle;resizable=0;points=[];autosize=1;strokeColor=none;fillColor=none;" vertex="1" parent="1">
                    <mxGeometry x="780" y="322.97" width="200" height="60" as="geometry"/>
                </mxCell>
                <mxCell id="28" value="" style="shape=stencil(lVjbblQxDPyafbXiONdnKP9RiUJXlLZqy+3vcbRkOXb2zKpvS8mcxPbMxM5BPrze3z7fHWJ4fXt5+nb36/j57f4gHw8xHh/v716Ob/rrIDcH+fDl6eXu68vTj8fPp38/346V49f3p5/jC79POCkU20DF8OffXyid/vDptP7h+GjXl2LWVypofaUazXpm6gkAOkm1gEI17AMSU+kGEJmSAEAiThZQ5iEvAwoFu4NEEhBDqpSCBVRikCUFdAtIcdblMqD5I+knQoGAKAaQmTJDQLKFyxUH3YktoDBJ3wfkQM3GUHAdciRmyz3dAcSgAMkWUIgrBHRLvhZIAJdyomgL1xI1ULicp7zOgE4Z7ZC9QLtQRTEwsQ26K7syUFwjsZLmECgAycVOqfstUNRqKsWdKUFRs7LPnqkzFAQLBcuNps4Doq6eS1q4CNafM7JhRkB1I7Hra5wnvBxAomzrrOSuQNFRAc6JM6yaqFjcDmdT2PP6bndoPM35sgVkqpYXLcMdlNzOxlqBO6hDOK5q2TIwGc1Jc3qTac6XAX0ScxMDgxjUUmJcjgRiqOKpoUdCVqxEiPbCasoltEOguNoYylLwrqTUKIB8eqTmnFXvH3A71ORj0Mogs9fviaWGfqKBOmiIvXlAAjFomYp4QAEWoI7SF8WhtPZAxVJDyYLY2s99xaYODLKkgO526NRAHcYOzvd4+sheDHkRUAAxjCytzooAZ7lsFIesclQ6egAjetd5iW9vaUS+NL+3CbpjiTZ3pDjztqu4RaL9iqYdvTv01uEadgdNQ0Y3oizkK5B8dZkdxg2EYujzRtsoLoMdhlen9wIWTSPAptXZkKkiBek0YK1vdHDIZxo118tEOKCMzsIBZDrP5VtR+zEruY7vrNx9Y9yvDFl1+tYG0FCzUX0r0DMcLGPzg6JmiQFd4+pkfWrqcqnz0vJlKAjtKdlRg+dQdBmwpFXZV4Ft6ODJThD43pXlglCfgT2curGzPlUtmvviPPEmragPlbSwNcza78Xghl09EmKrNq61+joIOhL7lqzioBXAzskCvCAkeGpcmV11ZHKuUSLsTlQPxdbhyvytgGaPNCZ8dKTmr9HxhgAKN2JYXimQkY0dbAw6awZsAi5LItBbVUDZxqCfQC8tOjUV9/gjU4N7NuMArLMu0jRPUzkDIo5hae/Pr0F764N/siuobDwH23PIsJHW9c2lCLZj43MuQ3BU1xKwlXPA589e/toKoXzW+aDyfz2a1OPy4ohfP4ZZFLceUU79rrFbj/ighhrZ5RO1YbI8NTD2ruJlHOeYsrf+vU/EV9brj//v0V+ODw+n5+zt//v3a/3T6e1bbv4C);lineShape=1;" vertex="1" parent="1">
                    <mxGeometry x="871.4868774487177" y="380.13276299994266" width="15.012597330151038" height="31.707511956554487" as="geometry"/>
                </mxCell>
                <mxCell id="29" value="" style="shape=stencil(fZbdcgIhDIWfZm8zQAg/17Z9j85U606tdqz9e/tmZ0c0uJ47xP0I5JwEBl59bp8/1kNwn6fj4W39M76ctgM/DCGM++36OJ50NPDjwKvN4bh+PR6+9i/z74/n6ctp9H74nlb4nbmSKZeJCu5vngmZ6jzzNAO7cX8FVKEsBuBKrgKg9oAE8gkCbLeUhEoEQKSUDZDLeWYRKIl8MEDRmHwfyBrBG6Amyu4+kDxxMoB3jhwgYu7TVAsVkFcWCs4CTBEoF4RctKeOxHIf8IXYpikHikAIf+MNUW94AGSSaoAoFIE3AlOyeWU+p2E5S9yfQZcQILVuQOwZdJNoS9Ls3wA5u2XZTIHECqeJ9kDpSaauRiNVcAY1QhdBzeLBli5WazpkSsBLV25uRaqWRyFawTQzRRIQYirJzq5atkBqLfouwqUxLBepthWb10vrWZY6UOAeyKCCtDV625mm9gmUC4Wc3VLJMMIE1BsA2FW9JraVlQB7n3c9oMKhCLEvIM1zBPZ25/umNQ1tVEC2G+fFCC8g398O2hNQuQlVu752DBfA+q0ptnqO5JFmeuIuo9DY7KjY71UxdJV4EntifPWorW++R/dC4t7V3DlIB5cHx2bc7eb3yvX//QNFp+bHDT/+Aw==);lineShape=1;" vertex="1" parent="1">
                    <mxGeometry x="882.0835574753394" y="404.3027662798095" width="2.3961742421103667" height="2.3924288289013838" as="geometry"/>
                </mxCell>
                <mxCell id="30" value="&lt;div style=&quot;text-align: left;&quot;&gt;ye milega by 2d iteration simply do for loop lagao&lt;/div&gt;&lt;div style=&quot;text-align: left;&quot;&gt;and get the row lines numbers&lt;/div&gt;&lt;div style=&quot;text-align: left;&quot;&gt;&lt;br&gt;&lt;/div&gt;&lt;div style=&quot;text-align: left;&quot;&gt;wapas do for loop to get the column line numbers&lt;/div&gt;" style="text;html=1;align=center;verticalAlign=middle;resizable=0;points=[];autosize=1;strokeColor=none;fillColor=none;" vertex="1" parent="1">
                    <mxGeometry x="760" y="420.00000000000006" width="290" height="70" as="geometry"/>
                </mxCell>
                <mxCell id="31" value="" style="group" vertex="1" connectable="0" parent="1">
                    <mxGeometry x="440" y="304.35678273195526" width="294.19293667789486" height="285.64321726804474" as="geometry"/>
                </mxCell>
                <mxCell id="5" value="" style="shape=image;verticalLabelPosition=bottom;labelBackgroundColor=default;verticalAlign=top;aspect=fixed;imageAspect=0;image=data:image/jpeg,/9j/4AAQSkZJRgABAQAAAQABAAD/2wBDAAMCAgICAgMCAgIDAwMDBAYEBAQEBAgGBgUGCQgKCgkICQkKDA8MCgsOCwkJDRENDg8QEBEQCgwSExIQEw8QEBD/2wBDAQMDAwQDBAgEBAgQCwkLEBAQEBAQEBAQEBAQEBAQEBAQEBAQEBAQEBAQEBAQEBAQEBAQEBAQEBAQEBAQEBAQEBD/wAARCAG7AbsDASIAAhEBAxEB/8QAHQABAQACAwEBAQAAAAAAAAAAAAcFBgMECAkBAv/EAFcQAAAEBAICCgsMCAUDBAMAAAABAgMEBQYHCBEhURIYOFaVl7S10tUTFRciMUFxd5az0RQWN1NUVVdhdpSxsgkZMkJYddPUIzZ0gcQzNcMkYpGhUnOS/8QAGwEBAAIDAQEAAAAAAAAAAAAAAAUGAgQHAwH/xABHEQACAQMBBAMLCQUIAgMAAAAAAQIDBBEhBRIxQRNRkQYUNFJUYXFygbHRFSIyNZKh0uHwFlOiweIjJEJic4KTskTCo/Hy/9oADAMBAAIRAxEAPwD6pgA1G7lXTKgbYVTWsnYhno6SSqIjoduJSpTSnG0GoiWSVJM05lpyMj+sZ04OpNQjxbwYVakaMJVJcEm+w804r8bEZbaoUW/tI/ARU4gXDOcRzzZPsw6stEOgs8jcI/2zP9nIk+HZbGAfrBMRfzlIuC0+0VCTzOczGnJVWFe0FhUo1VSMHMICGn8hUiLiYdR5k+aSWeSVZ5kZnmeenIdjtnS/yvBjwG50hd7alZW1NUpUFNri+OXz1wzm13X2jd1nWhcuCfCK0wuWmU+HXxJP+sExF/OUi4LT7Q/WCYi/nKRcFp9orHbOl/leDHgNzpB2zpf5Xgx4Dc6Q982Pkq7PyNXd2l5bLt/qJP8ArBMRfzlIuC0+0UKymJ7FTeepnpZBTynZXJZUycdPJ1EypPueWwiczUtR7IiNZkStijMjVkZ5klKlJzC2pnNYCOdt7ROEmtJnAQ64tUok8iUuNdZQWazaQpZbMy0aM/HrMiOfXzuJMJthXt3HyGQSCj4WtZlNXp1LKal6YCDilwrxNNGpBGaj71CTPNR5mRH+6kidHa3GKdK3jFyeMvDxo3nGM8E8csn3pr213q1e6nKMVvYWVvaqON7LXGSzzSPfVqbkSG69HM1jTLkS7LXYmIhWH4hBIXEEy4ps3diRFsSUaTURZEeRlmRHoLcB57wG7minv9XMOVOD0IKRfUY291UpQ4RbS9jOj7MrzurKlXqcZRTfpayAABqm8AAAAAAAH4ZkRGZnkRDwpiMx8T6R1qulrJREtel8qNTUbM32CiERb+ekmdOXY05ZbL9488tBEavSuKC5E4tRZmc1lI5VKplEsuQ8KcLM2FvQzrbzqW1pWhKkmojSo9GeWvPwDzetqNkrMKzX9I4RaQm8RDtxS5PNJEpMXDIWWaSdSlZklRlpyIz8WkWDY1tSX94rw31qks81jLxrnGV5iq90N5Xb70tajg8Jt45NvCzlJZw/O8ekkf6wTEX85SLgtPtD9YJiL+cpFwWn2isds6X+V4MeA3OkHbOl/leDHgNzpCw5sfJV2fkVPd2l5bLt/qJP+sExF/OUi4LT7Q/WCYi/nKRcFp9orHbOl/leDHgNzpDpVLHziXUjNayou22FSuISQNe6JqxIKfN6JhGPjlNqcIzQWkzPxERnpyPL6nYtpd7R169Pej41tKKcu/JPGumXw8ylk71i8S+Ie46plWlaVNI5Bb2liJ6ezhUpTmrwGULDlp2by8yLQR7ElJMyM1ISv2ZQlXQVfUbJq1lsM9Dwk7g245hp7LsiG3CzSSssyzyMs8jPymPnJi/q+YRlI2nkUrgpdIZBNqShakdkcmhUwkAiOiTUpxaWk/WZ5ZmeWajzzUoz94YbPgAt99noL1RCD21a0428LqEFHebSS5JZ49bb7OC63Ze529rSu52VSbnuxTcpPi3jguSSfpby3ySpIAArJcgAAAAAAAAAAAAAAAnWG+oJzVmHi11U1HMXY+bTmi5JMI+LePNcREPQLK3HFZeNSlKM/rMUUSrCduWLN+b+nubmABVQAAAAAAAAAAAAAAAAAAAAAB+GeRGeoh+j+HTyaWepJgCe4cJ/Oarw82uqio5i7HzacUZJI+Pi3jzciIh2BZW44rLxqUpRn9ZiiiWYUyywu2eLVQNPc3MCpgAAAAAAAACbYk/gAuD9no31RikibYk/gAuD9no31RjZs/CafrL3mpf+CVfVl7mfOnGOpXdOkrWyPYNUjJkNpz0IT7nzyIvEWZmeX1iEC7Yx/hRlP2Tk3JyEJHV9m+B0/Qjhm2PD6vrMAADdI0reEx55jEbQa2XVtqOaEgzSoyM0qbWlRaPEZGZGXjIzFCxHIQ3h5ti22kkpTUVWklJFkREUyc0EJ1hR3RdBfzZH5VCjYkdz5bL7SVbzk4IK7+sqXs91Qs1j9T1/93/aietMBu5op7/VzDlTg9CDz3gN3NFPf6uYcqcHoQc+2r4dW9aXvOrbE+rbf1I+5AAAaBKAAAAAAABF8W6UrtASFpJSVVBJCMjLMjLtgyPnXixccdxGV4pxalmU1NJGo8zyJCSIvIRERf7D6K4tfghT9oZJzgyPnRiu3Rde/wA2X+VIvHcrw+3/AOhzXu44v/Z7qhJwABdTnIF3wbrWVzJ4wSz7HEUhOW3UZ964jsGexUXjLMiPI/GRCEC7YOPhRm32TnPJzGjtPwOp6GSWx/D6PrI7eK3/AC/ZPzaSn8FD6GYbPgAt99noL1RD554rf8v2T82kp/BQ+hmGz4ALffZ6C9UQqG3Pq2j60vey/dzX1xcepH3RKSAAKedAAAAAAAAAAAAAAAACVYTtyxZvzf09zcwKqJVhO3LFm/N/T3NzAAqoAAAAAAAAAAAAAAAAAAAAAA44g8od09SFfgOQcMYeUI+eptX4ACaYViywwWgLVQVP83sCoiX4Wiywx2iLVQcg5vYFQAAAAAAAAAE2xJ/ABcH7PRvqjHBF4crfRsU9GPVDdBLj7inVkzdOp2kEajzMkoRMCSgtOhKSIiLQREQnFy6Wt7TVM3HtxQ05reeVZEUTGxL8vmFYzqfE0yo0JbImYyKeSh1alEadgkl7Ej05KLZbVlFyuINLg036Mo0tozjC1qKT4pped4eh42xj/CjKfsnJuTkISPV7p0zdKm6eZvxYu8TFS07Lm5QU4paWEZzCGa0M9nREoyJZEZkaizMzLPPIySnpdyPDf9GOKHgWA6A6Ta3sbWjGjOLzHTTDXpWvM4/e7Nne3ErinJYlrrlNZ5NY5Hl0B6i7keG/6McUPAsB0A7keG/6McUPAsB0BsfKtLxZdi+Jq/Ilfx49r+BNcKO6LoL+bI/KoUbEjufLZfaSrecnBmKeh7c2fjirK0OH69E9q2GSspa9V0tSiEgHFINPZiRCpzdURKPvVaPGRpPSNni7YQdR4a7YVFe+bRNNSSmY2fTCfoiGTZmEU4/GrU1DMNKIj7I6ZGZHkREnNXgEXc3UZXVO5aaiml5292pwSy+aXpJm0spxsatmmnJpvOu6lvUuLaS5NvqRdcBu5op7/VzDlTg9CD5xzvGDZuaQsslMHaSu5PLZJDe4oCFp+5E1kTKWSUZka2oB1pC1nnma17JWn9oxWbIIt/d6Ut1NNpRdek5FGxqZXKoyNvVVLq5nGmZ5tMNFGEaiSSV7JeeRGkyLPYr2FU2ns28VWpdVKe7GTb4rm+GjLzsbbGz3RpWNKrvSjFLRSxosZ1Wi9J7DASra0263x3V42Kq6xDa0263x3V42Kq6xEGWUqoCVbWm3W+O6vGxVXWIbWm3W+O6vGxVXWIAqoCVbWm3W+O6vGxVXWIbWm3W+O6vGxVXWIAxuLX4IU/aGSc4Mj50Yrt0XXv8ANl/lSPYN+5NTMNaC4lD2bmNaVFPpFMZI5Hpiqkm1Quw8R7o2aUMnGPvqbUgkGpZN5Fnsdlmae9j9UQ1tLwzBFa3ZsLe6S1bFMNImq6UlbaoONfQgkG9sYlGaDMkpPItZ5moy2R3Xufk7Smqk0/8AEuWdVBp4fJo5z3Vwjf1nSpSWcRabzh4dSLWUmspvgzyMA9RdyPDf9GOKHgWA6AdyPDf9GOKHgWA6As3yrS8WXYviU75Er+PHtfwPLou2Dj4UZt9k5zycxtncjw3/AEY4oeBYDoDuNO0/aqSThFgrB3aiKjnsA9K1zurZYZrgId0iJwmGYdGwUoyLQpWRkess0nr3V7G6oyo04vMtNcJe3U2rLZs7K4hcVZLEXnTLbxySxxfZ1mpYrf8AL9k/NpKfwUPoZhs+AC332egvVEPLFzrfULJ6StPdK+DzjUjpqhJVLmqbTmiPm8ySjZHDGg8jbbQRpNxR5ZZ5aDMalUmMa1NUTEplGWxuNL1IZbh24aR3UnMng2220klCUQsE80wjIiL9lBGfjzFfvqNfadpTo2sHLdcsvRLi9Fnj7C07NuLbY1/VuL6oob8YpLDbxhavCePNnV8eHH6OgPLFm6VoK58klc6qCEurSJ1GTjkhg4q89UvxUxh207JyIJso1OwaIjTkoz77MjyIlINdS2tNut8d1eNiqusRUa1GdCbp1Fhr9ci/W9xTuqaq0nlP0r7nrw19GpVQEq2tNut8d1eNiqusQ2tNut8d1eNiqusR5HsVUBKtrTbrfHdXjYqrrENrTbrfHdXjYqrrEAVUBKtrTbrfHdXjYqrrENrTbrfHdXjYqrrEAVUBKtrTbrfHdXjYqrrENrTbrfHdXjYqrrEAVUSrCduWLN+b+nubmA2tNut8d1eNiqusRNMMmHyg51httROYyf3KbiI+h5FEuohLm1JCsJWuAZUom2WY9LTSMzPJDaUoSWRJIiIiAHqABKtrTbrfHdXjYqrrENrTbrfHdXjYqrrEAVUBKtrTbrfHdXjYqrrENrTbrfHdXjYqrrEAVUBKtrTbrfHdXjYqrrENrTbrfHdXjYqrrEAVUBKtrTbrfHdXjYqrrENrTbrfHdXjYqrrEAVUBKtrTbrfHdXjYqrrENrTbrfHdXjYqrrEAVUBKtrTbrfHdXjYqrrENrTbrfHdXjYqrrEAVUdeYHlARJ6mV/lMTLa0263x3V42Kq6xHXmOGy3bcviXCqO6maWVmWd16pMv2T8RzDSAO/hdLLDPaQtVCyDm9kU4eZ8OuHmgpvh9tjNYuf3LbfjaNksQ6iFudUsMyla4JlRk2y1HpbaRmehCEpSksiSREREKHtabdb47q8bFVdYgCqgJVtabdb47q8bFVdYhtabdb47q8bFVdYgCqgJVtabdb47q8bFVdYinwkM3BQrMGyp1TbDaWkG88t1ZkksiNS1malno0qUZmZ6TMzAE9vpXFf0dRzxWtoWYVLU0aRtQaWWNkxCZlpedUeRHsfEgjzUeWeRZmPnnLbS405NU8wrSUU5W8FPZqazjo+HiOxvRGzUSlEtSVaSzIjy8GgtRDb8dlf13Tt/ouW0/Ws+lkImVwayh4OZPMtko0nmexQoizMeeu65db6Tqs4aiemOhbF2bVoWinT3HvpN5Tb9HHgco7o9r0Lm+lTq766NtLdkks9fDOWXbtL+kK+OuT9/V0w7S/pCvjrk/f1dMQnuuXW+k6rOGonph3XLrfSdVnDUT0xJ95V/FpfZfxIX5RtvHrfbXwLt2l/SFfHXJ+/q6Ydpf0hXx1yfv6umIT3XLrfSdVnDUT0xywt0ruxsUzBQtyqsW9EOJabT27iC2SlHkRZmvItJh3lWX+Gl9l/E+raNu9FOt9tfAuPaX9IV8dcn7+rpjXawtFjRuCzDw1b03W88ZhFGthuOiDeQ2oyyNSUqXkR5aMx3+41jq+TV/6Qn/AFw7jWOr5NX/AKQn/XGtCrCm96FSin+v8xuToTqx3J0rhrqb/pOvbzCrOZLExlbYi4CLo+h6ebKKjTfUlMRMV595CsER57JZlkZlp05FpMjLN0Demb3kxW28dbgUSempNMUQcgkUNkmHl8KlsyIiSnJOzMklslZeIiLJKSIuvPJlV0dgzqCFracTGYTSW3MTAuqjoxUSto24IiU2S1KVoJWy8B5ZmZl4R6JwQ4XitzJmrq11LtjVE2Y/9BCvI76WQqy8Jkf7LzhHp8aU97oM1kNW9u40qFWvdtOesIpcNVq126vq0Xn3dnWE61zRtbGLjD5tSbfHR6JtY4Y0XXq+GnrMAAc9OrgAAABEsTdb3ik1LqpmyNDTiaz2ZoUh2aQ7P+FLmjLI1IUoyJTp597lmSdJnpyI7aPlLieuXcaUX+reWyqv6kgoSHmikMw8PNX22207FOhKUqIiL6iE1sKxd9c8vmrOHnD7Cud0+01s2zzr897uYtJrTOmUzkpS0WNKhXY16jqcrmTrmSycjDg4k2/dCyMzJS8l98ZbJWk9Ok9Y2LtL+kK+OuT9/V0xCe65db6Tqs4aiemHdcut9J1WcNRPTF9laXM3vSVNv1X8Tl8L60px3YSqpeaa+Bdu0v6Qr465P39XTDtL+kK+OuT9/V0xCe65db6Tqs4aiemHdcut9J1WcNRPTGPeVfxaX2X8TL5RtvHrfbXwLt2l/SFfHXJ+/q6Ydpf0hXx1yfv6umI3TldXwq2eQVNU7X9XRszmLxMQsOmePpU64fgSRqcIsz+sxUe41jq+TV/6Qn/XHhVp9A8VXRi/Ose9mzQq98reoq4kl1Sz7omHq+x+MGv4tiPrej6ynkRDNm0y5HvdmNpBnmaU7JZ5EZ6dAzlvrAQVpJfFXgxNyRyAlMmdJEppp9SPdE9jstkls05n/gloNWZZGWefekZK4HrQY5IZlyIiGq8baaSa1rVURklKSLMzM+z6CIhy3bjKiq/C9Y92Ni5jOpvMJnPWErecXERD6ziyQhBGZmpR/spIvIRD461SooUYVIbknh7nFLDfW8Zxj3GUbejSdS5nSqb8Y7y6Tg3vRjwwm8byeOGmHobphSupVl48XhVlVcTsnXZTHNw0K2Z9ggocklsGWk/upTn5TMzM8zMzH0REAwj4a4OxVH9tZ7DtO1lO2kqmL2hXuRvwphWzLxEeRrMv2laySkX8UnbdzQubr+7r5kUor2dXmOj9zdnc2ll/e3mpNuT69ccfP/8AQAAEQT4AAAAAAAAAAAEqwnblizfm/p7m5gVUSrCduWLN+b+nubmABVQAAAAAAAAAAAAAAAAAAAAAB1JueUqjT1Q7n5THbHSnR5SaPPVDO/kMAaDhkLLDbagtVDyLkDIpYm2GgssONqi1UTIuQMikgAAAAAAAA8bYocGlzb23Zfrql5/TEHLnYKGhuxx8TEIeJTZGSj2KGVpy06O+/wDgedJxaHCzT82jJFMsSk0XFy99cLEKh6Ueca7IgzSrYLSsyUWZHkZGZH4jMfQjENNavhLazCT2+mcogainKDg4V+YzFuDSw0osnXkKWZZrSk8iy0kpaVeIfOracXS3w0L6TQ3tF42Jezq26VxX3Ix0ilu5eObyn+snNe6TZ1OjdOVrbdJKXzpN72FnksNe32H73OMJn8SM99D3+kHc4wmfxIz30Pf6Q/NpxdLfDQvpNDe0NpxdLfDQvpNDe0TXT0PK3/B+Erve115DHsqfjP3ucYTP4kZ76Hv9If01b3Cgw6h5nErP23G1EpC00g+SkqLSRkZL0GP42nF0t8NC+k0N7Q2nF0t8NC+k0N7Q6eh5W/4Pwjva68hj2VPxmT97+HH+LGr/AEai/wCoN7tphoou9UNN+5ZiOqiYvypojWuLkkRDQ6XVkrsaFLU54zSeexIzIiM8vAJknBtdNaiQif0MpSjyIiqWHMzP/wCR78sNY6ItBIJHTMPG9hhJRDriJh2E9M2mr6SJ15Z/FNI/w206DPSai7xJqi9qX9O0o5t67lN8PoNe3EfZ9/Im9i7Lq31fdurVRguOs09erM/b7McWjVcPOFqNoO3yqSu89KZ5EM1b76YcoJ915hbqYdDbZu9lbQajJZKXllkZkkzM9JD0cACk3N1Vu6jqVXq+w6NZ2VGwpKlRWi08/tYAAGubYAAAAeFbyYFriXAu9Udw36ypSVU3NJgca869EPnEw0KRFs1mjsRNmokko8jcItai8I91CD4vG65qW3yrc2+m8hgIqensZo7MZs1BrTAl4UIJZkZ9kUWxMy0bFKy/eErsi6rW1wlRko72jb5LrITb9lb3do5XEHLc1SWjb4Jfr0nhhdtsJiFqSWJOdq2JmWZUe/kf1l3w/O5xhM/iRnvoe/0h+bTi6W+GhfSaG9obTi6W+GhfSaG9ovvT0PK3/B+E5d3tc+Qx7Kn4z97nGEz+JGe+h7/SDucYTP4kZ76Hv9Ifm04ulvhoX0mhvaG04ulvhoX0mhvaHT0PK3/B+Ed7XXkMeyp+M5YagsKsG+mJg8TNQsPIz2LjdIxCVFmWR5GS8y0GY73vfw4/xY1f6NRf9QYzacXS3w0L6TQ3tHaleCq6kzmULLkVDRJHEvIazbqBh1RZmRGZISeyUZeHItJjGVa24u6f8H4TKNC84Rsl/wDJ+MpdF4TIC79GzGprO4gp7M1Qr3uZhc1lkTAwzr5bE1JNZrUvIkq0qShWRmRax6hsTh6ZoCgaElFfNy6Z1BQ65m5Buwji3IVtyLiFL7InZoSo1kjJJGZFkZqyz0GW1Wqtmi3EFDySWvuQ8jk0CiVSuAIy7/JWzfjXjL9p55zTkWhKSLwGtSSoIpG0NrV7jNKM8wzlaJPg1q0lybydI2VsK2tEq8qeKmMNZbXFPKTb5pY15ZAAAhixAAAAAAAAAAAAAAABKsJ25Ys35v6e5uYFVEqwnblizfm/p7m5gAVUAAAAAAAAAAAAAAAAAAAAAAdCfHlI5ieqEe/IY74x9QnlIJmeqDe/IYA0jDWWWHS1haqKkfIWRRxOcN5ZYd7XFqouSchZFGAAAAAAAAB0JpIJFPOxdupLATDsGy7F7qhkO7DPLPY7IjyzyLPLUQ6HvBoXeXIeDmeiM8AzVScVhMwdKEnlpdhgfeDQu8uQ8HM9EPeDQu8uQ8HM9EZ4B96WfjPtMehp+KuwwPvBoXeXIeDmeiNFsLAU9cGxluq+qOjqcXNqlpOUTiPUzKmUIVEREG064aU7HvS2S1ZF4iFYEqwnblizfm/p7m5gOln4z7R0NPxV2G8JoOh0KJaKMkSVJPMjKXMkZH//ACM6ADGUpS+k8mcYRh9FYAAAxMgAAAAAAADGTOmKbnT6YqcU9LI95CCbS5EwjbqiSRmZJI1EZ5ZmZ5fWYyYD6pOLyj5KKksSWTA+8Ghd5ch4OZ6Ie8Ghd5ch4OZ6IzwDPpZ+M+08+hp+KuwwPvBoXeXIeDmeiJ1iQkNPUnh4ujVNOU3J4CbSai53MICLZlzJLh4hmBeW24nNPhSpKTL6yFjEqxY7li8nm/qHm58Oln4z7R0NPxV2G7+8Ghd5ch4OZ6I5Yai6OgohuLg6TkzD7KiW261ANJWhReAyMk5kf1jMgPnSTfNn1Uaa/wAK7AAAMD0AAAAAAAAAAAAAAAAAAAJVhO3LFm/N/T3NzAqolWE7csWb839Pc3MACqgAAAAAAAAAAAAAAAAAAAAADG1KeVOTU9UE/wCrMZIYuqDypmbnqgIj1agBp+HMssPdsC1UZJOQsiiCe4diyw/WyLVR0l5E0KEAAAAAAAAAAAAAAAACVYTtyxZvzf09zcwKqJVhO3LFm/N/T3NzAAqoAAAAAAAAAAAAAAAAAAAAAAlWLHcsXk839Q83PiqiVYsdyxeTzf1Dzc+AKqAAAAAAAAAAAAAAAAAAAAAAAAAAlWE7csWb839Pc3MCqiVYTtyxZvzf09zcwAKqAAAAAAAAAAAAAAAAAAAAAAMVVh5UtOT1S+I9WoZUYirzypKdnql0T6pQA1bD0WVgbaFqo+TciaFAGgYfSysLbYtVISbkTQ38AAAAAAAAAAAAAAAAEqwnblizfm/p7m5gVUSrCduWLN+b+nubmABVQAAAAAAAAAAAAAAAAAAAAABKsWO5YvJ5v6h5ufFVEtxVOKawv3gdQSDUigqgURLQS05lLn/CkyMjL6jLIwBUgH4k80kesh+gAAAAAAAAAAAAAAAAAPwzIiMzPIiAH6A8J4jMfE+kdarpayURLXpfKjU1GzN9gohEW/npJnTl2NOWWy/ePPLQRGqUfrBMRfzlIuC0+0WCh3M31emqiSWeTevuKpc92WzLarKk3KWNMpZXseT6hiVYTtyxZvzf09zcwPCP6wTEX85SLgtPtHFCY+cQEBCswEBE05DQ0M2llllmTtoQ2hJZJSlJHkREREREWgiIe37KX/XHtfwPD9udmdU+xfE+pAD5efrBMRfzlIuC0+0VmxeJfEPcdUyrStKmkcgt7SxE9PZwqUpzV4DKFhy07N5eZFoI9iSkmZGakJX41+5q8t4OpUccLzvsWnF8j3tu7CwuqipUoybfmXtbedEuLfI91AMDQlXQVfUbJq1lsM9Dwk7g245hp7LsiG3CzSSssyzyMs8jPymM8IGUXCTjLii0wnGpFTi8p6oAADEyAAAAAAAAAAAAw1ZnlR89PVLYr1ShmRha2PKjJ+eqVxXqlADXLAllYi3BaqRk/I2hvo0SwhZWLt0Wqk5RyNob2AAAAAAAAAAAAAAAACVYTtyxZvzf09zcwKqJVhO3LFm/N/T3NzAAqoAAAAAAAAAAAAAAAAAAAAAAlmKss8L14S10DUHNz4qYl2Kcs8MV3i10HUHN74ApzJ5soPWkvwH9jihDzhWT1tp/AcoAAAAAAAAAAAAAAAAJRiguROLUWZnNZSOVSqZRLLkPCnCzNhb0M6286ltaVoSpJqI0qPRnlrz8Aq4i+LdKV2gJC0kpKqgkhGRlmRl2wZG3YRjO6pxmsreWV7TQ2pOcLKrKm8NReH1PBAFtRslZhWa/pHCLSE3iIduKXJ5pIlJi4ZCyzSTqUrMkqMtORGfi0jj7Z0v8rwY8BudIebsWLjjuIyvFOLUsymppI1HmeRISRF5CIiL/AGElHQbfZXT0o1XPG8k8Jdepym6233tXnQVPKi2st6vDxl4SR7r7Z0v8rwY8BudIO2dL/K8GPAbnSHhQB7fIq/ePsR4ftE/3S7We26lmkzl1LzWq6MtxhTrhiRMe65pDSGnzdiYWGzIjfNtThZtl+8ZHoLTry0HF/V8wjKRtPIpXBS6QyCbUlC1I7I5NCphIBEdEmpTi0tJ+szyzM8s1HnmpRnrGDkzO5s7ZMzNt6kZyhxPiWn3OZ5GXjLMi0fUO3it/y/ZPzaSn8FDWpW8aF/Ci9ca59MX7NMcfOble6lc7LqV183e0x6JR58cPKyn1H0Mw2fABb77PQXqiFJE2w2fABb77PQXqiFJHPrzwip6z951XZ/glL1Y+5AAAa5tgAAAAAAAAAAAYOujyomoT1SqL9SoZwYGvTyoWoz1SmM9SoAYOxBZWPt4WqlJRyNob0NHsWWVkrfFqpWU8kaG8AAAAAAAAAAAAAAAAAlWE7csWb839Pc3MCqiVYTtyxZvzf09zcwAKqAAAAAAAAAAAAAAAAAAAAAAJjiiLPDNdwtdCT/m94U4TPE8WeGq7Ja6Gn3IHgBRIA84GHPW0j8CHYHVlh5y2EPWw3+Uh2gAAAAAAAAAAAAAAAARjFr8EKftDJOcGRZxGMWvwQp+0Mk5wZG5s/wALp+sveR+1fAa3qv3HzoxXbouvf5sv8qRJxWMV26Lr3+bL/KkScdXsfBaXqx9yOGbT8NrevL3sAADaNIu2Dj4UZt9k5zycx28Vv+X7J+bSU/godTBx8KM2+yc55OY7eK3/AC/ZPzaSn8FCCn9ar0L3SLNT+o5el/8AaB9DMNnwAW++z0F6ohSRNsNnwAW++z0F6ohSRze88Iqes/edf2f4JS9WPuQAAGubYAAAAAAAAAAAGv3BPKgqlPVKIz1KxsA164h5W/qc9UmjfULAGKseWVlaALVS8q5I2N2Gl2SLKzNBFqpiV8kbG6AAAAAAAAAmk2w4WYnk1jZ3NKON6NmEQ5FRLvbGLRs3XFGpaskukRZmZnkREWodXauWL3kr4Wjf6wqoACVbVyxm8x4vJOI7+sG1dsdvOiC8k6j/AOsKqAAlW1dsfvRi+HJh/XE0wyYcrPzzDbaedzOmYx2MmFDyKKiHEzqPbJbrkAypRklLxJTmZnoIiIvERD1AJVhO3LFm/N/T3NzAAbV6yW9aPLyVBMv64bV6ye9mZekUy/uBVQAEq2r9lfFTk0LyVJM/7gNq/Zbe9Ny8lTTT+4FVAASrawWY+YZz/tVE1/uQ2sFmfmSeelU2/uRVQAEq2sFmvmafF5Ksm/8AchtYbOfNNQel03/uhVQAEq2sNnfmyoy8lYTj+6Daw2f+bqlLyVlOf7oVUABKtrFaD5DVHppOv7sNrFaH5JVReStp3/diqgAJVtY7R/JqtLyVxPP7sT7ENhztdKLA3MmsCzVRRMFR85iGey1nOXkbNEE6pOybXFGhZZkWaVEaTLQZGWgelhN8SpZ4c7qFromecgeAGIlWGe07srg3FIrHNcO2o8q7npFpSXiKMHa2slp9VaF5K+n394KPIzzkkvPXCtfkId4ASrayWo//ACrcvJcCf/3obWS1Xxtc/wC1wqg/vRVQAEq2stq/E/XZeS4lQ/3obWW1vyqvi8lxqi/vhVQAEq2s1rvltwOMio/74NrNa/5fcMvJcqo/74VUABKtrNbH5yuKXkuZUn9+G1ntl863I4zql/vxVQAHDBQjMBBsQMObptQzSWkG66p1exSREWyWszUo8i0qUZmfhMzMecMWdXM11aWuaNt17snE/pWPk6opEsaU8tmIVEkskJ2BGZrQTWyVl+zmRHpIyLaMTdb3ik1LqpmyNDTiaz2ZoUh2aQ7P+FLmjLI1IUoyJTp597lmSdJnpyI/C1KWixpUK7GvUdTlcydcyWTkYcHEm37oWRmZKXkvvjLZK0np0nrFj2Ns6EkrqpUjFppxTa1w1nPm5Lt9NR7oNrTg3Y0qU5RkmpSjFvGU0scm84b7OPDeanh7a3imCK1u1YS9skq2JYaRNXKUlbaoONfQgkG9sYlGbZmSSPYlrPM1H3x4juR4b/oxxQ8CwHQDtL+kK+OuT9/V0w7S/pCvjrk/f1dMWOOYLdhXikuC6R6fcVCTVSTnUtpyk+LdJZb63h8R3I8N/wBGOKHgWA6AdyPDf9GOKHgWA6Adpf0hXx1yfv6umHaX9IV8dcn7+rpjLen5RH/k/Ix3afks/wDi/M7jTtP2qkk4RYKwd2oio57APStc7q2WGa4CHdIicJhmHRsFKMi0KVkZHrLNJ7xc631CyekrT3Svg841I6aoSVS5qm05oj5vMko2RwxoPI220EaTcUeWWeWgzE77S/pCvjrk/f1dMapV9j8YNfxbEfW9H1lPIiGbNplyPe7MbSDPM0p2SzyIz06BgqUZVIylXiuOWp5k9MYy+Hs4ctdTN1pwpShC2nLRYi4YimnnLS469fHRPTQv0L+kvpmChmoODsxFMQ7CEtNNNTZtCG0JLJKUpJnIiIiIiIvAL9b25sNfeiYZqtqSjKQhavbcOTQiZ681MJhDNES3IhtcOTTrDZd5sVksjVmR6CUg1+H7fWAgrSS+KvBibkjkBKZM6SJTTT6ke6J7HZbJLZpzP/BLQasyyMs8+9IyVuWFK6lWXjxeFWVVxOyddlMc3DQrZn2CChySWwZaT+6lOflMzMzzMzMR1/sqynRqTs46QTbllvL6lrh+d8uHHhL7L25tKnXpU7+fzqjSUN1JpN43paZX+Vc+PDj682s1rfHFV8fluNUR/wDODay2q8btdH5bhVAf/NFVAUs6KSrayWo8Z1sflr+fn/zQ2sdpfG3WJ+Wu56f/ADBVQAEq2sdo/HD1aflrieH/AMsNrFaHxwVUn5a0nR/8sVUABKtrFZ7xy6pT8tYzk/8AlBtYbOeOU1Aflq6bn/yhVQAEq2sFmfHJJ4flqqbH/wAkYCv8NFnIOhKki2JDNydYlEY4g1VLM1ESksrMtBxBkfg8B6BdBrVzDytxVZ6pJHeoWAJHaPDVZ2YWpouPjKemS34mnpc86oqgmSSNaoZszMkk+RFpPwEREQ2zavWS8dLzA/LUEyP/AM42SzRZWfoYtVNSzkrY3EASravWQ8dJRZ+WeTA//OG1dsb46NfPyzmPP/zCqgAJVtXLF+OiVn5ZtGn/AOYb/S1LSKi5FC0zTMD7jlsHs+wMdlW5sNmtS1d8szUealKPSfjGWAAAAAAAAAASrCduWLN+b+nubmBVRKsJ25Ys35v6e5uYAFVAAAAAAAAAAAAAAAAAAAAAAE5xIlnh3ukWui53yF4UYTvEYWeHu55a6MnXIXgBulPHnIJaeuDZ/IQyAxtNHnTkqPXBMerIZIAAAAAAAAAAAAAAAB8pcT1y7jSi/wBW8tlVf1JBQkPNFIZh4eavtttp2KdCUpUREX1EJf3XLrfSdVnDUT0x7AvJgWuJcC71R3DfrKlJVTc0mBxrzr0Q+cTDQpEWzWaOxE2aiSSjyNwi1qLwiFLtthMQtSSxJztWxMyzKj38j+su+HT7G9sp0IRgt5qKziLlh454TOL7S2dtGndVJ1HuJyljemo5WeWWiad1y630nVZw1E9MO65db6Tqs4aiemKV3OMJn8SM99D3+kHc4wmfxIz30Pf6Q3O+Lb93L/jl+E0O9Lz99H/lh+Imvdcut9J1WcNRPTGSpyur4VbPIKmqdr+ro2ZzF4mIWHTPH0qdcPwJI1OEWZ/WY3jucYTP4kZ76Hv9IckNQWFWDfTEweJmoWHkZ7FxukYhKizLI8jJeZaDMYyuLfD3abz/AKcvgfY2l1vLeqxx/qw/EZXuNY6vk1f+kJ/1x/D1oMckMy5ERDVeNtNJNa1qqIySlJFmZmfZ9BEQ4/e/hx/ixq/0ai/6goVF4TIC79GzGprO4gp7M1Qr3uZhc1lkTAwzr5bE1JNZrUvIkq0qShWRmRaxH1LvoVvVd2K63Sml2tkrRsO+JblDelLjhV6bfYkaNduMqKr8L1j3Y2LmM6m8wmc9YSt5xcREPrOLJCEEZmalH+yki8hEPY2EfDXB2Ko/trPYdp2sp20lUxe0K9yN+FMK2ZeIjyNZl+0rWSUjKWJw9M0BQNCSivm5dM6godczcg3YRxbkK25FxCl9kTs0JUayRkkjMiyM1ZZ6DK1irbT2t0lN2dD6G9Jt9eZNr2Y/WhdtjbB6GtG/ulmpuQST5YhFNvz5TXo9IAAFfLWAAAAAAAAAAABrNzzytrVp6pFH8nWNmGr3TPK2NXnqkMw5OsAcFnSytHRBaqclvJWxt41G0JZWmootVOy3kzY24AAAAAAAAAAAAAAAAEqwnblizfm/p7m5gVUSrCduWLN+b+nubmABVQAAAAAAAAAAAAAAAAAAAAABPcRBZ4f7mlro6dcidFCGgYgyzsHcotdITnkToA2ulTzpiUHrgIf1aRlBiaRPOlJKeuXQ3q0jLAAAAAAAAAAAAAAAAIPi8brmpbfKtzb6byGAip6exmjsxmzUGtMCXhQglmRn2RRbEzLRsUrL94eFtpxdLfDQvpNDe0fU6Z0xTc6fTFTinpZHvIQTaXImEbdUSSMzJJGojPLMzPL6zHU94NC7y5Dwcz0RPbP25PZ1HoqSXW9PzKvtXuap7WuOnrSfDC14LsPl5tOLpb4aF9Job2htOLpb4aF9Job2j6h+8Ghd5ch4OZ6Ie8Ghd5ch4OZ6I3/2ruOpdn5kZ+w1p1vt/I+Xm04ulvhoX0mhvaG04ulvhoX0mhvaPqH7waF3lyHg5nojRbCwFPXBsZbqvqjo6nFzapaTlE4j1MyplCFRERBtOuGlOx70tktWReIg/au46l2fmP2GtOt9v5HgCV4KrqTOZQsuRUNEkcS8hrNuoGHVFmZEZkhJ7JRl4ci0mPotaq2aLcQUPJJa+5DyOTQKJVK4AjLv8lbN+NeMv2nnnNORaEpIvAa1JLaIai6OgohuLg6TkzD7KiW261ANJWhReAyMk5kf1jMiL2ltqvtGKhPgvN+v1kmtj9zttsmTqU/pPz/kv0l1AAAQxYQAAAAAAAAAAAAAAA1W6x5WurE9UgmHJ1jahql2jytXWZ6qfmPJnAB+WkLK1NGFqp6XcmbG2DVbUFla2ji1SCX8mQNqAAAAAAAAAAAAAAAABKsJ25Ys35v6e5uYFVEqwnblizfm/p7m5gAVUAAAAAAAAAAAAAAAAAAAAAAaFf8ALOxFyC10jOORujfRol+izsZcUtdJzfkboA2KjTzpCRnrlsL6pIzIwlEHnRcgPXK4X1SRmwAAAAAAAAAAAAAAAAAAAAAAAEqwnblizfm/p7m5gVUSrCduWLN+b+nubmABVQAAAAAAAAAAAAAAAAAAAAABqV3TytPWp6qdmXJnBto1C8J5Wkrc9VOTLkzgA5rVllbCkC1SGX8nQNpGsWvLK2dJFqkUBydA2cAAAAAAAAAAAAAAAAEqwnblizfm/p7m5gVUSrCduWLN+b+nubmABVQAAAAAAAAAAAAAAAAAAAAABo19izshcMtdKTbkbo3kaRfIs7KXALXS015I6AM1Qh50PTx65VCepSM6MBb886Dps9cog/UoGfAAAAAAAAAAAAAAAAAAAAAAAASrCduWLN+b+nubmBVRKsJ25Ys35v6e5uYAFVAAAAAAAAAAAAAAAAAAAAAAGn3kPK0NcnqpuZ8lcG4DTb0HlZ2uz1U1NOSuADu2yLK29KFqkcD6hA2Ua5bYsrdUsWqSwPqEDYwAAAAAAAAAAAAAAAASrCduWLN+b+nubmBVRKsJ25Ys35v6e5uYAFVAAAAAAAAAAAAAAAAAAAAAAGlXtLOzFfFrpia8kcG6jTL0lnZyuy10zNOSuADJW7PO39Mnrk0F6hA2Ea5bc87d0seuSwPqEDYwAAAAAAAAAAAAAAAAfhmREZmeREP0SjFBcicWoszOaykcqlUyiWXIeFOFmbC3oZ1t51La0rQlSTURpUejPLXn4B60KMrirGlDjJpdp4XNxC1ozr1OEU2/YeasRmPifSOtV0tZKIlr0vlRqajZm+wUQiLfz0kzpy7GnLLZfvHnloIjVKP1gmIv5ykXBafaK4tqNkrMKzX9I4RaQm8RDtxS5PNJEpMXDIWWaSdSlZklRlpyIz8WkcfbOl/leDHgNzpC70IWNKmod7qWOfHPnzg5vc1Np16sqnfThn/CtMebG9p7desk/wCsExF/OUi4LT7RxQmPnEBAQrMBARNOQ0NDNpZZZZk7aENoSWSUpSR5ERERERFoIiFd7Z0v8rwY8BudIO2dL/K8GPAbnSHrmx8lXZ+R4bu0vLZdv9RJ/wBYJiL+cpFwWn2is2LxL4h7jqmVaVpU0jkFvaWInp7OFSlOavAZQsOWnZvLzItBHsSUkzIzUhK8dUs0mcupea1XRluMKdcMSJj3XNIaQ0+bsTCw2ZEb5tqcLNsv3jI9BadeWg4v6vmEZSNp5FK4KXSGQTakoWpHZHJoVMJAIjok1KcWlpP1meWZnlmo881KM3QWt240aVCMXJ4zo2sLL0xxxwzpz1HfV7YqVxWuZzUUnu6pSy8LXPDPHGvLTivo3QlXQVfUbJq1lsM9Dwk7g245hp7LsiG3CzSSssyzyMs8jPymM8Jths+AC332egvVEKSKJcQVOtOEeCbX3nTrSpKtb06kuLSb9qAAA8TYAAAAAAAAAAAA0u9Z5War09VMTTkrg3QaTe88rL1+eql5ryRwAZS3JZW9pgtUmgvUIGxDX7ellQNNFqk8H6lA2AAAAAAAAAAAAAAAAAEqwnblizfm/p7m5gVUSrCduWLN+b+nubmABVQAAAAAAAAAAAAAAAAAAAAABp95CztDXJa6bmfJXBuA1G8BZ2lrYtdOTLkzgA7NsjztvSh65HAcnQNlGsWuPO2VInrkUBydA2cAAAAAAAAAAAAAAAAEXxbpSu0BIWklJVUEkIyMsyMu2DItAjGLX4IU/aGSc4Mjc2f4XT9Ze8j9q+A1vVfuPnVixccdxGV4pxalmU1NJGo8zyJCSIvIRERf7CSisYrt0XXv82X+VIk46vYeC0vVj7kcM2n4bW9eXvYAAG0aRdsHJmdzZ2yZmbb1IzlDifEtPuczyMvGWZFo+odvFb/l+yfm0lP4KHUwcfCjNvsnOeTmO3it/wAv2T82kp/BQgp/Wq9C90izU/qOXpf/AGgfQzDZ8AFvvs9BeqIUkTbDZ8AFvvs9BeqIUkc3vPCKnrP3nX9n+CUvVj7kAABrm2AAAAAAAAAAABpF8jysncE9VLTbkjo3caNfY8rIXDPVSk25G6AM3QJZUJThapRB+pSM8MFQhZUPTxapVCepSM6AAAAAAAAAAnVQWFoepZzFz6Yz24rMTGudlcRL7kVFAQ6T1Nw8PHIaaLR+yhCS+oY/a0263x3V42Kq6xAFVASra0263x3V42Kq6xDa0263x3V42Kq6xAFVEqwnblizfm/p7m5gNrTbrfHdXjYqrrETTDJh8oOdYbbUTmMn9ym4iPoeRRLqIS5tSQrCVrgGVKJtlmPS00jMzyQ2lKElkSSIiIgB6gASra0263x3V42Kq6xDa0263x3V42Kq6xAFVASra0263x3V42Kq6xDa0263x3V42Kq6xAFVASra0263x3V42Kq6xDa0263x3V42Kq6xAFVASra0263x3V42Kq6xDa0263x3V42Kq6xAFVASra0263x3V42Kq6xDa0263x3V42Kq6xAFVASra0263x3V42Kq6xDa0263x3V42Kq6xAFVGp3bLO1NaFrp6Y8mcGrbWm3W+O6vGxVXWI1q5mHG30Hbiq4tmoboKcYkkc4hL106ndQZkwsyJSFzA0rLRpSojIy0GRkAKhak87XUeeuQS/k6BtQglsMOdvo62tJRz1Q3QS5ESOAdWTN06naQRqh0GZJQiYElBadCUkREWgiIhs21pt1vjurxsVV1iAKqAlW1pt1vjurxsVV1iG1pt1vjurxsVV1iAKqAlW1pt1vjurxsVV1iG1pt1vjurxsVV1iAKqAlW1pt1vjurxsVV1iG1pt1vjurxsVV1iAKqAlW1pt1vjurxsVV1iG1pt1vjurxsVV1iAKqIxi1+CFP2hknODIyW1pt1vjurxsVV1iIvfuTUzDWguJQ9m5jWlRT6RTGSOR6YqpJtULsPEe6NmlDJxj76m1IJBqWTeRZ7HZZmnvd/ZkHO7ptcFJZfVqlqRm2akYWNVPi4ywub0bwvYjx9iu3Rde/zZf5UiTj1zU8PbW8UwRWt2rCXtklWxLDSJq5SkrbVBxr6EEg3tjEozbMySR7EtZ5mo++PEdyPDf9GOKHgWA6A6LbbQhQowpTi8xST4PgsccnI7zZVS5uJ1qc47sm2s5Tw3nVNaM8ugPUXcjw3/Rjih4FgOgHcjw3/Rjih4FgOgPf5VpeLLsXxNf5Er+PHtfwNTwcfCjNvsnOeTmO3it/y/ZPzaSn8FDbWnaftVJJwiwVg7tRFRz2Aela53VssM1wEO6RE4TDMOjYKUZFoUrIyPWWaT3i51vqFk9JWnulfB5xqR01QkqlzVNpzRHzeZJRsjhjQeRttoI0m4o8ss8tBmIud1FXsblp4eiWmW0nyT555+l6EzTspPZ07RSWVq3qopOUebS4JZeM8ksvQ9T4bPgAt99noL1RCkj5xVJjGtTVExKZRlsbjS9SGW4duGkd1JzJ4NtttJJQlELBPNMIyIi/ZQRn48xdrN0rQVz5JK51UEJdWkTqMnHJDBxV56pfipjDtp2TkQTZRqdg0RGnJRn32ZHkRKQa6df7MvKMpV61PdTb5p+fkzoOy9s7PuIwtbervSikuElwwuawsvhrx0PU4CVbWm3W+O6vGxVXWIbWm3W+O6vGxVXWIiSdKqAlW1pt1vjurxsVV1iG1pt1vjurxsVV1iAKqAlW1pt1vjurxsVV1iG1pt1vjurxsVV1iAKqAlW1pt1vjurxsVV1iG1pt1vjurxsVV1iAKqNEvyeVjbinqpOb8jdGF2tNut8d1eNiqusRpV7cO9ASyzFfTKHqC5y3YSmJq+2mIujUz7RqTCOKIltOR6kOJzLSlSTSZZkZGRmQAt9EFlRcgLVK4X1SRmxFKSw3W9fpSSvOVFdIlOS+GUokXVqhCSM20noSmYESS+oiIi8Qy21pt1vjurxsVV1iAKqAlW1pt1vjurxsVV1iG1pt1vjurxsVV1iAKqAlW1pt1vjurxsVV1iKLIJHBU1JoSQy5+YPQ0E2TTa5hMYiPiFFrciIha3XT/9y1qP6wBkAAAAAAAASrCduWLN+b+nubmBVRKsJ25Ys35v6e5uYAFVAAAAAAAAAAAAAAAAAAAAAAGr3SLO2NXlrkMw5OsbQNZucWdtqsLXI4/k6wB17Qnnaaij107LeTNjbhp9nDztFQ566blnJWxuAAAAAAAAAAAAAAAACJYm63vFJqXVTNkaGnE1nszQpDs0h2f8KXNGWRqQpRkSnTz73LMk6TPTkR+FqUtFjSoV2Neo6nK5k65ksnIw4OJNv3QsjMyUvJffGWyVpPTpPWOPE9cu40ov9W8tlVf1JBQkPNFIZh4eavtttp2KdCUpUREX1EJf3XLrfSdVnDUT0x0fZWza1tapU9xqSTeU23z115HIdt7YoXl7KVXpE4NxW7JJLGjxpnXmXbtL+kK+OuT9/V0w7S/pCvjrk/f1dMQnuuXW+k6rOGonph3XLrfSdVnDUT0xvd5V/FpfZfxIz5RtvHrfbXwLt2l/SFfHXJ+/q6Ydpf0hXx1yfv6umIT3XLrfSdVnDUT0xkqcrq+FWzyCpqna/q6NmcxeJiFh0zx9KnXD8CSNThFmf1mPjs60VlxpY9V/EyjtC3m1GMqzb/zr4Fk7S/pCvjrk/f1dMapV9j8YNfxbEfW9H1lPIiGbNplyPe7MbSDPM0p2SzyIz06BmO41jq+TV/6Qn/XH8PWgxyQzLkRENV4200k1rWqojJKUkWZmZ9n0ERDXhWjTlvQqUU/N/wDo2qlvOrHdqUrhrz6/+pz2+sBBWkl8VeDE3JHICUyZ0kSmmn1I90T2Oy2SWzTmf+CWg1ZlkZZ596RkrcsKV1KsvHi8Ksqridk67KY5uGhWzPsEFDkktgy0n91Kc/KZmZnmZmY0u7cZUVX4XrHuxsXMZ1N5hM56wlbzi4iIfWcWSEIIzM1KP9lJF5CIexsI+GuDsVR/bWew7TtZTtpKpi9oV7kb8KYVsy8RHkazL9pWskpGhtK7hTtKlW5eakt6CS4JJ4eOzLfF6IlNkWNStfUqFmt2jDcqSb4ttKSy+bWcJcFq+OS/gAChHUQAAAAAAAAAAANBxAnlYa5J6qRnHInRvwn+IQ8rB3LPVR855E6ANoo8sqRkhapdDeqSMwMTSRZUrJi1S+H9WkZYAAAAAAAAAAAAAAAAEqwnblizfm/p7m5gVUSrCduWLN+b+nubmABVQAAAAAAAAAAAAAAAAAAAAABrdyizt1VRa5JHeoWNkGu3FLO31Tlrk0b6hYAx9mDzs9Qp66alfJWxuQ0uyZ52ZoI9dMSvkjY3QAAAAAAAAAAAAAAAB4VvJgWuJcC71R3DfrKlJVTc0mBxrzr0Q+cTDQpEWzWaOxE2aiSSjyNwi1qLwiFLtthMQtSSxJztWxMyzKj38j+su+HufF43XNS2+Vbm303kMBFT09jNHZjNmoNaYEvChBLMjPsii2JmWjYpWX7w8LbTi6W+GhfSaG9ov2yL2de3Tua+5jRJbvBc3lM5dt7Z1O2u3GztekzrJy3msvXCxJe3j1cj97nGEz+JGe+h7/SDucYTP4kZ76Hv9Ifm04ulvhoX0mhvaG04ulvhoX0mhvaJTp6Hlb/g/CQne115DHsqfjP3ucYTP4kZ76Hv9IckNQWFWDfTEweJmoWHkZ7FxukYhKizLI8jJeZaDMcW04ulvhoX0mhvaG04ulvhoX0mhvaHTW7/APLf8H4Qra6WqsY9lT8Zk/e/hx/ixq/0ai/6goVF4TIC79GzGprO4gp7M1Qr3uZhc1lkTAwzr5bE1JNZrUvIkq0qShWRmRaxNJXgqupM5lCy5FQ0SRxLyGs26gYdUWZkRmSEnslGXhyLSY+i1qrZotxBQ8klr7kPI5NAolUrgCMu/wAlbN+NeMv2nnnNORaEpIvAa1JKH2rtGNnBO2ruUvOotY9kVx+JP7E2RPaFSSvLZQgupzTy/TN8PRxwarYnD0zQFA0JKK+bl0zqCh1zNyDdhHFuQrbkXEKX2ROzQlRrJGSSMyLIzVlnoMrWACl17ipczdSo9W2+15f3s6La2tKzpqlSWEkl2JJZ69EkAAB4mwAAAAAAAAAAABPsRB5Yf7mnqo6dcidFBE8xFnlh8ueeqjZ1yF4AbfSxZUxKC1QEP6tIygxtMllTcqLVAserSMkAAAAAAAAAAAAAAAACVYTtyxZvzf09zcwKqJVhO3LFm/N/T3NzAAqoAAAAAAAAAAAAAAAAAAAAAAwFwSzoKpS1yiM9SsZ8YKvCzoaoi1ymL9SoAYax552VoA9dLyrkjY3YaPYo87I29PXSsp5I0N4AAAAAAAAAAAAAAAAYyZ0xTc6fTFTinpZHvIQTaXImEbdUSSMzJJGojPLMzPL6zHU94NC7y5Dwcz0RngGaqTSwmzzdKnJ5cV2GB94NC7y5Dwcz0Q94NC7y5Dwcz0RngH3pZ+M+0+dDT8VdhgfeDQu8uQ8HM9EaLYWAp64NjLdV9UdHU4ubVLSconEepmVMoQqIiINp1w0p2PelslqyLxEKwJVhO3LFm/N/T3NzAdLPxn2joafirsN8hqLo6CiG4uDpOTMPsqJbbrUA0laFF4DIyTmR/WMyADCUnLizOMIw0isAAAfDIAAAAAAAAAAAAAAAJ1iPPLDzdE9VGTvkLwoonGJI8sOt0z1UVPOQvADdqdLKn5YWqDZ/IQyI6EgLKRS4tUIz+Qh3wAAAAAAAAAAAAAAAASrCduWLN+b+nubmBVRKsJ25Ys35v6e5uYAFVAAAAAAAAAAAAAAAAAAAAAAGErgs6KqAtcri/VKGbGGrQs6Onpa5ZFeqUANdsMedjbdnrpOUcjaG9jQrBHnYm3B66Sk/I2hvoAAAAAAAAAAAAAAAAAAAAAAACVYTtyxZvzf09zcwKqJVhO3LFm/N/T3NzAAqoAAAAAAAAAAAAAAAAAAAAAAm+JY8sOV1T1UTPOQPCkCa4mTyw33XPVRE95A8AN9khZSaALVCtfkId0dOTllKYItUO3+Uh3AAAAAAAAAAAAAAAAASrCduWLN+b+nubmBVRKsJ25Ys35v6e5uYAFVAAAAAAAAAAAAAAAAAAAAAAGIq8s6SnZa5dE+qUMuMVVZZ0vOC1wER6tQA1XD6edhbbHrpCTciaG/ifYeTzsDbM9dHybkTQoIAAAAAAAAAAAAAAAAAAAAAAACVYTtyxZvzf09zcwKqJVhO3LFm/N/T3NzAAqoAAAAAAAAAAAAAAAAAAAwda1nILf01G1XU0YUPAwSMzy0rcWehLaC/eUo8iIvwLMx5yRT9T3bjX65uLM5zKSjcilclgY5yHTAQhGZpJzY5bJ1WeajP/wCtCU69auqTUUsslNn7MlexdSUt2C0zjOX1JaZ8/V7UeqRM8Tp5Ya7snqoafcgeEp7i1N/P9U8NPe0cUVYyko6Gego2b1LEQ8Q2pp5l2cOrQ4hRZKSpJnkZGRmRkfhHj33Lxfv/ACJD5Co/vn9n+o9OysspZCFqYb/KQ7Q8uFZWmkkSUz6qSItBEU6e9o/e4tTfz/VPDT3tDvuXi/f+Q+QqP75/Z/qPUQDxRcWl6epUoSQSCZ1RM6onGbcugSnb2ReI3ndPetp06s8jLMiJRpq2D2EnEsp2r5NPJq9HxUuqFcM46t5biTUllsjNOyPX49BnkWY+0rvpKnRuP3mF5sFWto7pVM4xpu4zrjPF6HoEAAbpXgAAAAAAACVYTtyxZvzf09zcwKqJVhO3LFm/N/T3NzAAqoAAAAAAAAAAAAAAAAAAAAAAxlTFnTc2LXAv+rUMmMdURZ0/My1wb35DAGm4dDzw+WxPXRsl5CyKGJ1hwPPDxa49dFyTkLIooAAAAAAAAAAAAAAAAAAAAAAACVYTtyxZvzf09zcwKqJVhO3LFm/N/T3NzAAqoAAAAAAAAAAAAAAAAADzdicp5us7l2/pSYTeZQkA9DzCLMoN8m1JeaSg0OFmRkSi8GeWZEZ5ZZiPpXDzBx5ymZ3e+eQLTqmUx0HMSNh1STyPYGaSMyz8eRCy4jzNN0aMUkzIykc9MjL/APQkdOyyUotXTZISSS9xkeRFlpNRmZ//ACIWvHfryX64I6Ls2s6GzKU+OnD0ynl/ciUe45x8RfvhFPsD3HOPiL98Ip9g9GAMOg857fKT8T7zzn7jnHxF++EU+wdmUwcJFTiDks+qq81POTJzsEG9MpmSGXnctDZKJJ5KPxF4x6DE5vsRFSMvcIu+bnkApCvGk+y+EtR6R8lS3FvZPWjeuvNU93GdMmIsbI4Vid1pMYyIiplMoKdvSpExj3jeiVQ7RESUqWfkLPIizyLxERFUcMn/AFrj/a6I9W2J/Zj/ALncD7WRv4kKBhk/61x/tdEerbHvaLE4+0jNutyoV8/5P5FvAAEuUIAAAAAAAAlWE7csWb839Pc3MCqiVYTtyxZvzf09zcwAKqAAAAAAAAAAAAAAAAAAAAAAOhPizkcxLXCPfkMd8dOclnJ44tcM7+UwBomGs88OlrD10VI+QsijibYZzzw4WpPXREi5AyKSAAAAAAAAAAAAAAAAAAAAAAAAlWE7csWb839Pc3MCqiVYTtyxZvzf09zcwAKqAAAAAAAAAAAAAAAAAA854kPhQo3+RT31CR1LMfBZTf8Aok/iY7eJD4UKN/kU99QkdSzHwWU3/ok/iYiKnhEv1yRf7X6po/rnM3QAAZHgBOb7f5Pgv51AetIUYTm+3+T4L+dQHrSHnV+gzasvCIek4bMf9zuB9rI38SFAwyf9a4/2uiPVtif2Y/7ncD7WRv4kKBhk/wCtcf7XRHq2xlafTj7Tx254PX/2fyLeAAJcoZOqgsLQ9SzmLn0xntxWYmNc7K4iX3IqKAh0nqbh4eOQ00Wj9lCEl9Qx+1pt1vjurxsVV1iKqAAlW1pt1vjurxsVV1iG1pt1vjurxsVV1iKqAAlW1pt1vjurxsVV1iJphkw+UHOsNtqJzGT+5TcRH0PIol1EJc2pIVhK1wDKlE2yzHpaaRmZ5IbSlCSyJJEREQ9QCVYTtyxZvzf09zcwAG1pt1vjurxsVV1iG1pt1vjurxsVV1iKqAAlW1pt1vjurxsVV1iG1pt1vjurxsVV1iKqAAlW1pt1vjurxsVV1iG1pt1vjurxsVV1iKqAAlW1pt1vjurxsVV1iG1pt1vjurxsVV1iKqAAlW1pt1vjurxsVV1iG1pt1vjurxsVV1iKqAAlW1pt1vjurxsVV1iG1pt1vjurxsVV1iKqAAlW1pt1vjurxsVV1iOtMsNVu0y6KUmorqGZMLMiO69UmX7J+EjmGRivDrzEs5fElrZX+UwB5ww7YeqCnGH62U3ip/cxt+Oo6SxLiIW59SwzKVrgmlGTbLUeltpGZ6EISlKSyJJEREQoW1pt1vjurxsVV1iOfC8eeGi0h66FkPN7IpwAlW1pt1vjurxsVV1iG1pt1vjurxsVV1iKqAAlW1pt1vjurxsVV1iG1pt1vjurxsVV1iKqAAlW1pt1vjurxsVV1iG1pt1vjurxsVV1iKqAAlW1pt1vjurxsVV1iG1pt1vjurxsVV1iKqAAlW1pt1vjurxsVV1iG1pt1vjurxsVV1iKqAAlW1pt1vjurxsVV1iG1pt1vjurxsVV1iKqAAlW1pt1vjurxsVV1iJphkw+UHOsNtqJzGT+5TcRH0PIol1EJc2pIVhK1wDKlE2yzHpaaRmZ5IbSlCSyJJEREQ9QCVYTtyxZvzf09zcwAG1pt1vjurxsVV1iG1pt1vjurxsVV1iKqAAlW1pt1vjurxsVV1iG1pt1vjurxsVV1iKqAAlW1pt1vjurxsVV1iG1pt1vjurxsVV1iKqAAlW1pt1vjurxsVV1iG1pt1vjurxsVV1iKqAAlW1pt1vjurxsVV1iOnOLA2mkErip1OqxufBwME0p6Ifdu1VKUNoLwmZ9sRW4yLhZfCPx8a+hmHhm1PPOrPJKEJLNSjPxEREZjx9W96KRvRVhwk/qmGldBSV4lsQDrhpdnL6T0OupLSlovEk8s/Kfe69xcRoLzvgSmy9l1NpVHhPcj9JpZ9i875dr0NVlEVIlXfkdRNOVBB0jHw0ezLVVVVcymzrzKWjSp41TGIe7Clw1ERJQaSMklnsjyMbBKHatoWGVT9FXIt9MJIy4tUEmdRiifh21KNXY82lZKIjM9J6tGRaC2KdVvYKokQ7c9mtOx6YQjSwT7RL7ER5ZknNOgtBaC1EMX7vww/F0n92LoiIllycnJZ9JfacVTpxpRpSUUsY3crRtp66511Hv2utvus/9/iekHv2utvus/wDf4npB7vww/F0n92Loh7vww/F0n92Lohr4y7TLEf3L+x+Y9+11t91n/v8AE9IcC0TOs5hAquXcmimpVLoluMTL5JF6Il1B5pNxbqtkREZ+AtB/UeRlz+78MPxdJ/di6Ie78MPxdJ/di6I+ceMl2hYjrGnJPrUFk1akanqOOnda0dbxtC5jNqjjIpc1PvoaBhDVl2XZFmSlKyPYkXlH9w+GKsYJx92WXmqeWKinOzRCZXUM6l7bzuREbim4aObbNZkRZq2OZ5aRv8juFYymWHIanp7IZc06rZuJhkdjJassszyLSMdU9y4itopmhrRzBETGx6DVGzZsldilsPnkaiPR356ctWjLSZGWUd2Czva+ZmNbpLiTgqWIPDe9FPguLyuXJfzIpPqeqySVcxT0Dei5U6ahI2GhprEMV5UTbMMt10kk0ajmJ7JZ99mRZZZHpzJWx+i0gkcFTUmhJDLn5g9DQTZNNrmExiI+IUWtyIiFrddP/wBy1qP6x5PrajZLQlvZJIZM1khE/lynXlZdkiHTeLZOLPxmf/0WRFoIewBv2TnmSm88P5lW7o426jSlQgor5y0SWcburx+kAABvlXAAAACVYTtyxZvzf09zcwKqJVhO3LFm/N/T3NzAAqoAAAAAAAAAAAAAAAAAAAAAA4Yws4R8tbavwHMOOILNhwtaD/AATPC0eeGO0R66DkHN7AqAluFU88L9nz10FT/NzAqQAAAAAAAAAAAAAAAAAAAAAAACVYTtyxZvzf09zcwKqJVhO3LFm/N/T3NzAAqoAAAAAAAAAAAAAAw1ZpSqj56lREZHLYojI/GXYlDzZaGk6VjbaU9FxtNSqIfdg0qW67BtrWo8z0mZlmY9MVRDvxlMzeEhWlOPPwEQ22hPhUo21ERF5TMeQpBcyZ2xt3KJRUVrK4hYuGaTBMuRcpVDwz8SeyNDZOLMj05eJJnoPIjyEfeNKcXLhh/yLZ3PRnUt6lOk/nOUdM45SKp7yaM3oyX7g10Q95NGb0ZL9wa6I1JNV3rUkj7lEuLMs8jnreZf/Q/ffVev6KZdw637Bq70er7mTPQ1/HX218TbPeTRm9GS/cGuiHvJozejJfuDXRGp++q9f0Uy7h1v2B76r1/RTLuHW/YG9Hq+5joa/jr7a+JsU0p23sll0RNppTUkh4SFQbjzpy9syQkvCZ5JzGne/wBw6fHU1wYX9Mdx2pLzPtm0/aSVuIV4UrnbRkf+xpHX7Z3V+haR8LM9EYSl4q+5ntTpNL+0ll+apFfE/luucPDriWml02tazJKUlKyMzM/ARf4Y/iiWJXI7wXCRDswsBBQ0JLXDJCUtNNp7BslKyLIiLwmZ+UYaOuzO6eqyX0rUlo4ZUXHlskwspeRGxRpPMi2DaU98ZmR6My0EY5abtpXF3rsTxyY0zUlLUdNUwbs0VNIBcHERTbCCSUOgz0d+rMzyM8klmeR5EeKbm0orLz1Y5HtOMLenOVaW7FxzlyUs/OXDHPR+k3+2NLxF6aqYuRPmFooyQxB+9+CcSaSmMUg8jjHCPwoSZZILWXiyUSvRw4IGBgpXBQ8tl0K1DQkK0llhlpJJQ22kskpSRaCIiIiIhziZo0lSjjnzOe7QvpX1XexiK0iupfF8W+bAAA9jQAAAACVYTtyxZvzf09zcwKqMfT0gk1JyCWUtTkuagJTJoNmXwEIyWSIeHaQSG20/UlKUkX1EAMgAAAAAAAAAAAAAAAAAAAAAAP5WWaFFrIx/QACV4UTzwt2dPXQFPc3MCqDH09IJNScgllLU5LmoCUyaDZl8BCMlkiHh2kEhttP1JSlJF9RDIAAAAAAAAAAAAAAAAAAAAAAAAJVhO3LFm/N/T3NzAqox9PSCTUnIJZS1OS5qAlMmg2ZfAQjJZIh4dpBIbbT9SUpSRfUQAyAAAAAAAAAAAAAAADyHcq7Mnqa9j5TyEmr0ioN52DgGYWCceS9MyPYvPL2JZFsMtikj1EovCY9eDyJcOgqYar2oX2ISKYVFzF2KeJmYRDaVuuHslr2KVkWZmeoaV7vuCUessfc26Ea85Vk87umOWdH92ntZku7tR/zXUfBDvsDu7Uf811HwQ77BpvvJkGqZcKxX9QPeTINUy4Viv6gj/wC18xatyx6pfcbl3dqP+a6j4Id9gd3aj/muo+CHfYNN95Mg1TLhWK/qB7yZBqmXCsV/UD+18w3LHql9xuXd2o/5rqPgh32DijL/ANGwkI9FKldQ5NIUvvpY4gjyLwGo9BeUxqXvJkGqZcKxX9Qfw9QdNxDSmH2Y9xtZGlSFzOKNKi1GRuaQ/tfMfVGwzqpfcdzDpSFQ3VuHD3SjWiahJZMFTCNmC0H/AI8RsNi1BMZ/uNoMjUrWZFp0GPaQw9ISKT0zTEskUhl7UFAQkM2hllotCSyzM8z0mZmZmZnmZmZmZmZjMCVtqHQQxzfEo22NpPadz0iWIrSK6l+vgAABsEUf/9k=;" vertex="1" parent="31">
                    <mxGeometry y="65.64321726804474" width="220" height="220" as="geometry"/>
                </mxCell>
                <mxCell id="6" value="" style="shape=stencil(lVjLchpBDPyavapmpHmeHec/XGUcqBDjwuT199GEmjWjXRp8w2s1I7VammYneXjfPr1tJnbvp+Ph++b37vm0neTLxLx73W6Ou5N+muRxkoeXw3Hz7Xj4+fp8/vvtqUW2Tz8Ov9o3/Dnj2BH7hmL39/zEkc//H3w9x+93r5fxmVI18c5dj5dC3sb7dD0+euIwxHtK4PtTIJEhPlKu1+MzUxnz8ULCABCJ3QBoFQcIyGUElM7xNYAbWyCZCuBIazAchdRZuEZS5pGkRBGwFAPVPABSgm0OgVwcADn0JNd1wVTHlIqjCIrmQGVMqQSKEQAcpVEZuZAAaYueIDYlBAhxUQNTAJ2OlcoojSK4055qtQBfrgOKAoqtwYNOl9hZn1mqxGAeSqXgLMCBlKpmzBaQEUDFPJ6gVTFgqRbbaWVJEKB21mdAhH1YARSKYB6WKVXXW3ln0cqbQwClddwaVecBqHXZuKqrDQFin68LgAdrpokv25Q8GNGmnHGRVR0gBMh2zVQs75yIjTT0AkPLOFEaU9I1gxqnS4WNNBjeWDqQdWycPkloREO/oC4GCLGk2lxOnAONq94usnYCmodoU7pRQ81WGo0l0AeduGg2X4Q3kHezEblsNdhkeoQ3csVi0iL8uFxvyLUGe1G3gUC8KiB+BtD0Parvo6p1K8B95mf/47CDi2x51SOQYwrOGqDWfeAFmj9aLBqkJp+sqdRtyMgAWTFppwWobyklhp5PKI2kNteICojdJ8wARwFw2k4YlaSG7Ia/MpYvOehNgu9Snj0idz+0Dij2PlE/hEjV78ujViV23tYBsuKk4Qlizb3+ekDXdKj21tXOIKshagQMQKC5X/5e8h4Pw+IHmQKQXfLFbiUFoNWq02NXgO9eYh2gxsKc4OAG8GJv3QqdhtelZFwrvK8aIyOpCQppGY+dzzIf6Xf2nfUyzmdJaLeLd3bMwdFcSkL79SnN3XgJcDNeP3y8cXjZ7ffnFxaX/7dvKPTR+e2GPP4D);lineShape=1;" vertex="1" parent="31">
                    <mxGeometry x="232.253225656822" y="78.21767438443783" width="13.249134606017506" height="19.361943230855083" as="geometry"/>
                </mxCell>
                <mxCell id="7" value="" style="shape=stencil(rVbbbtswDP0avxKSKEric9f9R4GmS7AsKdJ0l78fNUNdyMTMDOzNlnnMyzmkOOHD2/bpdTOl8HY+Hb9ufuyez9sJP00p7Q7bzWl3lqcJHyd8eDmeNl9Ox/fD8/z++tQt+9O34/f+h58zjhgwdlQKv+aTCsx/Dj7P9vvdQdtHUvaRoYVlQIlQUQFQTpIDIGisAFkAjodKkKsCEEJoy4BWLaBkYFoGcAUKukgVWnUADLUpAAfg7AAKkA6JM8To5CBVTxpQoDkeWoCkieMGDR0e5HPRAPHplJUkAFoDyEJcWRMSXkmjJ+0A0pVa75Q1EbBWayfO8yDE6ZBEXcXRkqg/ZA3I4xe3Ac0y3ZIr7yxJG0AAdAAlWKYrQ3HkXdNo+QsPwalSQ6h6yrQI2eGBE2TNg/yiODmIcoLOoRW3rDFIyCYJdjuouzBikjnjuOhJXPVocCZZz9Hou0EqLhF2zghzTg6daq2+izosqilYF+mOXg2g+gKPQzsfAHIF3nvOZC0d4VwpvatNz7VxK/0nQLZikhsCPfkRoLmDCIpDdbFjg9IQy20HVnsZIToZXHUDinodJQWoRkj+HhAsZ/6eEW3/l9HftzVk+crjtrvdN8B6WCR3ZkccXfiR7GDvtj0D6ejDuOmWBJ2jsfd6EhEyr7DPMv/LinhygYIr8qVob02/nkRj3fo3uqjZRUHU4MWzfqm9Yy8Pfzfol91+Py/gl9/txi1H87aOj78B);lineShape=1;" vertex="1" parent="31">
                    <mxGeometry x="234.76334703906787" y="132.89854263130383" width="3.847377198391349" height="14.037034623733094" as="geometry"/>
                </mxCell>
                <mxCell id="8" value="" style="shape=stencil(lVfLctswDPwaXTEkwQd4TtP/yEyc2lM3zjju6+8LVUNXgK3t5CbLWJJY7ALUxA/v+6e33ZTC++V8+rr7eXi+7Cf+NKV0eN3vzoeLPk38OPHDy+m8+3I+fX99Xn6/Pc2R89O30495hV8LLneKMqNS+L28qdTL3xefl/jj4XUVXyJxMvExU4wAIJSbAaREDezQIuViAMwkeRsglVI1gMzUwjagZxKbQ9EcGgAIcbck5ZHVfUAnzgbQMjE4UgyBQjAIYeoCtoie114ppG1AHctd4ws1ULhEbFntWrcKUhgyuCbQqYD1mdiWWevI4PxCUjxBaP3YKNgaiGoXFC0pwGYsgSIQHjcSC2idOgBkGSJY7dBAkUsjdqQmqkBHVUVjpS1lGPw+oFF2Scuw0xag2DqoEgsDwNVbV0CmCgCadLMs9UYJdAyltVl7qv8iYIlv/Lzy35Y2ivgtBJxJ1VdcEkIV8KondjlUKkCtKn6r7s6DhS17so0PUEmJkhNSG4bdaC/VEiTa8YDwdGx4t0XqIIE5Y7dDoIzsmYdqVvYUsEPOw72rHRgAdGyUmxbTkT3TTU/KUNozgD8C0KTbDUuobXMZJF5ZirjrFRJ3Y0jwBsDJF66kIcb7lVZp2MLNAx2NHvYDXQ+ZgHkqiTWnvkGFDtRtFWKBDeZmmDcoC1WZXb5CQlUTlk+9jIDVi3d+GmNroxH5Cx4V1Fey76UB9rmZm+LiIxj7enx3b8GdmiMJu3h0reDmu0QcB7zfJKJvEipmFF+oOm2OAbo1zFx18QD/6AX+//H68O9r4eVwPC4fG+v//deFvlq+TPjxDw==);lineShape=1;" vertex="1" parent="31">
                    <mxGeometry x="239.21233247158534" y="192.9473283811676" width="4.611344777868465" height="15.279826708230338" as="geometry"/>
                </mxCell>
                <mxCell id="9" value="" style="shape=stencil(nVfLctswDPwaXTEkQZDgOU3/IzNxak/dOOO4r78vVFWuCKnrcW+yjBWIBbAAB3543z+97YYU3i/n0+fd98PzZT/whyGlw+t+dz5c7Gngx4EfXk7n3afz6evr8/T77Wm0HJ++nL6NX/gx4VqgICMqhZ/TG6ZWf7/4ONkfD6+9vWpn3ygxsGeS/vuxzB63AULKHSAlGn/+E6AUcx9BoBIgQEoPqBQLBOTeQ85zVNuAStw6gCTMaqHcA0okjRAgfRpquHmkPmiNFBoE1NQnOkBADPZ/6BEFB6H+TOZUUaqZsvOgVEH1qVDpM9fanMtNQBVqwQP+FPwmoAjFPnMLHjYRkjfOVAGxWYjFAxKoJlZKzdMk4EicKQWfCFRNbF0dfaoFJIILsfMgJCAR2Zre1YbxBliSMJO4AATQ1SXMLXkFMCymGqnKCgDKVdOqIexISCxNuGQVNGDJWPdBy6wk2wArNRe0SQ9SpraqpYo9iNe+UT5BLal67Wt4pNS2qqVrVNuZVs/SzR7VuXQWLhoAZGu5tdCAM+VAnD1NFQgNy0aPImWyHvWyYXKMZONuQJ5laDEiEtKZ6PXbhhADQLLy73XGxhzq0Whp6gE2SBuaWtnrjDBFQKv6fcZ2AUUxU+sHtS0bGQzFMDfLYptRIAGroXtjXUo+Zzf2sUzNFQVsTvH6gtfJ6k/PFAA58brZXaOliOxt7LhoiRE5q2yZQ9Rjyc+QANmxqabZ2UMdYs8Pti/2/XLHeWykqdwRr0lvLnfwaftXcss8zJfNArf843r4j9vLDXt7+HtVejkcj9NNa/m/v1rZq+laxo+/AA==);lineShape=1;" vertex="1" parent="31">
                    <mxGeometry x="236.66044617979423" y="253.07441344462518" width="2.5550574272643316" height="26.925409840657313" as="geometry"/>
                </mxCell>
                <mxCell id="10" value="" style="shape=stencil(rVddb9swDPw1fiUkUV987rr/UaDpEixLijTd1n9feoadkHFuGLA3x+ZJPPJ4UgZ+eNs+vW6GFN7Op+P3za/d83k78Jchpd1huzntzvo08OPADy/H0+bb6fh+eJ5+vz6NkePTj+PPcYXfE64EKnlEpfAxvanE/OfF1yl+vztcxzN1Gx8L5XofUAO1YACpUUkA0IiTAXCj0O4DGlNsBpDLvOc6oFK1KY2sAOkeKLAtEkPSXWtiAS2RAIAIhW4AvcOUFNDFACRSKwDQKNkdJFPpABDnNi0A7UMGpJmSAygHQFobl6yWRlaAQ01U2QMEaKkkKsEDEIfMJNGTRvOg2mzVl1UAB85UXeMSRQQoXnxdKKGUOjUHqJQFkFa12sb1PLdyvayZ2HLo2hlkAtmbQI9wHlrxatUdUEo6ccE2TuXISN6JunUNXYLRAHUKxQIaCbCZGNQ2nPrUDIGT6RZ+5BjWVT83m5PUuXDrZdLPTt8d6nv0SmcbQhXZd6VoB+KqDutqKjckhDIa0krF2YB2ArBmmfW/AAp1kJLOHGffiBj/IyBl7xtN6wpIR/Gdq6oWIKZYqdmUSoMnhB7kzplyow44xDRTXE5qoQIAjaptdBJ4FWAKdhxGTsDIbuZt2fBOuFNqIUEFpWYnIc89X1epb/BiOOuTSWI1HbEcMgW7vFoLKKXKx93bFvbr+iw+HzzEHOcJvMQndKrdaCFQByOc9SQXVx8Yf+MRyy1xPX45Uy/drWD9f743/zVeHy6X9Jfdfj/d8a+/+0u9vpr+EPDjJw==);lineShape=1;" vertex="1" parent="31">
                    <mxGeometry x="7.337355894720872" y="36.88351922239883" width="4.479211555472387" height="16.263705003070054" as="geometry"/>
                </mxCell>
                <mxCell id="11" value="" style="shape=stencil(lVfbUsNACP2avDLLstdnL//RGavNWFun1tvfS8xEhUZ29i1NOVk4cIAd6Oplt3neDt69nE/Hx+37eHfeDXQ9eD8edtvTeOangW4Guro/nrYPp+Pr4W7+/byZLKenp+Pb9IWPGVcKBDehvPuc3yRw+fvF7Wy/Hw/SnoqwxwAx/g+oTh/gAxQyAB4cCQBFcNUAEEQUgBDAWyewA1UAIkIOBiBBkkEnt3xiHVAAkwRUCN4AVCDpUi5LVKsAdA6c5HUizgoi68wxD9EIolQo6oQExagNdtnJqJmHZLiUCChLQIVs0BQyeEnTHx5WEYQQqj4iGPWKGRLpINDwKetUM0toHQCoYibI6X97p0Ou/IVicATJC3uWbDYYQlr+/gEkiIZD3CGi9KhEMwcBoSqXghlCZMZdDyATBOpxiUMk7Am6Rq2eBq1TJcsTGnnjMiuq8OzCYL2X0FN5xQNd6NMq7cQ9SHUAWzzRQ+rUJ7dW1EdYLYD1Uy/0aTUZdIBV01Ss+r7wyO6TvY2431750xoNuiwas4ebsFRnY7hFQOlPY3om3YEb4zlDlQ2yNf8hdS0YiLpDNlaYCdCzI6FfKvgn4iWF6/ZJVwSZBHGGvdQxF5AlmaIVgGbBsSbVMuKADH5C1GPc1nwMesTa9rwmqITZ/mRWAHbEy3rKoYNPHkZd+Sq8tcjZYdfD6k5uTI72Ds8PvxeA+3G/n+8Pf//XFwZ+NV826OYL);lineShape=1;" vertex="1" parent="31">
                    <mxGeometry x="76.89477944360021" y="36.89019713190089" width="2.964309215827038" height="18.600009163601033" as="geometry"/>
                </mxCell>
                <mxCell id="13" value="" style="shape=stencil(7VhJbhtBDHyNrkTvy9lx/mHAcizEsQzZ2X6fmgg9EdlSOQF8SIDctJAzbLKquro38er5/uZpuwnu+eWw/7j9urt9ud/Ed5sQdo/328PuBZ828XoTr+72h+2Hw/7z4+3x+9PNErl8+rT/sjzh2zEvS05LUnDfjz908fnnD++P4Q+7x5Nwn8QXFV/F+8vxIUrMKj5Jcpfjo5em6/HS++X4lMR5Fe/EkefnICmY50fy/OLEO1N/iyS+SGmmn7Vcjq9JStT1VPqC2ka9IwEV1XQ5oTlJegKxiONv8Lqk1EaTzydgxrqnee3C+SZViRpEJUkPJMEPUK6oC5IrGTOmpMdQO8VdKhZ3rUpnQK0Dl+ugI0d2llZ1AopkCXGCUpZO5gDuBPOGIpm8ITSpcwKBRiiWzUhgdAM2DZaw6E70JQQJaWorgTf43jRBux+Sdl7BuoVG6xIJWpGQ9aIBDccTmuZDS6PRl9ZQ9Bwa4E1UCV1ymkBgeSEyAxnuukvgg+fgaxreiywQ8KUoQS+6VjrpPCk3SmJYKsmiFYt2pEvQJTs4N9B1Xiq73RyWBMKHHiz4kFDJosHgpvmASQeWgK7rOQBLTPl6txsK0JpIgnfrjrkyCGBiNXUJGn3gaCWE6KjAaCV0huh9n+QbfWCEAOeLeUOnlGtt0sounWEDulVsAkMfBus1mNCGwBIwByOufGcHI21JXirbqKcEtIHNYS6pZUlk0suiJ3y/1lZDak8N6Dy4haMcGnXiKCPEDD6URPlQxy67JoAPDN4TgVqRROT7DEehVZQQkwxAq5gRnYUGWlVYmyYp65Va9VksUSQFE/7WO8RJH94oo8KpeltUZ961DDtyktAI6XKWMGlZI5RI05EAjWVwgrMsprFws8wNFHskWGwcc5Z/p3dtU8J/7/pPeNfJlb2pdw15EPLUijLw4QCrJw3ryCga+yDkeoCt4kmXUpasB1ccfUP29p4lR6pLGWd0XRJ0JJK24kzttODHxEvCDqHhvVCKlRTskQBgyYRAqNhYJp/plrIon7k9KVSXQrXq7Rvdg3wd2PzNNTR7LQC8J+bJrGYgvrDtxFrp5flMie29RvB0uwrT9ZIb2n++QeOAtDYUzoOgyE33b4AVGcBkfDDhzOONA0jUgLoJEBADJsHWunk/TsoX+mmfz9VuOndDasiu9ofXt6+G48Ovm+K73cPD8aL59H97s4yfjrfS8foH);lineShape=1;" vertex="1" parent="31">
                    <mxGeometry x="132.88587288817405" y="40.32974509852511" width="15.438107818702706" height="16.5575240483769" as="geometry"/>
                </mxCell>
                <mxCell id="14" value="" style="shape=stencil(nVfZctswDPwavWIIggTJ5zT9j8zEqT117Yzj9Pj7QnWoGrAE1X3TwSVx7C7JgR7etk+vmyGGt/Pp+HXzY/d83g70aYhxd9huTruzPA30ONDDy/G0+XI6vh+eL++vT+PI8enb8fs4w88LLiWINKJi+PXxBXL58+HzZfx+d7geXyFXNR4RxtclQGZoGhADEC8DmCFnDahQ6jKgMJSgAFSA8zKgZkgakHKfYhbQIgQNyBGas0JjwKYBDWJyALX/7gAuEJ0+tAZB960kIKcPAmBd1oruChiCzVrqUJ3OSRJJL9EyoJc1QdNZt9ILN985IVPRgBVuSF1NSA2K0zmulkxXdZgneANCu0T2AAih2iQ+ppjXXOplnwCTRuYBeBNS6pSfBwQomq8j5Z1GJOoantjUXG6IbxRDv9Kbv+QbRqTS/OwAOEPWSYvOq5N0EXLeBaipO90/htQQarknaaF/vKusQrWqbWClcQIgI2qfGiJh07gV8knEWVdphd6jDxny+QIqCE03bk2jHIHusoFMwMkm4RlNYmCjUd/KUgQ0AN8sRaNsRO3b8f8AijamSpC9HNC6gOzF7OVws5Gy9MGzvghJk0la2Zxdi5r1ypyBnJBIqm4OQNXNIYqENV3Hujnkw9b7Op1PENgpK4ZuQ9MJKPp9ADR7Vuy2MDs+AGo1cOfiwnDTtNRtbT78m3SBnfJQ1/qULCTP5vvBa8q1Hzrmg7kxF1GFo2Nke2AIroxl+VzMeM+Jxvijnd85tglVmo3f23KIbTmxJ7SkeSym/Cu2ZbhJ7rHz7vvF6nh5+HuZednt95e70PV/e/mRT5eLEz3+Bg==);lineShape=1;" vertex="1" parent="31">
                    <mxGeometry x="196.87232629500568" y="40.32646977102968" width="5.116106951741014" height="21.246764749505065" as="geometry"/>
                </mxCell>
                <mxCell id="15" value="" style="shape=stencil(7VnLbhsxDPwaXwlJ1POctv8RIE5jNI0DJ339fWfrarPieicI2mNufogrkZwZktqdXj3dXT/ud8E9PZ+OX/Y/DjfPdzv9sAvh8HC3Px2e8WmnH3d6dXs87T+fjt8ebs7fH6+nldOnr8fv0xN+nu1ilFYmq+B+nX9RKeHPD5/O6+8PD8v1SWIe1jdJjazPEsfn+ypBqUFtgwFOFAoxKP3v2aBKZi4UyTq6HMV7atBGn7VJYU5X8W4wQNgS2wEx8YNBclKY01V09CEhMYkfadwhI6yROv0XB7NBE88SV8SNThc4zTOd0mBQndRMDIK08Ui1SCIGqpLHHRp2INAA1ExYa5Vatw08XBydriqV5KFJrGOQKke3lBF6JUh05ECSRjJkPJ+u9+N5cpFKkOpEx4jmTPnvLChyov468aO/gGkjMHX9tPP6IJk830sz6xEx8nyVaNY7ySSe8G6EaGrSCAnKhfWJ4ke9XR9J/L0XzdagkA08ZCFZj5UgwsfOkEVIPdsh978XOQtkByQtGinKkonTIXeWz6wBDsmRIBSWZqAxo6WXMuYBPHasJCDqcRQKAJUoS8rSxrDWTMVu0nNj0Dq4LhtkW6Vq7GpwGasg5yguhWOpxM6VRUloJKw4QDJYAuAJPRETU5onvSNHQkxMpiF4hRC6hQ61pQFjKApxtEdikt0uVdpEotSQ1/FI5RXGuZUMo4ywRLRVmJDLSnSs1VWqMxcyUHgMUylU6VvsBFtQjrULzVttLZwQqPW6InUjO9RksQED1iOhOcjBRqkSbEAk1BgkvoPv5WahZKzgYgfbkfgO4C0fzA6AK2sZwFHbelaqZFPPZZqGQts2ZNoyqNAuAFhKK9nwbAc0tyunWR7ajM1FCWKNEhhXjbiG3mttGbSxjIKiDN4wcCbTWRxJHJxWc6RCO/q3Gzg790z4JVEC47wpo7lL22UD1w8wjwCeZhoxMRSFoFdyJCDHFOqF3F4u7dCZ0aJxBiVnhanN3cHWpGQNVByblGKfHheDD7sHQItlhuipdhPZwNhvJyXX0bLVuToDptx/2Wq9jXp7OqW/jz7/ffRZjSbvo8+/jT5gTTEGqU8eW7OSHUwcZT6I7FadHouSut6RLzSbDlfeNsQgsieJ09B5u/AhE6dVV/U/cR9iZ+4CGkyMdHVNCk2ujDzRVueIZpErsHE6OtphTJK9usaMfAdT/0OlVWQ9FUMTMnNaOyEXl72Z+aDdxZfbZFb+J2SYi1V6c4v1ppPUPsJunScYj6lkTyEdoe15CpIduR1t/zXbhsr1eeDy+mJB9Mq9R7N357xzASQN0Ry9MUAf4uzzE1uvtiZ4mq8YLX58vyLeWm/OH/hF/lvfjry6Hh9eXsXcHu7vz29ylv/bVzf46fzaRz/+Bg==);lineShape=1;" vertex="1" parent="31">
                    <mxGeometry x="2.131480915936322" y="1.0040026823768358" width="17.587207609328335" height="27.527993292825183" as="geometry"/>
                </mxCell>
                <mxCell id="16" value="" style="shape=stencil(7VhJbhsxEHyNrg3uy9lx/mHAcizEsQzZ2X6fmgicTLdmSvAhN9+0sMiu7uqF3MWb18e7l/0uuNe30/Hr/ufh/u1xFz/tQjg8P+5Phzd82sXbXbx5OJ72X07H78/35+8vd9PK6dO3449ph19nXPLi4oQK7vf5lyjF//3h83n90+F5uT5IaWq99xIDAWTJQQGCk9oJoEgtGpClNQJoEpKm4IaR64AuWXOIWVLeBuQgSTspJXpCTtKqAuQoiXgpV/GaQ8GZ7IQmVZtUvXgSuNwlGsD8yxag6MC1OTJbJjWnAD1w0lm8jnSHG4hJsUvQJnnnxLltRKjSmz0i1m2Av2DdkRAE0MVr0q1JToTDEP/Cq4kw8FZJLUsk+zur7ZaGhRvrnbE/0Cg7G7Pmr9jvsl7vqD3B+r826UQTyfqzIuQkl6skb9cH4k/vJGoCtUgjqvZzpi8AlTDwEECxgE5CAI2GZjlkkvsIgi0WjYoI9dAZ1flh5HoU6ugaMyBKZ7nfxF+cEIkuCiqu4ZClkgpZoQwduFIkkzjAiSYOBW4gHGCx15EuIE1qxZS62QIS6YWtS3UWUAgHFKuq4wC/ReKlXmyBBOlCIt1R8AyHSvvIokTPiLmObx2RdDOcehtjXUdgZ0CQxkiki5RLEtgJKKtarlAfK2Oo6iFbAGs8EFO/OIGpDynsLzg4IibsZ7onvMRCXSFOY5KTTkgD4HQxLm3IaytHbQZV6lZURiMNyDURt2LIaeYERJqQnuqWyaA4Wuo6oI39lgAm73DBIY1yu5WjNoEgPpbUzaoVpa+Seo+MM1MGAsdIA1BNC3K0BcGkqDlAfOzeMAH8ewColU67FZNGZYA49luMVpVpKY/95tnQjfq83rPCuFbMAB443EyMlwBgHSUi48x8G2nlw3xlOfgxca2X72Cn+snRzKSPAff/D7isan8MuLurAy68mo1XO+2FMQ0RLGSXGaDYxoO8CeRiEuuweDFCB0J6AhgOmRZtmGQn4jrcsHUN8DoOGNuvlKOgTcpuPGysA7wFJD/my/XAofhoeWOLyqRRbf6EQi/0+LsZACok01K2NRg1kw2TUwnQkU6jX2+u13HjEwn+9oYBvTSEefadCQyhbBE2PcTTSRUhyDr/Hb1MIsaGrxtj4paITAvhj0LIZROwK/sXe1d19G0uNtty/BhNtp61zJzt6c02oQXq/WeBrK9/7xvv1fX48O9B+eHw9HR+j17+bx+g8dP58Tre/gE=);lineShape=1;" vertex="1" parent="31">
                    <mxGeometry x="71.65101364512748" width="11.850133143044705" height="26.8260287464683" as="geometry"/>
                </mxCell>
                <mxCell id="17" value="" style="shape=stencil(7VnLclM5FPwab1V662jNMP+RKgJxTUiokJmBv6eF0R2rr92G1WzYOY7a0nl2H+mQ3nx+uPt0f4j+8+vL81/3/x7fvT4c0h+HGI9PD/cvx1d8OqS3h/Tm/fPL/YeX57+f3p3+/nQ3Vo5PH5//Gb/w5YQrybUwUNF/PX2TXMjfv/jztP7x+HS+PrqYlvXBu94FILhGgOpSkYBQF0CMziuAd2U1IZqLwobcXeurzdk1sQMAcT1SDi5VATBnZQU0Z0kCyuqlkp3XgLzuULrrymhzLS6AWlw0aXRYAc27FCWgrG5txXkvAxf8CoCjFSDM3JwAq/JIyNaweqmHGZlrgNpWQL0Vh7QCgvfS6mQz/bctEEsRiJTm722A6LIIdexccobsawJQXVgryOAH4VdUJAFac17sEMx5AgSXhV9DZqMrQi3cGrbk3AAItQBkl9f1pTgTYQiu7io0iB7gOQhotVmcB8Vg6/o4e8KV9eQgVIeKmZ+lta3HCeV52noe1LeJrMPundd7QQzRGa3XZZBn+M/We+H/cqkFi9Jvs6Z+cr1N2js/j8ofJOgO8IO4LgOCK409GlTNFNcphZLk5pETq82lSeaEU6nboci8AKSwK+MsvZrq7FQbwGQa5ejays2gqX6DdagVJRk4+IQkUu0ycDVy6aN3qe5Y24zrBoiz21zO1ciAgnQUxd9s1y2y3MHKDuClCgPFeKq3LnnQ4EQSVTYr5CIArBd3BRSFW3ueiugMUEXL6I3rYWga4VYwN+0wmqraAT10NXoIauFWADrRVJJKEgASVeA1pbdhdF7dWqpMjV5YDaNCimgCCFwlL9mt1OiBd+g6+UhTAaByCelNYwyMlgDMSY3dKush7Uo0ya4BAPVWEHpXJQoFQ3HwkkGt7ii0u6SOZDtONx1pjEXGAJneeTb3cxWgarryoDRIUXWN/aDkpdEooFo4Dk0JH7+XYunWFplCnWdfuGYEcRbSVRH1ZYBKpt2ICwoKqkbjrMgzkitKX6Hm10425klhNEiOJtaW5ZFAo4XmSd2YhnhZs8/85Ppr4yGpE7hBzsSZRZ9plQ7903cz8Y1hr6xxaIi0sAHCu5NgijJwofIOkGQqvSFcSQrUG4GbFxHb+k2j/R7FDr9HsZ8YxXas8z+PYkgw6r9+fnMZ0DgGQ18InyLIgQAmhWHMLD1rkv0XnYVu21D3Sg2nxHnX9CXmuAqjVtRlK8KwR1oVIqiq6bBM6t4ANh19GdB2F4BZT7id75Egd5WSBIAv2+okumtessRekheGNrvJ2UWsIn8AylpAoOasbDCOQy0yl8YO1PK6VDzDhl3PVj0vddbbI5TK6M7PBjnMG+9rgL7ukLKs6eyZONHZ1BUjDkDz52jluh6IaccdkNIjIH++rp5j+GXArqYxzCkTEjspyCsoCCSS50FOqyjouEbNO1MxqMzlXlYnkoa4TUuRvKsEffs/3p749yV1euZOL19toDyM7VUZBGVDl1tBSqkx2URa38S8hvWVXvOknP3l98ib6/Hhv8fP98fHx9Pb6fn/+bEUX50eWtPbbw==);lineShape=1;" vertex="1" parent="31">
                    <mxGeometry x="131.41515379383088" y="2.631162099365156" width="18.466497684036348" height="31.871846918785803" as="geometry"/>
                </mxCell>
                <mxCell id="18" value="" style="shape=stencil(7VnLbtwwDPyavRISqec5bf8jQDbNomkSJOnr70t3Ia9J2xPkVKDozevVSCI5Q1LyQa5e7q6fjgcOL6/Pj1+OP043r3cH+XBgPj3cHZ9Pr/p0kI8Hubp9fD5+fn789nBz/v10PY2cnr4+fp9m+HnGSaMmE4rDr/ObRKn9efHpPP7+9LAc34mLGR8DNd4HpEA1WUCHKyQmsStwpVQAIJFUA5BCMQJAodKszRkDOoVoADkR131AjsTBAIpggJDYLdU41twGZApsAY0YAQoFG+iWRij3AN3GoUfqyIbgAxdDoBAgN6I1oje4hCRq1q89DXptArhT6dbqPqbYBmRiu6WmngZbYrXBsq9FirIPiELVkqlm6nkfUKk5avBw23Ychh4XVMrAZKFmw1bD2OG2xd5DpVPu++MDdbv/okwFDgrj33n8rNed8cFpTSMGOKE0tf5XbSZg7xzOeXykBuxlSm58oAzim/z8GSfI4kWTG9SAerv78QLm14SeVwskQKDIVKoHNCSBtgoZD5Jsu7RQdj5tUMYiVCygpjHFbpmyKmjqBlSmCiWXKBKkaeahkkWiqEjH3QunakoGgVafSPaZAqVTnc9JX6WcEJXmsrfQGtJ+U+m6FdKg4zZAN2C9pOoswEudR3OwBAC59byyYW4gtgGVSvRGo8B17ZFsy1MqZVBqF3VyEQhEpt59IdQk38ASWlhdIKrALNbLRpnKgBtaiaO1WukFAxF9oq+VAuKGZrKVIFDvqaW7BG9DA25tWgksNzRtCLCh8WgcF5JDuVI173JlDbAaTis4QTTYkLRZL4v6GZGos+eSCqIALmkcXIFQyVVEvjgK2gKABNFXLb1uKSCAZsZVE4DaYdVD7d5LHQRuUlz2cUBtmwK6i3SEcVCAF5AeGtAKdSTrBb3DuwGIGkzVulXfoF5G50vWS8ou1HxenDgDNDKA3socR40+b3K7jNYhyBlQ4FksNa84JUtGp5KVHnQF1FFK8NSYjlYgCfAqt2phhRWl+Myn7UxDTa52xdZoza2IGn/jlFHA/P9PGW+eMqw///1TBvubpzdM0Bi4KxI9lmTQX6iTimv0CiSpsGfFVBPQdVul6lp6fFmQND26a5447nG2AasVLuV976RUVskLVX8FuIZbawKKtPTV4a0PR+8lYNdfTJUTUEPKqiHJFIENkvwpIxccOPb5VB0dgZ61JrClxiX22+RbGc1v0Lv6LTE+4iq9XTGPEV4ZKiDYSCfqWD+u0sroynb1ZudnXEOqd1HEHmr+iB6g2FhbvOjGo5wn0UcgwH5NSdTFj0fCSb6/C6OKbo/P/vI/wFZKGekSZMR9TvV9jqoC7acNPl74IEiV7/148eZ4fbh8Kbk93d+fP7Qs//dfVvTV+auMfPwN);lineShape=1;" vertex="1" parent="31">
                    <mxGeometry x="187.8281664048775" y="3.4149903172341283" width="17.713578314216694" height="24.008259658517325" as="geometry"/>
                </mxCell>
                <mxCell id="19" value="" style="shape=stencil(lVfLctswDPwaXTEkwQd4TtP/yEycWlPXzjhOH39fqBqqBmVt4pssYykQ2F2QAz+87Z9ed0Nwb5fz6fvu1/h82Q/8ZQhhPO535/GiTwM/Dvzwcjrvvp1P78fn+ffr0xQ5Pf04/ZxW+D3jmBxPoOD+zC9iJSf/3nyd4w/j8SreOyrZAoRK2gYER+ItIFMJACDEYgEBArgQBwNgoQoAsZBPFhBJwKZTpmqrxI5C2QbkTC4aQIhUAaBwy7gBvFB02wBxlOwefCAP9iCJpBhAoeC342smtvGOHEioFkq2z544g3ihZEuUKIP8ayVebThWCBAL0IwcAHi37PCqzQl0TT9RbI24UgViUECwX1D1BIZVYsu8FCmhspZGzAUgkKraZx96AKJqTX2VVB4JNSL2HpN8k/htAPeCjgz1WcNKn1jQE8CSVdnHwDI0pdCxL7dWbgG6lFTPKKMl4SWjj7pQbbzDRFLPi108pLaypjNVqhEy29uKqhKwOsvK8NDgqct6S4EKZpHq3wJYbRy1rFLsZqFaElKztL8XYuNJpU3IneeV5mpb4kyd1vB4vhsgavO+B0RgMOJ7NWdlEth0icS2D5nbm63hGS01slIDVEmLGOwXdJwKILceALoq6Tj1ICU9YmSrNsGep2rPNiW1HAfKOs0m69vqCBnM5/VB7Gp+3d5E3zglfAZVCsS2SMr3CizGt3yX+NzG40a86+K5cfFm/EKzpQd68gSW5Np5aInX9WF8N9dKaUT8ZLxvw/pz+eRE8Z79qtAcYkRfz6Trg/2u+qVjuQKrWPFBrwoC6nPv1eLjeH34f495GQ+H+Rp0/X9/79FX852JH/8C);lineShape=1;" vertex="1" parent="31">
                    <mxGeometry x="267.09411205525475" y="83.34118030149568" width="27.09882462264012" height="3.2710530523532864" as="geometry"/>
                </mxCell>
                <mxCell id="20" value="" style="shape=stencil(lVdJcttADHwNr6gBZj87zj9cZTlSRZFcsrL9PmBYZAhIbMc3imIPGkBjmSE+vO2fXneDhLfr5fx19/PwfN0P8dMgcjjtd5fDVZ+G+DjEh5fzZfflcv5+ep5+vz6NX45P384/xhN+TbhWSeKIkvB7esOVIv9983kCHA+nFaA2is0ARCjEbUApxNaCNKqyDciJajKAGKkDSkmoWUopUErbAD0vWQupUQKUpFAQA8iFBABipZQ9oAFKmSlWAyhMoYOwJmJLSd/kdxIXLKATh21A1/Ns4mqhCiz0StlSqp0KiFLvlNgAWqQItMQhULBOqIBRqtWE2FR3nlluOSHWQs/EGYaJHaBSR5QCiU21kiwgrq3MSlgBegUA8XJVQACpVm0kR0lTDdRXMzWrjR4pA0o1UbQF0dRpZCGROG1kyiCsSsmLSTNdAKB6HzQMjMLKc80vgEwVyFUZe0Ci1ADgpiAUgMKqUXdhVUpIGprXcuN0RvJuc+9dwor7/ahNl2nVL7KgQnAlGoiBNJRSsJS0BgNqTPmmCdS5e94HMBVX0x1SGruQLdFVq7qP0MwlbyKhCuqzElZOFBDXDwPKouZVrywg1TmSWK81Dh1YiN13Mg0DKmpZZtpKrqhtMHv11TgvLPctUHdjtEBp3AygnOHI0rFfzPe6rQjQBScqdpmJCW4/GqJuY6o2BW0/SslpVZUHXEjF71e82Lyvi5sZqmlB5aObiFNehvuYisCtiDxPvPvFFnyr1xkMdKqqDNl9D4tZG0zx56M+X33xK388F9iWssx9f2vFcC31nQapdV5c/OEUEWKriIb7qX5vz+cAq2YkZOueBXZH9Tg7CwlKSEMabEhZxxRYFz58U/oPgD78u5i9HI7H6V63/t9f5PTVdAmMj38A);lineShape=1;" vertex="1" parent="31">
                    <mxGeometry x="262.1504815991193" y="79.22201181682124" width="12.286096695062998" height="12.403931905371396" as="geometry"/>
                </mxCell>
                <mxCell id="21" value="" style="shape=stencil(lVfRchshDPyae9UA4gA9p+l/ZCZO7alrZxy3Tf6+ut5wscC3dt7OWIuQdiXEwA9v26fXzRDc2/l0/Ln5u3s+bwf+NoSwO2w3p91ZvwZ+HPjh5Xja/Dgdfx+e59+vT5Pl9PXr+Gfa4X3GMSWeQMF9zAshkfP/V77P9vvd4cLeewrRAjLFCACJQmk9hLQOCJ6SWMBIUQAgdzGM9ZBXAcyUOw+B1wHRkUstgAMAJPK+8+DWAaOnEiwg1pXrgEyeW0AAxKVArgEwJC4lSg3TnmJZB+RIyQbtsZaK7meP5F3N23VAptHyEImBvSwsVXslErAgqRMGPI8U8nb/QhntL+Tt+b2QA9JWQLEpZT0RAHi3RLikSHkEQlIX2QKSowJo1qDFBpFVSBkAMhUrpMLkkIdE0XooN/IaSWyPKRoVKGhhGq3ySsJHChSsMvLC/XWAJ7YxTPWEqNasW8AYSG4AbFq5wILWIzUxaPmMOGifrVxD9bmWVrYeIuwYEtuu54hHKAz2jX1BKcqdtsmh85eWA69tG0lbKI02pbk2wTWANBnylMFtOHWARhZ6faIcSf17iVlq11wLugEUV4WyxoI09ZzhbahtOFodaXkK7tuxq2cE0P4QrJBUu6gW9OppeFCfHnSMPJKzWZIM06rlXhqA8gCy1F/QF838zhlgIh8E0U8ZSn5Cg083x3yq5c5JSXCf7GexyQOgup/2JgDIUj9PKnMCmOsnVgV40Mb6mVjw4NMN3YJn6FBbxMX+EYSs4m72Z9hXfc34xX0bgb2rE8ViH2C8rt1fR0UGHaabYbSYHJBpZ6+VEb9ynii1uu+LNy6T63355Aiv8o4v1jkYSbrVgxYFute++si7ba8fny/Kl91+Pz9IL/9vX6C6NL9e+fEf);lineShape=1;" vertex="1" parent="31">
                    <mxGeometry x="250.6454456038657" y="137.6532953966646" width="28.182587666465107" height="2.8876162675184482" as="geometry"/>
                </mxCell>
                <mxCell id="22" value="" style="shape=stencil(lVfZctswDPwavWJ4gSSe0/Q/MhOn9tS1M47T4+8L1UPFgK2d5s2WuCJ3sTg45Ye37dPrZkrh7Xw6ft/82j2ft1P+MqW0O2w3p91Zf035ccoPL8fT5tvp+H54vvx/fZpXzr9+HH/OX/h9wTFTiTMqhT+XJzFRzP+efL0A9rvDFaA0Cs0CKnUAyJVqMYCUKdd1QOqUHUCfBAAIFLoB5EwcAYCp2x1KIGmAQyJmC9BPAA76Pc4GwJEyklU8B1ZZ0zqAOwUxgJqoAtK1UrNHqo2krANaoW53aJmirAN6JLFeam3odhcgjaKVtTdK4EjSqVmVeoccRKhVA5BIAR1JSCxpUbdiQLFeEqYK3KocojuSqgS8JHW4fwGoWYCXpAyKV4COOESforMMANCFcvIAlKIaV5fTSlo6ALD3ksoQQT4oINq6pIETDEhuhwgTqFcKFqAyFBAHJc02cPoE7iCjbC2AOnRbC1x3CcTD8GvWSNUDkEqqeun+SB3b27lVUzSjHZS081KAgBi03ruE0PoMzDRXAQfQ2gbqvZKoLkcrTIj5tZVp/gQI9XwAW431kBVFLvk6c6XDfUTwnXqWGtXvNjhekSgoST8L0JYSLAm1fACBqDe69gJ1ZaHoepDqCkhz8D1ID8ngSPOoYM1UhRIaHrSsuMZbYP1OibrloM2+oYxgz4HzqOj3OfgWVAqsMzcJpwNWBNZTBd0EV6iB9IlxxGgBBBg1fS0uGxhOoelmvtI9GxrIbnzB0HhFnW8pLD5ZG/jEr0cu4qU5faxH2a8OSOzWR5Q4xZsuwDFGx1PXPiMVNK+2MfQvIYazoVo+Wn0y1JNvSvZys1lb36w+FQ4kur7YLO6jb63xbW7igR1E9WxOzzgmmvuAz97c/gOgPz4uii+7/f5yz7x+7y+W+uhyKc2PfwE=);lineShape=1;" vertex="1" parent="31">
                    <mxGeometry x="252.91678305693927" y="131.41686474092091" width="16.552081982063566" height="17.294702561552747" as="geometry"/>
                </mxCell>
                <mxCell id="23" value="" style="shape=stencil(lVfZbuMwDPwavxK6qOO52/5HgaYbY7NJkabX3y+9hpRQiabom+NwxGs4lCd/97p9fNlMzryejoc/m4/56bSd/K/JuXm/3RznkzxN/n7yd8+H4+b38fC2f1p/vzwulsvT38P7csLnimPKcQE587W+MGTM/xcPq/lu3l+Y20TFKPtCPoztvRxnlb2cYBkAxEHQAPFQxoAQKXsFcI5CHAOYqeiUz0W4CYiBktOATCaPAclR0kWSKjHwkD252HsIoA0lkO08JIoeACTpchUS6EOR87ICeCaDALn3EDxxAoBCWefAgRzinmncrIgonQPsExesk0iJHIopE+sksgAA+6RMVrNPWpNRmZg8a0Ahi0LyFEIPSIB9xVLsRjRibkhZNb+XN6CsOfeikQ0lCwFOJx1LDXII0B64Cc8wpKTZJ7oAQlpS1I0T5WE0clJWXSXRtoI67asMXcwoZKtQQ7NVVACG1KS0heQw+TJFrcbBUECA0s8DCwDMw60ZtVQQ+4TN2kX6RjdEaHSZsqghGgiRMt2I4igiDyKWmkzi06IcQt0HbWkZvEd/jpAd0Un+0k2QhWwh1wHaIhvtOas7cZaS0SbtxnqZW9AJmclOLSWrAnKQmXSasKlA/slWc1otU4BssrGyswGkDwAg8q5lQMpWQES+bv5m7+FGkcuLzpjbnrydAAUdP+Mum0qaJgG5bqSBfUeKYOE94Gr+fbvcjM7vrm9cMxrYs+aczfWKOahPt0mshedfTU2EdPDku/DrTAzYw7r6rby3J+xnt/NvzeXh/CHwPO9263fE5f/9h4O8Wj86/P0/);lineShape=1;" vertex="1" parent="31">
                    <mxGeometry x="259.5054430831997" y="199.95321893643825" width="19.212730465278817" height="3.1412539497071124" as="geometry"/>
                </mxCell>
                <mxCell id="24" value="" style="shape=stencil(lVfLctswDPwaXTF8Ezyn6X9kJk6tqWtnHPf194WqIWtC4qa5KTI3ABaLhTj5h7fj0+thcubtdr18Pfycn2/HyX+anJvPx8N1vsnT5B8n//ByuR6+XC/fz8/r369Py8nl6dvlx/Iffq04jpR4QTnze31jEwX/983nFXCaz3eA7KjEDuAsRR4DIlNMPYApuTEgBGLTAXykYMcAb6j0NQRJyYwBlqnkHpApZBAhUu5TClzf7BdtNUBoMGUMSEzedYCUIa3FUez7kAssukgNpQOwJQf6UJhcH4F97cw+oFBSEVIlegRQWiqGPGBJAMb2AE8ZSKOkTYSEaQ2bCLjTknHoxSdJchgDhJMcNgBQtLBus06JIwAYskkXzYClzJuihQZQdBZaVQQD+5Az2X4eOJMDRUtKoWeJJSXQOCma+xpE3sjIhNbSq1UGCPmSZJx8D5A+gAjFkk86ggWNE9ZzryWpKgItlVx/bgBHnOAAeQWIxGBErTFVCQ1Rqi+MQgQ1co4SLiIrQKxGMnIysxkIZK5l48aSJHIBabXaKHc87COC9u+FajARHwakoNUkjchAfrKijOp1W5TDPar0ikfIxjowbWk5vKkp9uejJw+0tNGelzWJ1Gr1TLtca9oFSEaKoyVH0Gf5ErBKGQzdO7Rt0ACyuQGpKVZKGqnVnYfm3ZNqoCyW7cDqvEW257QTvzsJKanzHs1aquk2gsih/Lk2qLWsqmr/fNuu7dsNm7AsEqf5R/bVvqLamMFFJeeN9pb3Egp9waIgixgqlcAGkF2HWpb1HMtkozn78K3hPwDy8O+S8jKfTusd5/53famRV+uFyD/+AQ==);lineShape=1;" vertex="1" parent="31">
                    <mxGeometry x="257.03111495463077" y="194.91832061170646" width="12.09452886753612" height="13.19569955145781" as="geometry"/>
                </mxCell>
                <mxCell id="25" value="" style="shape=stencil(rVfLbhsxDPyavRISqec5Tf8jQJzaqGsHjtsmf19uF3KspXe6BnpbyxyJj+GIGuThbfv0uhnYvZ1Px++b37vn83aQLwPz7rDdnHZn/RrkcZCHl+Np8+10/Hl4nn6/Po2W49eP469xh/cJF8jxCGL3MS14RyX8Xfk62e93hyt770kMIAMAO/KpBzBJBYBE2fcADwESSOIcEN0yILBxyVNOAFDb39eAuAyIiWqZAwJwKQmFPE9rFAAoVEMHqMR+2T4n8n3ddCEv2xem0jvEsMw1NNo0e0cOBFwThTrbPzGwz1RNghgdUOcBs28pWwKUHiCJEiiBd5cQGyJy4+7SEalPkpYxIkCh3PNI6yKgbJqm2LtUGfZzjVT75tEzC4haC829SxoVDFoL21dOz5QCAJ64p0ZJJKjUbu5S1nYCLpXauHwpXCEHXLKAoGS6yyXtt4gKZ4L2Qgmonk1rwA1k6ubaiSuJ4aFgjMzrZTs3lV1JbZ9bd6xsHsEyf6M/QybB/TmTANVldPVYkclKJJylmYwptQpyyeikbgFdMkJ8lYf/hLCXgzrFoNj29qkCVebG9aZjBgjbXqCa2AAqYa/oUiihqcEMAQpgMATYMWMEAIbbQUYBiOF2VBpjAGyyw1jJEGDHPU0rqrSZJ9UeyYCQMyE7IGOa054XJTQdvB0AifQNWqEEuCa6F3uGNVMR7fdXIhZwk9iRIVAG8VoJi03H1/mjQ4y/J16VbTQKm3x+7rCuXj62HdbxQRlYQbz3vl/+ba8fn4+ll91+P721rv+fP650aXqYyeMf);lineShape=1;" vertex="1" parent="31">
                    <mxGeometry x="258.05772222066366" y="266.64646583713227" width="24.80401722767102" height="2.56278871919676" as="geometry"/>
                </mxCell>
                <mxCell id="26" value="" style="shape=stencil(lVfLbhsxDPwaXwlJ1IM6p+l/BIhTG3XtwHH6+PtysZBjcr3T5rZe70gUZ8ihNvzwtnt63W5SeLucT9+3v/bPl92Gv2xS2h932/P+ok8bftzww8vpvP12Pr0fn+ffr0/Tl9PTj9PPaYXfM04KcZpQKfyZ38RMeX7zdQYc9scbQK1UogGkQDWvA0olEQvIJGUdkIVSsAChVtcBnKh1A+BCHYSUIkk2gBwooh2YUrOAQqGDM9Sx3gAUXQKktQh1C6iBegQ8dOo2pNqIZR3QZAQwAC1SBzz0PJI4ABIpIUCj4gBMDLLUOyVLnFRK4NAxBApWG9IpA4RuUS2gJ6qA6i4U7SF6oQqY07+bJULz0AERGkCzRGiQGaRJj8g2pJs83EcUr6ZpC0CdJM+1HkJQTGGR10IFhNQ6xe6JKCCvqldXpJqHBJhrC6pVTaGBM8Shzhu9JgTIFCxzukREgLaouY61ce2lNwBhAOBFkQZqCFBHL70ClAdUpMqDbfiqLlSkKjXX8EWGyawCnFrjv0JqTq2ZKgJUn1aVd0I8sLcUDTICeStxWTwAdVeVRliUaEMA9mnVNBTAwwTonwGogWTHtMCQ1LTEtj7ds4ASnaydrbw1DSAkNfJoa1p9LyBrZwo2SzUOk7lvKZGaPXTJxIBp7ZQ2otxgL144Flc4a1TKNqc6/TD4Pi60rfNVAznVHdwwo/NQR6wlP5BFtUSkC+2KloSYxpv7Z9ZO7IQEG7E2xWJ1FLCDxpHCj+8DaJKTDxT/PfZbJ9MApxI1puYSBKdDWcxuiTKKp/upnkelrnWv4IqACpr0gpdQGyPK6vpuRqKI8q/TiuU3BmiDk8MsFMcIUIcPXwEMj/zpi9J/APTh4172sj8c5mvd7f/+Hqev5jsgP/4F);lineShape=1;" vertex="1" parent="31">
                    <mxGeometry x="255.07704250149914" y="260.45244102414597" width="13.783855100808255" height="14.433967541140774" as="geometry"/>
                </mxCell>
                <mxCell id="32" value="x" style="group" vertex="1" connectable="0" parent="1">
                    <mxGeometry x="50" y="719.9967827319552" width="294.19293667789486" height="285.64321726804474" as="geometry"/>
                </mxCell>
                <mxCell id="33" value="" style="shape=image;verticalLabelPosition=bottom;labelBackgroundColor=default;verticalAlign=top;aspect=fixed;imageAspect=0;image=data:image/jpeg,/9j/4AAQSkZJRgABAQAAAQABAAD/2wBDAAMCAgICAgMCAgIDAwMDBAYEBAQEBAgGBgUGCQgKCgkICQkKDA8MCgsOCwkJDRENDg8QEBEQCgwSExIQEw8QEBD/2wBDAQMDAwQDBAgEBAgQCwkLEBAQEBAQEBAQEBAQEBAQEBAQEBAQEBAQEBAQEBAQEBAQEBAQEBAQEBAQEBAQEBAQEBD/wAARCAG7AbsDASIAAhEBAxEB/8QAHQABAQACAwEBAQAAAAAAAAAAAAcFBgMECAkBAv/EAFcQAAAEBAICCgsMCAUDBAMAAAABAgMEBQYHCBEhURIYOFaVl7S10tUTFRciMUFxd5az0RQWN1NUVVdhdpSxsgkZMkJYddPUIzZ0gcQzNcMkYpGhUnOS/8QAGwEBAAIDAQEAAAAAAAAAAAAAAAUGAgQHAwH/xABHEQACAQMBBAMLCQUIAgMAAAAAAQIDBBEhBRIxQRNRkQYUNFJUYXFygbHRFSIyNZKh0uHwFlOiweIjJEJic4KTskTCo/Hy/9oADAMBAAIRAxEAPwD6pgA1G7lXTKgbYVTWsnYhno6SSqIjoduJSpTSnG0GoiWSVJM05lpyMj+sZ04OpNQjxbwYVakaMJVJcEm+w804r8bEZbaoUW/tI/ARU4gXDOcRzzZPsw6stEOgs8jcI/2zP9nIk+HZbGAfrBMRfzlIuC0+0VCTzOczGnJVWFe0FhUo1VSMHMICGn8hUiLiYdR5k+aSWeSVZ5kZnmeenIdjtnS/yvBjwG50hd7alZW1NUpUFNri+OXz1wzm13X2jd1nWhcuCfCK0wuWmU+HXxJP+sExF/OUi4LT7Q/WCYi/nKRcFp9orHbOl/leDHgNzpB2zpf5Xgx4Dc6Q982Pkq7PyNXd2l5bLt/qJP8ArBMRfzlIuC0+0UKymJ7FTeepnpZBTynZXJZUycdPJ1EypPueWwiczUtR7IiNZkStijMjVkZ5klKlJzC2pnNYCOdt7ROEmtJnAQ64tUok8iUuNdZQWazaQpZbMy0aM/HrMiOfXzuJMJthXt3HyGQSCj4WtZlNXp1LKal6YCDilwrxNNGpBGaj71CTPNR5mRH+6kidHa3GKdK3jFyeMvDxo3nGM8E8csn3pr213q1e6nKMVvYWVvaqON7LXGSzzSPfVqbkSG69HM1jTLkS7LXYmIhWH4hBIXEEy4ps3diRFsSUaTURZEeRlmRHoLcB57wG7minv9XMOVOD0IKRfUY291UpQ4RbS9jOj7MrzurKlXqcZRTfpayAABqm8AAAAAAAH4ZkRGZnkRDwpiMx8T6R1qulrJREtel8qNTUbM32CiERb+ekmdOXY05ZbL9488tBEavSuKC5E4tRZmc1lI5VKplEsuQ8KcLM2FvQzrbzqW1pWhKkmojSo9GeWvPwDzetqNkrMKzX9I4RaQm8RDtxS5PNJEpMXDIWWaSdSlZklRlpyIz8WkWDY1tSX94rw31qks81jLxrnGV5iq90N5Xb70tajg8Jt45NvCzlJZw/O8ekkf6wTEX85SLgtPtD9YJiL+cpFwWn2isds6X+V4MeA3OkHbOl/leDHgNzpCw5sfJV2fkVPd2l5bLt/qJP+sExF/OUi4LT7Q/WCYi/nKRcFp9orHbOl/leDHgNzpDpVLHziXUjNayou22FSuISQNe6JqxIKfN6JhGPjlNqcIzQWkzPxERnpyPL6nYtpd7R169Pej41tKKcu/JPGumXw8ylk71i8S+Ie46plWlaVNI5Bb2liJ6ezhUpTmrwGULDlp2by8yLQR7ElJMyM1ISv2ZQlXQVfUbJq1lsM9Dwk7g245hp7LsiG3CzSSssyzyMs8jPymPnJi/q+YRlI2nkUrgpdIZBNqShakdkcmhUwkAiOiTUpxaWk/WZ5ZmeWajzzUoz94YbPgAt99noL1RCD21a0428LqEFHebSS5JZ49bb7OC63Ze529rSu52VSbnuxTcpPi3jguSSfpby3ySpIAArJcgAAAAAAAAAAAAAAAnWG+oJzVmHi11U1HMXY+bTmi5JMI+LePNcREPQLK3HFZeNSlKM/rMUUSrCduWLN+b+nubmABVQAAAAAAAAAAAAAAAAAAAAAB+GeRGeoh+j+HTyaWepJgCe4cJ/Oarw82uqio5i7HzacUZJI+Pi3jzciIh2BZW44rLxqUpRn9ZiiiWYUyywu2eLVQNPc3MCpgAAAAAAAACbYk/gAuD9no31RikibYk/gAuD9no31RjZs/CafrL3mpf+CVfVl7mfOnGOpXdOkrWyPYNUjJkNpz0IT7nzyIvEWZmeX1iEC7Yx/hRlP2Tk3JyEJHV9m+B0/Qjhm2PD6vrMAADdI0reEx55jEbQa2XVtqOaEgzSoyM0qbWlRaPEZGZGXjIzFCxHIQ3h5ti22kkpTUVWklJFkREUyc0EJ1hR3RdBfzZH5VCjYkdz5bL7SVbzk4IK7+sqXs91Qs1j9T1/93/aietMBu5op7/VzDlTg9CDz3gN3NFPf6uYcqcHoQc+2r4dW9aXvOrbE+rbf1I+5AAAaBKAAAAAAABF8W6UrtASFpJSVVBJCMjLMjLtgyPnXixccdxGV4pxalmU1NJGo8zyJCSIvIRERf7D6K4tfghT9oZJzgyPnRiu3Rde/wA2X+VIvHcrw+3/AOhzXu44v/Z7qhJwABdTnIF3wbrWVzJ4wSz7HEUhOW3UZ964jsGexUXjLMiPI/GRCEC7YOPhRm32TnPJzGjtPwOp6GSWx/D6PrI7eK3/AC/ZPzaSn8FD6GYbPgAt99noL1RD554rf8v2T82kp/BQ+hmGz4ALffZ6C9UQqG3Pq2j60vey/dzX1xcepH3RKSAAKedAAAAAAAAAAAAAAAACVYTtyxZvzf09zcwKqJVhO3LFm/N/T3NzAAqoAAAAAAAAAAAAAAAAAAAAAA44g8od09SFfgOQcMYeUI+eptX4ACaYViywwWgLVQVP83sCoiX4Wiywx2iLVQcg5vYFQAAAAAAAAAE2xJ/ABcH7PRvqjHBF4crfRsU9GPVDdBLj7inVkzdOp2kEajzMkoRMCSgtOhKSIiLQREQnFy6Wt7TVM3HtxQ05reeVZEUTGxL8vmFYzqfE0yo0JbImYyKeSh1alEadgkl7Ej05KLZbVlFyuINLg036Mo0tozjC1qKT4pped4eh42xj/CjKfsnJuTkISPV7p0zdKm6eZvxYu8TFS07Lm5QU4paWEZzCGa0M9nREoyJZEZkaizMzLPPIySnpdyPDf9GOKHgWA6A6Ta3sbWjGjOLzHTTDXpWvM4/e7Nne3ErinJYlrrlNZ5NY5Hl0B6i7keG/6McUPAsB0A7keG/6McUPAsB0BsfKtLxZdi+Jq/Ilfx49r+BNcKO6LoL+bI/KoUbEjufLZfaSrecnBmKeh7c2fjirK0OH69E9q2GSspa9V0tSiEgHFINPZiRCpzdURKPvVaPGRpPSNni7YQdR4a7YVFe+bRNNSSmY2fTCfoiGTZmEU4/GrU1DMNKIj7I6ZGZHkREnNXgEXc3UZXVO5aaiml5292pwSy+aXpJm0spxsatmmnJpvOu6lvUuLaS5NvqRdcBu5op7/VzDlTg9CD5xzvGDZuaQsslMHaSu5PLZJDe4oCFp+5E1kTKWSUZka2oB1pC1nnma17JWn9oxWbIIt/d6Ut1NNpRdek5FGxqZXKoyNvVVLq5nGmZ5tMNFGEaiSSV7JeeRGkyLPYr2FU2ns28VWpdVKe7GTb4rm+GjLzsbbGz3RpWNKrvSjFLRSxosZ1Wi9J7DASra0263x3V42Kq6xDa0263x3V42Kq6xEGWUqoCVbWm3W+O6vGxVXWIbWm3W+O6vGxVXWIAqoCVbWm3W+O6vGxVXWIbWm3W+O6vGxVXWIAxuLX4IU/aGSc4Mj50Yrt0XXv8ANl/lSPYN+5NTMNaC4lD2bmNaVFPpFMZI5Hpiqkm1Quw8R7o2aUMnGPvqbUgkGpZN5Fnsdlmae9j9UQ1tLwzBFa3ZsLe6S1bFMNImq6UlbaoONfQgkG9sYlGaDMkpPItZ5moy2R3Xufk7Smqk0/8AEuWdVBp4fJo5z3Vwjf1nSpSWcRabzh4dSLWUmspvgzyMA9RdyPDf9GOKHgWA6AdyPDf9GOKHgWA6As3yrS8WXYviU75Er+PHtfwPLou2Dj4UZt9k5zycxtncjw3/AEY4oeBYDoDuNO0/aqSThFgrB3aiKjnsA9K1zurZYZrgId0iJwmGYdGwUoyLQpWRkess0nr3V7G6oyo04vMtNcJe3U2rLZs7K4hcVZLEXnTLbxySxxfZ1mpYrf8AL9k/NpKfwUPoZhs+AC332egvVEPLFzrfULJ6StPdK+DzjUjpqhJVLmqbTmiPm8ySjZHDGg8jbbQRpNxR5ZZ5aDMalUmMa1NUTEplGWxuNL1IZbh24aR3UnMng2220klCUQsE80wjIiL9lBGfjzFfvqNfadpTo2sHLdcsvRLi9Fnj7C07NuLbY1/VuL6oob8YpLDbxhavCePNnV8eHH6OgPLFm6VoK58klc6qCEurSJ1GTjkhg4q89UvxUxh207JyIJso1OwaIjTkoz77MjyIlINdS2tNut8d1eNiqusRUa1GdCbp1Fhr9ci/W9xTuqaq0nlP0r7nrw19GpVQEq2tNut8d1eNiqusQ2tNut8d1eNiqusR5HsVUBKtrTbrfHdXjYqrrENrTbrfHdXjYqrrEAVUBKtrTbrfHdXjYqrrENrTbrfHdXjYqrrEAVUBKtrTbrfHdXjYqrrENrTbrfHdXjYqrrEAVUSrCduWLN+b+nubmA2tNut8d1eNiqusRNMMmHyg51httROYyf3KbiI+h5FEuohLm1JCsJWuAZUom2WY9LTSMzPJDaUoSWRJIiIiAHqABKtrTbrfHdXjYqrrENrTbrfHdXjYqrrEAVUBKtrTbrfHdXjYqrrENrTbrfHdXjYqrrEAVUBKtrTbrfHdXjYqrrENrTbrfHdXjYqrrEAVUBKtrTbrfHdXjYqrrENrTbrfHdXjYqrrEAVUBKtrTbrfHdXjYqrrENrTbrfHdXjYqrrEAVUBKtrTbrfHdXjYqrrENrTbrfHdXjYqrrEAVUdeYHlARJ6mV/lMTLa0263x3V42Kq6xHXmOGy3bcviXCqO6maWVmWd16pMv2T8RzDSAO/hdLLDPaQtVCyDm9kU4eZ8OuHmgpvh9tjNYuf3LbfjaNksQ6iFudUsMyla4JlRk2y1HpbaRmehCEpSksiSREREKHtabdb47q8bFVdYgCqgJVtabdb47q8bFVdYhtabdb47q8bFVdYgCqgJVtabdb47q8bFVdYinwkM3BQrMGyp1TbDaWkG88t1ZkksiNS1malno0qUZmZ6TMzAE9vpXFf0dRzxWtoWYVLU0aRtQaWWNkxCZlpedUeRHsfEgjzUeWeRZmPnnLbS405NU8wrSUU5W8FPZqazjo+HiOxvRGzUSlEtSVaSzIjy8GgtRDb8dlf13Tt/ouW0/Ws+lkImVwayh4OZPMtko0nmexQoizMeeu65db6Tqs4aiemOhbF2bVoWinT3HvpN5Tb9HHgco7o9r0Lm+lTq766NtLdkks9fDOWXbtL+kK+OuT9/V0w7S/pCvjrk/f1dMQnuuXW+k6rOGonph3XLrfSdVnDUT0xJ95V/FpfZfxIX5RtvHrfbXwLt2l/SFfHXJ+/q6Ydpf0hXx1yfv6umIT3XLrfSdVnDUT0xywt0ruxsUzBQtyqsW9EOJabT27iC2SlHkRZmvItJh3lWX+Gl9l/E+raNu9FOt9tfAuPaX9IV8dcn7+rpjXawtFjRuCzDw1b03W88ZhFGthuOiDeQ2oyyNSUqXkR5aMx3+41jq+TV/6Qn/AFw7jWOr5NX/AKQn/XGtCrCm96FSin+v8xuToTqx3J0rhrqb/pOvbzCrOZLExlbYi4CLo+h6ebKKjTfUlMRMV595CsER57JZlkZlp05FpMjLN0Demb3kxW28dbgUSempNMUQcgkUNkmHl8KlsyIiSnJOzMklslZeIiLJKSIuvPJlV0dgzqCFracTGYTSW3MTAuqjoxUSto24IiU2S1KVoJWy8B5ZmZl4R6JwQ4XitzJmrq11LtjVE2Y/9BCvI76WQqy8Jkf7LzhHp8aU97oM1kNW9u40qFWvdtOesIpcNVq126vq0Xn3dnWE61zRtbGLjD5tSbfHR6JtY4Y0XXq+GnrMAAc9OrgAAABEsTdb3ik1LqpmyNDTiaz2ZoUh2aQ7P+FLmjLI1IUoyJTp597lmSdJnpyI7aPlLieuXcaUX+reWyqv6kgoSHmikMw8PNX22207FOhKUqIiL6iE1sKxd9c8vmrOHnD7Cud0+01s2zzr897uYtJrTOmUzkpS0WNKhXY16jqcrmTrmSycjDg4k2/dCyMzJS8l98ZbJWk9Ok9Y2LtL+kK+OuT9/V0xCe65db6Tqs4aiemHdcut9J1WcNRPTF9laXM3vSVNv1X8Tl8L60px3YSqpeaa+Bdu0v6Qr465P39XTDtL+kK+OuT9/V0xCe65db6Tqs4aiemHdcut9J1WcNRPTGPeVfxaX2X8TL5RtvHrfbXwLt2l/SFfHXJ+/q6Ydpf0hXx1yfv6umI3TldXwq2eQVNU7X9XRszmLxMQsOmePpU64fgSRqcIsz+sxUe41jq+TV/6Qn/XHhVp9A8VXRi/Ose9mzQq98reoq4kl1Sz7omHq+x+MGv4tiPrej6ynkRDNm0y5HvdmNpBnmaU7JZ5EZ6dAzlvrAQVpJfFXgxNyRyAlMmdJEppp9SPdE9jstkls05n/gloNWZZGWefekZK4HrQY5IZlyIiGq8baaSa1rVURklKSLMzM+z6CIhy3bjKiq/C9Y92Ni5jOpvMJnPWErecXERD6ziyQhBGZmpR/spIvIRD461SooUYVIbknh7nFLDfW8Zxj3GUbejSdS5nSqb8Y7y6Tg3vRjwwm8byeOGmHobphSupVl48XhVlVcTsnXZTHNw0K2Z9ggocklsGWk/upTn5TMzM8zMzH0REAwj4a4OxVH9tZ7DtO1lO2kqmL2hXuRvwphWzLxEeRrMv2laySkX8UnbdzQubr+7r5kUor2dXmOj9zdnc2ll/e3mpNuT69ccfP/8AQAAEQT4AAAAAAAAAAAEqwnblizfm/p7m5gVUSrCduWLN+b+nubmABVQAAAAAAAAAAAAAAAAAAAAAB1JueUqjT1Q7n5THbHSnR5SaPPVDO/kMAaDhkLLDbagtVDyLkDIpYm2GgssONqi1UTIuQMikgAAAAAAAA8bYocGlzb23Zfrql5/TEHLnYKGhuxx8TEIeJTZGSj2KGVpy06O+/wDgedJxaHCzT82jJFMsSk0XFy99cLEKh6Ueca7IgzSrYLSsyUWZHkZGZH4jMfQjENNavhLazCT2+mcogainKDg4V+YzFuDSw0osnXkKWZZrSk8iy0kpaVeIfOracXS3w0L6TQ3tF42Jezq26VxX3Ix0ilu5eObyn+snNe6TZ1OjdOVrbdJKXzpN72FnksNe32H73OMJn8SM99D3+kHc4wmfxIz30Pf6Q/NpxdLfDQvpNDe0NpxdLfDQvpNDe0TXT0PK3/B+Erve115DHsqfjP3ucYTP4kZ76Hv9If01b3Cgw6h5nErP23G1EpC00g+SkqLSRkZL0GP42nF0t8NC+k0N7Q2nF0t8NC+k0N7Q6eh5W/4Pwjva68hj2VPxmT97+HH+LGr/AEai/wCoN7tphoou9UNN+5ZiOqiYvypojWuLkkRDQ6XVkrsaFLU54zSeexIzIiM8vAJknBtdNaiQif0MpSjyIiqWHMzP/wCR78sNY6ItBIJHTMPG9hhJRDriJh2E9M2mr6SJ15Z/FNI/w206DPSai7xJqi9qX9O0o5t67lN8PoNe3EfZ9/Im9i7Lq31fdurVRguOs09erM/b7McWjVcPOFqNoO3yqSu89KZ5EM1b76YcoJ915hbqYdDbZu9lbQajJZKXllkZkkzM9JD0cACk3N1Vu6jqVXq+w6NZ2VGwpKlRWi08/tYAAGubYAAAAeFbyYFriXAu9Udw36ypSVU3NJgca869EPnEw0KRFs1mjsRNmokko8jcItai8I91CD4vG65qW3yrc2+m8hgIqensZo7MZs1BrTAl4UIJZkZ9kUWxMy0bFKy/eErsi6rW1wlRko72jb5LrITb9lb3do5XEHLc1SWjb4Jfr0nhhdtsJiFqSWJOdq2JmWZUe/kf1l3w/O5xhM/iRnvoe/0h+bTi6W+GhfSaG9obTi6W+GhfSaG9ovvT0PK3/B+E5d3tc+Qx7Kn4z97nGEz+JGe+h7/SDucYTP4kZ76Hv9Ifm04ulvhoX0mhvaG04ulvhoX0mhvaHT0PK3/B+Ed7XXkMeyp+M5YagsKsG+mJg8TNQsPIz2LjdIxCVFmWR5GS8y0GY73vfw4/xY1f6NRf9QYzacXS3w0L6TQ3tHaleCq6kzmULLkVDRJHEvIazbqBh1RZmRGZISeyUZeHItJjGVa24u6f8H4TKNC84Rsl/wDJ+MpdF4TIC79GzGprO4gp7M1Qr3uZhc1lkTAwzr5bE1JNZrUvIkq0qShWRmRax6hsTh6ZoCgaElFfNy6Z1BQ65m5Buwji3IVtyLiFL7InZoSo1kjJJGZFkZqyz0GW1Wqtmi3EFDySWvuQ8jk0CiVSuAIy7/JWzfjXjL9p55zTkWhKSLwGtSSoIpG0NrV7jNKM8wzlaJPg1q0lybydI2VsK2tEq8qeKmMNZbXFPKTb5pY15ZAAAhixAAAAAAAAAAAAAAABKsJ25Ys35v6e5uYFVEqwnblizfm/p7m5gAVUAAAAAAAAAAAAAAAAAAAAAAdCfHlI5ieqEe/IY74x9QnlIJmeqDe/IYA0jDWWWHS1haqKkfIWRRxOcN5ZYd7XFqouSchZFGAAAAAAAAB0JpIJFPOxdupLATDsGy7F7qhkO7DPLPY7IjyzyLPLUQ6HvBoXeXIeDmeiM8AzVScVhMwdKEnlpdhgfeDQu8uQ8HM9EPeDQu8uQ8HM9EZ4B96WfjPtMehp+KuwwPvBoXeXIeDmeiNFsLAU9cGxluq+qOjqcXNqlpOUTiPUzKmUIVEREG064aU7HvS2S1ZF4iFYEqwnblizfm/p7m5gOln4z7R0NPxV2G8JoOh0KJaKMkSVJPMjKXMkZH//ACM6ADGUpS+k8mcYRh9FYAAAxMgAAAAAAADGTOmKbnT6YqcU9LI95CCbS5EwjbqiSRmZJI1EZ5ZmZ5fWYyYD6pOLyj5KKksSWTA+8Ghd5ch4OZ6Ie8Ghd5ch4OZ6IzwDPpZ+M+08+hp+KuwwPvBoXeXIeDmeiJ1iQkNPUnh4ujVNOU3J4CbSai53MICLZlzJLh4hmBeW24nNPhSpKTL6yFjEqxY7li8nm/qHm58Oln4z7R0NPxV2G7+8Ghd5ch4OZ6I5Yai6OgohuLg6TkzD7KiW261ANJWhReAyMk5kf1jMgPnSTfNn1Uaa/wAK7AAAMD0AAAAAAAAAAAAAAAAAAAJVhO3LFm/N/T3NzAqolWE7csWb839Pc3MACqgAAAAAAAAAAAAAAAAAAAAADG1KeVOTU9UE/wCrMZIYuqDypmbnqgIj1agBp+HMssPdsC1UZJOQsiiCe4diyw/WyLVR0l5E0KEAAAAAAAAAAAAAAAACVYTtyxZvzf09zcwKqJVhO3LFm/N/T3NzAAqoAAAAAAAAAAAAAAAAAAAAAAlWLHcsXk839Q83PiqiVYsdyxeTzf1Dzc+AKqAAAAAAAAAAAAAAAAAAAAAAAAAAlWE7csWb839Pc3MCqiVYTtyxZvzf09zcwAKqAAAAAAAAAAAAAAAAAAAAAAMVVh5UtOT1S+I9WoZUYirzypKdnql0T6pQA1bD0WVgbaFqo+TciaFAGgYfSysLbYtVISbkTQ38AAAAAAAAAAAAAAAAEqwnblizfm/p7m5gVUSrCduWLN+b+nubmABVQAAAAAAAAAAAAAAAAAAAAABKsWO5YvJ5v6h5ufFVEtxVOKawv3gdQSDUigqgURLQS05lLn/CkyMjL6jLIwBUgH4k80kesh+gAAAAAAAAAAAAAAAAAPwzIiMzPIiAH6A8J4jMfE+kdarpayURLXpfKjU1GzN9gohEW/npJnTl2NOWWy/ePPLQRGqUfrBMRfzlIuC0+0WCh3M31emqiSWeTevuKpc92WzLarKk3KWNMpZXseT6hiVYTtyxZvzf09zcwPCP6wTEX85SLgtPtHFCY+cQEBCswEBE05DQ0M2llllmTtoQ2hJZJSlJHkREREREWgiIe37KX/XHtfwPD9udmdU+xfE+pAD5efrBMRfzlIuC0+0VmxeJfEPcdUyrStKmkcgt7SxE9PZwqUpzV4DKFhy07N5eZFoI9iSkmZGakJX41+5q8t4OpUccLzvsWnF8j3tu7CwuqipUoybfmXtbedEuLfI91AMDQlXQVfUbJq1lsM9Dwk7g245hp7LsiG3CzSSssyzyMs8jPymM8IGUXCTjLii0wnGpFTi8p6oAADEyAAAAAAAAAAAAw1ZnlR89PVLYr1ShmRha2PKjJ+eqVxXqlADXLAllYi3BaqRk/I2hvo0SwhZWLt0Wqk5RyNob2AAAAAAAAAAAAAAAACVYTtyxZvzf09zcwKqJVhO3LFm/N/T3NzAAqoAAAAAAAAAAAAAAAAAAAAAAlmKss8L14S10DUHNz4qYl2Kcs8MV3i10HUHN74ApzJ5soPWkvwH9jihDzhWT1tp/AcoAAAAAAAAAAAAAAAAJRiguROLUWZnNZSOVSqZRLLkPCnCzNhb0M6286ltaVoSpJqI0qPRnlrz8Aq4i+LdKV2gJC0kpKqgkhGRlmRl2wZG3YRjO6pxmsreWV7TQ2pOcLKrKm8NReH1PBAFtRslZhWa/pHCLSE3iIduKXJ5pIlJi4ZCyzSTqUrMkqMtORGfi0jj7Z0v8rwY8BudIebsWLjjuIyvFOLUsymppI1HmeRISRF5CIiL/AGElHQbfZXT0o1XPG8k8Jdepym6233tXnQVPKi2st6vDxl4SR7r7Z0v8rwY8BudIO2dL/K8GPAbnSHhQB7fIq/ePsR4ftE/3S7We26lmkzl1LzWq6MtxhTrhiRMe65pDSGnzdiYWGzIjfNtThZtl+8ZHoLTry0HF/V8wjKRtPIpXBS6QyCbUlC1I7I5NCphIBEdEmpTi0tJ+szyzM8s1HnmpRnrGDkzO5s7ZMzNt6kZyhxPiWn3OZ5GXjLMi0fUO3it/y/ZPzaSn8FDWpW8aF/Ci9ca59MX7NMcfOble6lc7LqV183e0x6JR58cPKyn1H0Mw2fABb77PQXqiFJE2w2fABb77PQXqiFJHPrzwip6z951XZ/glL1Y+5AAAa5tgAAAAAAAAAAAYOujyomoT1SqL9SoZwYGvTyoWoz1SmM9SoAYOxBZWPt4WqlJRyNob0NHsWWVkrfFqpWU8kaG8AAAAAAAAAAAAAAAAAlWE7csWb839Pc3MCqiVYTtyxZvzf09zcwAKqAAAAAAAAAAAAAAAAAAAAAAJjiiLPDNdwtdCT/m94U4TPE8WeGq7Ja6Gn3IHgBRIA84GHPW0j8CHYHVlh5y2EPWw3+Uh2gAAAAAAAAAAAAAAAARjFr8EKftDJOcGRZxGMWvwQp+0Mk5wZG5s/wALp+sveR+1fAa3qv3HzoxXbouvf5sv8qRJxWMV26Lr3+bL/KkScdXsfBaXqx9yOGbT8NrevL3sAADaNIu2Dj4UZt9k5zycx28Vv+X7J+bSU/godTBx8KM2+yc55OY7eK3/AC/ZPzaSn8FCCn9ar0L3SLNT+o5el/8AaB9DMNnwAW++z0F6ohSRNsNnwAW++z0F6ohSRze88Iqes/edf2f4JS9WPuQAAGubYAAAAAAAAAAAGv3BPKgqlPVKIz1KxsA164h5W/qc9UmjfULAGKseWVlaALVS8q5I2N2Gl2SLKzNBFqpiV8kbG6AAAAAAAAAmk2w4WYnk1jZ3NKON6NmEQ5FRLvbGLRs3XFGpaskukRZmZnkREWodXauWL3kr4Wjf6wqoACVbVyxm8x4vJOI7+sG1dsdvOiC8k6j/AOsKqAAlW1dsfvRi+HJh/XE0wyYcrPzzDbaedzOmYx2MmFDyKKiHEzqPbJbrkAypRklLxJTmZnoIiIvERD1AJVhO3LFm/N/T3NzAAbV6yW9aPLyVBMv64bV6ye9mZekUy/uBVQAEq2r9lfFTk0LyVJM/7gNq/Zbe9Ny8lTTT+4FVAASrawWY+YZz/tVE1/uQ2sFmfmSeelU2/uRVQAEq2sFmvmafF5Ksm/8AchtYbOfNNQel03/uhVQAEq2sNnfmyoy8lYTj+6Daw2f+bqlLyVlOf7oVUABKtrFaD5DVHppOv7sNrFaH5JVReStp3/diqgAJVtY7R/JqtLyVxPP7sT7ENhztdKLA3MmsCzVRRMFR85iGey1nOXkbNEE6pOybXFGhZZkWaVEaTLQZGWgelhN8SpZ4c7qFromecgeAGIlWGe07srg3FIrHNcO2o8q7npFpSXiKMHa2slp9VaF5K+n394KPIzzkkvPXCtfkId4ASrayWo//ACrcvJcCf/3obWS1Xxtc/wC1wqg/vRVQAEq2stq/E/XZeS4lQ/3obWW1vyqvi8lxqi/vhVQAEq2s1rvltwOMio/74NrNa/5fcMvJcqo/74VUABKtrNbH5yuKXkuZUn9+G1ntl863I4zql/vxVQAHDBQjMBBsQMObptQzSWkG66p1exSREWyWszUo8i0qUZmfhMzMecMWdXM11aWuaNt17snE/pWPk6opEsaU8tmIVEkskJ2BGZrQTWyVl+zmRHpIyLaMTdb3ik1LqpmyNDTiaz2ZoUh2aQ7P+FLmjLI1IUoyJTp597lmSdJnpyI/C1KWixpUK7GvUdTlcydcyWTkYcHEm37oWRmZKXkvvjLZK0np0nrFj2Ns6EkrqpUjFppxTa1w1nPm5Lt9NR7oNrTg3Y0qU5RkmpSjFvGU0scm84b7OPDeanh7a3imCK1u1YS9skq2JYaRNXKUlbaoONfQgkG9sYlGbZmSSPYlrPM1H3x4juR4b/oxxQ8CwHQDtL+kK+OuT9/V0w7S/pCvjrk/f1dMWOOYLdhXikuC6R6fcVCTVSTnUtpyk+LdJZb63h8R3I8N/wBGOKHgWA6AdyPDf9GOKHgWA6Adpf0hXx1yfv6umHaX9IV8dcn7+rpjLen5RH/k/Ix3afks/wDi/M7jTtP2qkk4RYKwd2oio57APStc7q2WGa4CHdIicJhmHRsFKMi0KVkZHrLNJ7xc631CyekrT3Svg841I6aoSVS5qm05oj5vMko2RwxoPI220EaTcUeWWeWgzE77S/pCvjrk/f1dMapV9j8YNfxbEfW9H1lPIiGbNplyPe7MbSDPM0p2SzyIz06BgqUZVIylXiuOWp5k9MYy+Hs4ctdTN1pwpShC2nLRYi4YimnnLS469fHRPTQv0L+kvpmChmoODsxFMQ7CEtNNNTZtCG0JLJKUpJnIiIiIiIvAL9b25sNfeiYZqtqSjKQhavbcOTQiZ681MJhDNES3IhtcOTTrDZd5sVksjVmR6CUg1+H7fWAgrSS+KvBibkjkBKZM6SJTTT6ke6J7HZbJLZpzP/BLQasyyMs8+9IyVuWFK6lWXjxeFWVVxOyddlMc3DQrZn2CChySWwZaT+6lOflMzMzzMzMR1/sqynRqTs46QTbllvL6lrh+d8uHHhL7L25tKnXpU7+fzqjSUN1JpN43paZX+Vc+PDj682s1rfHFV8fluNUR/wDODay2q8btdH5bhVAf/NFVAUs6KSrayWo8Z1sflr+fn/zQ2sdpfG3WJ+Wu56f/ADBVQAEq2sdo/HD1aflrieH/AMsNrFaHxwVUn5a0nR/8sVUABKtrFZ7xy6pT8tYzk/8AlBtYbOeOU1Aflq6bn/yhVQAEq2sFmfHJJ4flqqbH/wAkYCv8NFnIOhKki2JDNydYlEY4g1VLM1ESksrMtBxBkfg8B6BdBrVzDytxVZ6pJHeoWAJHaPDVZ2YWpouPjKemS34mnpc86oqgmSSNaoZszMkk+RFpPwEREQ2zavWS8dLzA/LUEyP/AM42SzRZWfoYtVNSzkrY3EASravWQ8dJRZ+WeTA//OG1dsb46NfPyzmPP/zCqgAJVtXLF+OiVn5ZtGn/AOYb/S1LSKi5FC0zTMD7jlsHs+wMdlW5sNmtS1d8szUealKPSfjGWAAAAAAAAAASrCduWLN+b+nubmBVRKsJ25Ys35v6e5uYAFVAAAAAAAAAAAAAAAAAAAAAAE5xIlnh3ukWui53yF4UYTvEYWeHu55a6MnXIXgBulPHnIJaeuDZ/IQyAxtNHnTkqPXBMerIZIAAAAAAAAAAAAAAAB8pcT1y7jSi/wBW8tlVf1JBQkPNFIZh4eavtttp2KdCUpUREX1EJf3XLrfSdVnDUT0x7AvJgWuJcC71R3DfrKlJVTc0mBxrzr0Q+cTDQpEWzWaOxE2aiSSjyNwi1qLwiFLtthMQtSSxJztWxMyzKj38j+su+HT7G9sp0IRgt5qKziLlh454TOL7S2dtGndVJ1HuJyljemo5WeWWiad1y630nVZw1E9MO65db6Tqs4aiemKV3OMJn8SM99D3+kHc4wmfxIz30Pf6Q3O+Lb93L/jl+E0O9Lz99H/lh+Imvdcut9J1WcNRPTGSpyur4VbPIKmqdr+ro2ZzF4mIWHTPH0qdcPwJI1OEWZ/WY3jucYTP4kZ76Hv9IckNQWFWDfTEweJmoWHkZ7FxukYhKizLI8jJeZaDMYyuLfD3abz/AKcvgfY2l1vLeqxx/qw/EZXuNY6vk1f+kJ/1x/D1oMckMy5ERDVeNtNJNa1qqIySlJFmZmfZ9BEQ4/e/hx/ixq/0ai/6goVF4TIC79GzGprO4gp7M1Qr3uZhc1lkTAwzr5bE1JNZrUvIkq0qShWRmRaxH1LvoVvVd2K63Sml2tkrRsO+JblDelLjhV6bfYkaNduMqKr8L1j3Y2LmM6m8wmc9YSt5xcREPrOLJCEEZmalH+yki8hEPY2EfDXB2Ko/trPYdp2sp20lUxe0K9yN+FMK2ZeIjyNZl+0rWSUjKWJw9M0BQNCSivm5dM6godczcg3YRxbkK25FxCl9kTs0JUayRkkjMiyM1ZZ6DK1irbT2t0lN2dD6G9Jt9eZNr2Y/WhdtjbB6GtG/ulmpuQST5YhFNvz5TXo9IAAFfLWAAAAAAAAAAABrNzzytrVp6pFH8nWNmGr3TPK2NXnqkMw5OsAcFnSytHRBaqclvJWxt41G0JZWmootVOy3kzY24AAAAAAAAAAAAAAAAEqwnblizfm/p7m5gVUSrCduWLN+b+nubmABVQAAAAAAAAAAAAAAAAAAAAABPcRBZ4f7mlro6dcidFCGgYgyzsHcotdITnkToA2ulTzpiUHrgIf1aRlBiaRPOlJKeuXQ3q0jLAAAAAAAAAAAAAAAAIPi8brmpbfKtzb6byGAip6exmjsxmzUGtMCXhQglmRn2RRbEzLRsUrL94eFtpxdLfDQvpNDe0fU6Z0xTc6fTFTinpZHvIQTaXImEbdUSSMzJJGojPLMzPL6zHU94NC7y5Dwcz0RPbP25PZ1HoqSXW9PzKvtXuap7WuOnrSfDC14LsPl5tOLpb4aF9Job2htOLpb4aF9Job2j6h+8Ghd5ch4OZ6Ie8Ghd5ch4OZ6I3/2ruOpdn5kZ+w1p1vt/I+Xm04ulvhoX0mhvaG04ulvhoX0mhvaPqH7waF3lyHg5nojRbCwFPXBsZbqvqjo6nFzapaTlE4j1MyplCFRERBtOuGlOx70tktWReIg/au46l2fmP2GtOt9v5HgCV4KrqTOZQsuRUNEkcS8hrNuoGHVFmZEZkhJ7JRl4ci0mPotaq2aLcQUPJJa+5DyOTQKJVK4AjLv8lbN+NeMv2nnnNORaEpIvAa1JLaIai6OgohuLg6TkzD7KiW261ANJWhReAyMk5kf1jMiL2ltqvtGKhPgvN+v1kmtj9zttsmTqU/pPz/kv0l1AAAQxYQAAAAAAAAAAAAAAA1W6x5WurE9UgmHJ1jahql2jytXWZ6qfmPJnAB+WkLK1NGFqp6XcmbG2DVbUFla2ji1SCX8mQNqAAAAAAAAAAAAAAAABKsJ25Ys35v6e5uYFVEqwnblizfm/p7m5gAVUAAAAAAAAAAAAAAAAAAAAAAaFf8ALOxFyC10jOORujfRol+izsZcUtdJzfkboA2KjTzpCRnrlsL6pIzIwlEHnRcgPXK4X1SRmwAAAAAAAAAAAAAAAAAAAAAAAEqwnblizfm/p7m5gVUSrCduWLN+b+nubmABVQAAAAAAAAAAAAAAAAAAAAABqV3TytPWp6qdmXJnBto1C8J5Wkrc9VOTLkzgA5rVllbCkC1SGX8nQNpGsWvLK2dJFqkUBydA2cAAAAAAAAAAAAAAAAEqwnblizfm/p7m5gVUSrCduWLN+b+nubmABVQAAAAAAAAAAAAAAAAAAAAABo19izshcMtdKTbkbo3kaRfIs7KXALXS015I6AM1Qh50PTx65VCepSM6MBb886Dps9cog/UoGfAAAAAAAAAAAAAAAAAAAAAAAASrCduWLN+b+nubmBVRKsJ25Ys35v6e5uYAFVAAAAAAAAAAAAAAAAAAAAAAGn3kPK0NcnqpuZ8lcG4DTb0HlZ2uz1U1NOSuADu2yLK29KFqkcD6hA2Ua5bYsrdUsWqSwPqEDYwAAAAAAAAAAAAAAAASrCduWLN+b+nubmBVRKsJ25Ys35v6e5uYAFVAAAAAAAAAAAAAAAAAAAAAAGlXtLOzFfFrpia8kcG6jTL0lnZyuy10zNOSuADJW7PO39Mnrk0F6hA2Ea5bc87d0seuSwPqEDYwAAAAAAAAAAAAAAAAfhmREZmeREP0SjFBcicWoszOaykcqlUyiWXIeFOFmbC3oZ1t51La0rQlSTURpUejPLXn4B60KMrirGlDjJpdp4XNxC1ozr1OEU2/YeasRmPifSOtV0tZKIlr0vlRqajZm+wUQiLfz0kzpy7GnLLZfvHnloIjVKP1gmIv5ykXBafaK4tqNkrMKzX9I4RaQm8RDtxS5PNJEpMXDIWWaSdSlZklRlpyIz8WkcfbOl/leDHgNzpC70IWNKmod7qWOfHPnzg5vc1Np16sqnfThn/CtMebG9p7desk/wCsExF/OUi4LT7RxQmPnEBAQrMBARNOQ0NDNpZZZZk7aENoSWSUpSR5ERERERFoIiFd7Z0v8rwY8BudIO2dL/K8GPAbnSHrmx8lXZ+R4bu0vLZdv9RJ/wBYJiL+cpFwWn2is2LxL4h7jqmVaVpU0jkFvaWInp7OFSlOavAZQsOWnZvLzItBHsSUkzIzUhK8dUs0mcupea1XRluMKdcMSJj3XNIaQ0+bsTCw2ZEb5tqcLNsv3jI9BadeWg4v6vmEZSNp5FK4KXSGQTakoWpHZHJoVMJAIjok1KcWlpP1meWZnlmo881KM3QWt240aVCMXJ4zo2sLL0xxxwzpz1HfV7YqVxWuZzUUnu6pSy8LXPDPHGvLTivo3QlXQVfUbJq1lsM9Dwk7g245hp7LsiG3CzSSssyzyMs8jPymM8Jths+AC332egvVEKSKJcQVOtOEeCbX3nTrSpKtb06kuLSb9qAAA8TYAAAAAAAAAAAA0u9Z5War09VMTTkrg3QaTe88rL1+eql5ryRwAZS3JZW9pgtUmgvUIGxDX7ellQNNFqk8H6lA2AAAAAAAAAAAAAAAAAEqwnblizfm/p7m5gVUSrCduWLN+b+nubmABVQAAAAAAAAAAAAAAAAAAAAABp95CztDXJa6bmfJXBuA1G8BZ2lrYtdOTLkzgA7NsjztvSh65HAcnQNlGsWuPO2VInrkUBydA2cAAAAAAAAAAAAAAAAEXxbpSu0BIWklJVUEkIyMsyMu2DItAjGLX4IU/aGSc4Mjc2f4XT9Ze8j9q+A1vVfuPnVixccdxGV4pxalmU1NJGo8zyJCSIvIRERf7CSisYrt0XXv82X+VIk46vYeC0vVj7kcM2n4bW9eXvYAAG0aRdsHJmdzZ2yZmbb1IzlDifEtPuczyMvGWZFo+odvFb/l+yfm0lP4KHUwcfCjNvsnOeTmO3it/wAv2T82kp/BQgp/Wq9C90izU/qOXpf/AGgfQzDZ8AFvvs9BeqIUkTbDZ8AFvvs9BeqIUkc3vPCKnrP3nX9n+CUvVj7kAABrm2AAAAAAAAAAABpF8jysncE9VLTbkjo3caNfY8rIXDPVSk25G6AM3QJZUJThapRB+pSM8MFQhZUPTxapVCepSM6AAAAAAAAAAnVQWFoepZzFz6Yz24rMTGudlcRL7kVFAQ6T1Nw8PHIaaLR+yhCS+oY/a0263x3V42Kq6xAFVASra0263x3V42Kq6xDa0263x3V42Kq6xAFVEqwnblizfm/p7m5gNrTbrfHdXjYqrrETTDJh8oOdYbbUTmMn9ym4iPoeRRLqIS5tSQrCVrgGVKJtlmPS00jMzyQ2lKElkSSIiIgB6gASra0263x3V42Kq6xDa0263x3V42Kq6xAFVASra0263x3V42Kq6xDa0263x3V42Kq6xAFVASra0263x3V42Kq6xDa0263x3V42Kq6xAFVASra0263x3V42Kq6xDa0263x3V42Kq6xAFVASra0263x3V42Kq6xDa0263x3V42Kq6xAFVASra0263x3V42Kq6xDa0263x3V42Kq6xAFVGp3bLO1NaFrp6Y8mcGrbWm3W+O6vGxVXWI1q5mHG30Hbiq4tmoboKcYkkc4hL106ndQZkwsyJSFzA0rLRpSojIy0GRkAKhak87XUeeuQS/k6BtQglsMOdvo62tJRz1Q3QS5ESOAdWTN06naQRqh0GZJQiYElBadCUkREWgiIhs21pt1vjurxsVV1iAKqAlW1pt1vjurxsVV1iG1pt1vjurxsVV1iAKqAlW1pt1vjurxsVV1iG1pt1vjurxsVV1iAKqAlW1pt1vjurxsVV1iG1pt1vjurxsVV1iAKqAlW1pt1vjurxsVV1iG1pt1vjurxsVV1iAKqIxi1+CFP2hknODIyW1pt1vjurxsVV1iIvfuTUzDWguJQ9m5jWlRT6RTGSOR6YqpJtULsPEe6NmlDJxj76m1IJBqWTeRZ7HZZmnvd/ZkHO7ptcFJZfVqlqRm2akYWNVPi4ywub0bwvYjx9iu3Rde/zZf5UiTj1zU8PbW8UwRWt2rCXtklWxLDSJq5SkrbVBxr6EEg3tjEozbMySR7EtZ5mo++PEdyPDf9GOKHgWA6A6LbbQhQowpTi8xST4PgsccnI7zZVS5uJ1qc47sm2s5Tw3nVNaM8ugPUXcjw3/Rjih4FgOgHcjw3/Rjih4FgOgPf5VpeLLsXxNf5Er+PHtfwNTwcfCjNvsnOeTmO3it/y/ZPzaSn8FDbWnaftVJJwiwVg7tRFRz2Aela53VssM1wEO6RE4TDMOjYKUZFoUrIyPWWaT3i51vqFk9JWnulfB5xqR01QkqlzVNpzRHzeZJRsjhjQeRttoI0m4o8ss8tBmIud1FXsblp4eiWmW0nyT555+l6EzTspPZ07RSWVq3qopOUebS4JZeM8ksvQ9T4bPgAt99noL1RCkj5xVJjGtTVExKZRlsbjS9SGW4duGkd1JzJ4NtttJJQlELBPNMIyIi/ZQRn48xdrN0rQVz5JK51UEJdWkTqMnHJDBxV56pfipjDtp2TkQTZRqdg0RGnJRn32ZHkRKQa6df7MvKMpV61PdTb5p+fkzoOy9s7PuIwtbervSikuElwwuawsvhrx0PU4CVbWm3W+O6vGxVXWIbWm3W+O6vGxVXWIiSdKqAlW1pt1vjurxsVV1iG1pt1vjurxsVV1iAKqAlW1pt1vjurxsVV1iG1pt1vjurxsVV1iAKqAlW1pt1vjurxsVV1iG1pt1vjurxsVV1iAKqNEvyeVjbinqpOb8jdGF2tNut8d1eNiqusRpV7cO9ASyzFfTKHqC5y3YSmJq+2mIujUz7RqTCOKIltOR6kOJzLSlSTSZZkZGRmQAt9EFlRcgLVK4X1SRmxFKSw3W9fpSSvOVFdIlOS+GUokXVqhCSM20noSmYESS+oiIi8Qy21pt1vjurxsVV1iAKqAlW1pt1vjurxsVV1iG1pt1vjurxsVV1iAKqAlW1pt1vjurxsVV1iKLIJHBU1JoSQy5+YPQ0E2TTa5hMYiPiFFrciIha3XT/9y1qP6wBkAAAAAAAASrCduWLN+b+nubmBVRKsJ25Ys35v6e5uYAFVAAAAAAAAAAAAAAAAAAAAAAGr3SLO2NXlrkMw5OsbQNZucWdtqsLXI4/k6wB17Qnnaaij107LeTNjbhp9nDztFQ566blnJWxuAAAAAAAAAAAAAAAACJYm63vFJqXVTNkaGnE1nszQpDs0h2f8KXNGWRqQpRkSnTz73LMk6TPTkR+FqUtFjSoV2Neo6nK5k65ksnIw4OJNv3QsjMyUvJffGWyVpPTpPWOPE9cu40ov9W8tlVf1JBQkPNFIZh4eavtttp2KdCUpUREX1EJf3XLrfSdVnDUT0x0fZWza1tapU9xqSTeU23z115HIdt7YoXl7KVXpE4NxW7JJLGjxpnXmXbtL+kK+OuT9/V0w7S/pCvjrk/f1dMQnuuXW+k6rOGonph3XLrfSdVnDUT0xvd5V/FpfZfxIz5RtvHrfbXwLt2l/SFfHXJ+/q6Ydpf0hXx1yfv6umIT3XLrfSdVnDUT0xkqcrq+FWzyCpqna/q6NmcxeJiFh0zx9KnXD8CSNThFmf1mPjs60VlxpY9V/EyjtC3m1GMqzb/zr4Fk7S/pCvjrk/f1dMapV9j8YNfxbEfW9H1lPIiGbNplyPe7MbSDPM0p2SzyIz06BmO41jq+TV/6Qn/XH8PWgxyQzLkRENV4200k1rWqojJKUkWZmZ9n0ERDXhWjTlvQqUU/N/wDo2qlvOrHdqUrhrz6/+pz2+sBBWkl8VeDE3JHICUyZ0kSmmn1I90T2Oy2SWzTmf+CWg1ZlkZZ596RkrcsKV1KsvHi8Ksqridk67KY5uGhWzPsEFDkktgy0n91Kc/KZmZnmZmY0u7cZUVX4XrHuxsXMZ1N5hM56wlbzi4iIfWcWSEIIzM1KP9lJF5CIexsI+GuDsVR/bWew7TtZTtpKpi9oV7kb8KYVsy8RHkazL9pWskpGhtK7hTtKlW5eakt6CS4JJ4eOzLfF6IlNkWNStfUqFmt2jDcqSb4ttKSy+bWcJcFq+OS/gAChHUQAAAAAAAAAAANBxAnlYa5J6qRnHInRvwn+IQ8rB3LPVR855E6ANoo8sqRkhapdDeqSMwMTSRZUrJi1S+H9WkZYAAAAAAAAAAAAAAAAEqwnblizfm/p7m5gVUSrCduWLN+b+nubmABVQAAAAAAAAAAAAAAAAAAAAABrdyizt1VRa5JHeoWNkGu3FLO31Tlrk0b6hYAx9mDzs9Qp66alfJWxuQ0uyZ52ZoI9dMSvkjY3QAAAAAAAAAAAAAAAB4VvJgWuJcC71R3DfrKlJVTc0mBxrzr0Q+cTDQpEWzWaOxE2aiSSjyNwi1qLwiFLtthMQtSSxJztWxMyzKj38j+su+HufF43XNS2+Vbm303kMBFT09jNHZjNmoNaYEvChBLMjPsii2JmWjYpWX7w8LbTi6W+GhfSaG9ov2yL2de3Tua+5jRJbvBc3lM5dt7Z1O2u3GztekzrJy3msvXCxJe3j1cj97nGEz+JGe+h7/SDucYTP4kZ76Hv9Ifm04ulvhoX0mhvaG04ulvhoX0mhvaJTp6Hlb/g/CQne115DHsqfjP3ucYTP4kZ76Hv9IckNQWFWDfTEweJmoWHkZ7FxukYhKizLI8jJeZaDMcW04ulvhoX0mhvaG04ulvhoX0mhvaHTW7/APLf8H4Qra6WqsY9lT8Zk/e/hx/ixq/0ai/6goVF4TIC79GzGprO4gp7M1Qr3uZhc1lkTAwzr5bE1JNZrUvIkq0qShWRmRaxNJXgqupM5lCy5FQ0SRxLyGs26gYdUWZkRmSEnslGXhyLSY+i1qrZotxBQ8klr7kPI5NAolUrgCMu/wAlbN+NeMv2nnnNORaEpIvAa1JKH2rtGNnBO2ruUvOotY9kVx+JP7E2RPaFSSvLZQgupzTy/TN8PRxwarYnD0zQFA0JKK+bl0zqCh1zNyDdhHFuQrbkXEKX2ROzQlRrJGSSMyLIzVlnoMrWACl17ipczdSo9W2+15f3s6La2tKzpqlSWEkl2JJZ69EkAAB4mwAAAAAAAAAAABPsRB5Yf7mnqo6dcidFBE8xFnlh8ueeqjZ1yF4AbfSxZUxKC1QEP6tIygxtMllTcqLVAserSMkAAAAAAAAAAAAAAAACVYTtyxZvzf09zcwKqJVhO3LFm/N/T3NzAAqoAAAAAAAAAAAAAAAAAAAAAAwFwSzoKpS1yiM9SsZ8YKvCzoaoi1ymL9SoAYax552VoA9dLyrkjY3YaPYo87I29PXSsp5I0N4AAAAAAAAAAAAAAAAYyZ0xTc6fTFTinpZHvIQTaXImEbdUSSMzJJGojPLMzPL6zHU94NC7y5Dwcz0RngGaqTSwmzzdKnJ5cV2GB94NC7y5Dwcz0Q94NC7y5Dwcz0RngH3pZ+M+0+dDT8VdhgfeDQu8uQ8HM9EaLYWAp64NjLdV9UdHU4ubVLSconEepmVMoQqIiINp1w0p2PelslqyLxEKwJVhO3LFm/N/T3NzAdLPxn2joafirsN8hqLo6CiG4uDpOTMPsqJbbrUA0laFF4DIyTmR/WMyADCUnLizOMIw0isAAAfDIAAAAAAAAAAAAAAAJ1iPPLDzdE9VGTvkLwoonGJI8sOt0z1UVPOQvADdqdLKn5YWqDZ/IQyI6EgLKRS4tUIz+Qh3wAAAAAAAAAAAAAAAASrCduWLN+b+nubmBVRKsJ25Ys35v6e5uYAFVAAAAAAAAAAAAAAAAAAAAAAGErgs6KqAtcri/VKGbGGrQs6Onpa5ZFeqUANdsMedjbdnrpOUcjaG9jQrBHnYm3B66Sk/I2hvoAAAAAAAAAAAAAAAAAAAAAAACVYTtyxZvzf09zcwKqJVhO3LFm/N/T3NzAAqoAAAAAAAAAAAAAAAAAAAAAAm+JY8sOV1T1UTPOQPCkCa4mTyw33XPVRE95A8AN9khZSaALVCtfkId0dOTllKYItUO3+Uh3AAAAAAAAAAAAAAAAASrCduWLN+b+nubmBVRKsJ25Ys35v6e5uYAFVAAAAAAAAAAAAAAAAAAAAAAGIq8s6SnZa5dE+qUMuMVVZZ0vOC1wER6tQA1XD6edhbbHrpCTciaG/ifYeTzsDbM9dHybkTQoIAAAAAAAAAAAAAAAAAAAAAAACVYTtyxZvzf09zcwKqJVhO3LFm/N/T3NzAAqoAAAAAAAAAAAAAAAAAAAwda1nILf01G1XU0YUPAwSMzy0rcWehLaC/eUo8iIvwLMx5yRT9T3bjX65uLM5zKSjcilclgY5yHTAQhGZpJzY5bJ1WeajP/wCtCU69auqTUUsslNn7MlexdSUt2C0zjOX1JaZ8/V7UeqRM8Tp5Ya7snqoafcgeEp7i1N/P9U8NPe0cUVYyko6Gego2b1LEQ8Q2pp5l2cOrQ4hRZKSpJnkZGRmRkfhHj33Lxfv/ACJD5Co/vn9n+o9OysspZCFqYb/KQ7Q8uFZWmkkSUz6qSItBEU6e9o/e4tTfz/VPDT3tDvuXi/f+Q+QqP75/Z/qPUQDxRcWl6epUoSQSCZ1RM6onGbcugSnb2ReI3ndPetp06s8jLMiJRpq2D2EnEsp2r5NPJq9HxUuqFcM46t5biTUllsjNOyPX49BnkWY+0rvpKnRuP3mF5sFWto7pVM4xpu4zrjPF6HoEAAbpXgAAAAAAACVYTtyxZvzf09zcwKqJVhO3LFm/N/T3NzAAqoAAAAAAAAAAAAAAAAAAAAAAxlTFnTc2LXAv+rUMmMdURZ0/My1wb35DAGm4dDzw+WxPXRsl5CyKGJ1hwPPDxa49dFyTkLIooAAAAAAAAAAAAAAAAAAAAAAACVYTtyxZvzf09zcwKqJVhO3LFm/N/T3NzAAqoAAAAAAAAAAAAAAAAADzdicp5us7l2/pSYTeZQkA9DzCLMoN8m1JeaSg0OFmRkSi8GeWZEZ5ZZiPpXDzBx5ymZ3e+eQLTqmUx0HMSNh1STyPYGaSMyz8eRCy4jzNN0aMUkzIykc9MjL/APQkdOyyUotXTZISSS9xkeRFlpNRmZ//ACIWvHfryX64I6Ls2s6GzKU+OnD0ynl/ciUe45x8RfvhFPsD3HOPiL98Ip9g9GAMOg857fKT8T7zzn7jnHxF++EU+wdmUwcJFTiDks+qq81POTJzsEG9MpmSGXnctDZKJJ5KPxF4x6DE5vsRFSMvcIu+bnkApCvGk+y+EtR6R8lS3FvZPWjeuvNU93GdMmIsbI4Vid1pMYyIiplMoKdvSpExj3jeiVQ7RESUqWfkLPIizyLxERFUcMn/AFrj/a6I9W2J/Zj/ALncD7WRv4kKBhk/61x/tdEerbHvaLE4+0jNutyoV8/5P5FvAAEuUIAAAAAAAAlWE7csWb839Pc3MCqiVYTtyxZvzf09zcwAKqAAAAAAAAAAAAAAAAAAAAAAOhPizkcxLXCPfkMd8dOclnJ44tcM7+UwBomGs88OlrD10VI+QsijibYZzzw4WpPXREi5AyKSAAAAAAAAAAAAAAAAAAAAAAAAlWE7csWb839Pc3MCqiVYTtyxZvzf09zcwAKqAAAAAAAAAAAAAAAAAA854kPhQo3+RT31CR1LMfBZTf8Aok/iY7eJD4UKN/kU99QkdSzHwWU3/ok/iYiKnhEv1yRf7X6po/rnM3QAAZHgBOb7f5Pgv51AetIUYTm+3+T4L+dQHrSHnV+gzasvCIek4bMf9zuB9rI38SFAwyf9a4/2uiPVtif2Y/7ncD7WRv4kKBhk/wCtcf7XRHq2xlafTj7Tx254PX/2fyLeAAJcoZOqgsLQ9SzmLn0xntxWYmNc7K4iX3IqKAh0nqbh4eOQ00Wj9lCEl9Qx+1pt1vjurxsVV1iKqAAlW1pt1vjurxsVV1iG1pt1vjurxsVV1iKqAAlW1pt1vjurxsVV1iJphkw+UHOsNtqJzGT+5TcRH0PIol1EJc2pIVhK1wDKlE2yzHpaaRmZ5IbSlCSyJJEREQ9QCVYTtyxZvzf09zcwAG1pt1vjurxsVV1iG1pt1vjurxsVV1iKqAAlW1pt1vjurxsVV1iG1pt1vjurxsVV1iKqAAlW1pt1vjurxsVV1iG1pt1vjurxsVV1iKqAAlW1pt1vjurxsVV1iG1pt1vjurxsVV1iKqAAlW1pt1vjurxsVV1iG1pt1vjurxsVV1iKqAAlW1pt1vjurxsVV1iG1pt1vjurxsVV1iKqAAlW1pt1vjurxsVV1iOtMsNVu0y6KUmorqGZMLMiO69UmX7J+EjmGRivDrzEs5fElrZX+UwB5ww7YeqCnGH62U3ip/cxt+Oo6SxLiIW59SwzKVrgmlGTbLUeltpGZ6EISlKSyJJEREQoW1pt1vjurxsVV1iOfC8eeGi0h66FkPN7IpwAlW1pt1vjurxsVV1iG1pt1vjurxsVV1iKqAAlW1pt1vjurxsVV1iG1pt1vjurxsVV1iKqAAlW1pt1vjurxsVV1iG1pt1vjurxsVV1iKqAAlW1pt1vjurxsVV1iG1pt1vjurxsVV1iKqAAlW1pt1vjurxsVV1iG1pt1vjurxsVV1iKqAAlW1pt1vjurxsVV1iG1pt1vjurxsVV1iKqAAlW1pt1vjurxsVV1iJphkw+UHOsNtqJzGT+5TcRH0PIol1EJc2pIVhK1wDKlE2yzHpaaRmZ5IbSlCSyJJEREQ9QCVYTtyxZvzf09zcwAG1pt1vjurxsVV1iG1pt1vjurxsVV1iKqAAlW1pt1vjurxsVV1iG1pt1vjurxsVV1iKqAAlW1pt1vjurxsVV1iG1pt1vjurxsVV1iKqAAlW1pt1vjurxsVV1iG1pt1vjurxsVV1iKqAAlW1pt1vjurxsVV1iOnOLA2mkErip1OqxufBwME0p6Ifdu1VKUNoLwmZ9sRW4yLhZfCPx8a+hmHhm1PPOrPJKEJLNSjPxEREZjx9W96KRvRVhwk/qmGldBSV4lsQDrhpdnL6T0OupLSlovEk8s/Kfe69xcRoLzvgSmy9l1NpVHhPcj9JpZ9i875dr0NVlEVIlXfkdRNOVBB0jHw0ezLVVVVcymzrzKWjSp41TGIe7Clw1ERJQaSMklnsjyMbBKHatoWGVT9FXIt9MJIy4tUEmdRiifh21KNXY82lZKIjM9J6tGRaC2KdVvYKokQ7c9mtOx6YQjSwT7RL7ER5ZknNOgtBaC1EMX7vww/F0n92LoiIllycnJZ9JfacVTpxpRpSUUsY3crRtp66511Hv2utvus/9/iekHv2utvus/wDf4npB7vww/F0n92Loh7vww/F0n92Lohr4y7TLEf3L+x+Y9+11t91n/v8AE9IcC0TOs5hAquXcmimpVLoluMTL5JF6Il1B5pNxbqtkREZ+AtB/UeRlz+78MPxdJ/di6Ie78MPxdJ/di6I+ceMl2hYjrGnJPrUFk1akanqOOnda0dbxtC5jNqjjIpc1PvoaBhDVl2XZFmSlKyPYkXlH9w+GKsYJx92WXmqeWKinOzRCZXUM6l7bzuREbim4aObbNZkRZq2OZ5aRv8juFYymWHIanp7IZc06rZuJhkdjJassszyLSMdU9y4itopmhrRzBETGx6DVGzZsldilsPnkaiPR356ctWjLSZGWUd2Czva+ZmNbpLiTgqWIPDe9FPguLyuXJfzIpPqeqySVcxT0Dei5U6ahI2GhprEMV5UTbMMt10kk0ajmJ7JZ99mRZZZHpzJWx+i0gkcFTUmhJDLn5g9DQTZNNrmExiI+IUWtyIiFrddP/wBy1qP6x5PrajZLQlvZJIZM1khE/lynXlZdkiHTeLZOLPxmf/0WRFoIewBv2TnmSm88P5lW7o426jSlQgor5y0SWcburx+kAABvlXAAAACVYTtyxZvzf09zcwKqJVhO3LFm/N/T3NzAAqoAAAAAAAAAAAAAAAAAAAAAA4Yws4R8tbavwHMOOILNhwtaD/AATPC0eeGO0R66DkHN7AqAluFU88L9nz10FT/NzAqQAAAAAAAAAAAAAAAAAAAAAAACVYTtyxZvzf09zcwKqJVhO3LFm/N/T3NzAAqoAAAAAAAAAAAAAAw1ZpSqj56lREZHLYojI/GXYlDzZaGk6VjbaU9FxtNSqIfdg0qW67BtrWo8z0mZlmY9MVRDvxlMzeEhWlOPPwEQ22hPhUo21ERF5TMeQpBcyZ2xt3KJRUVrK4hYuGaTBMuRcpVDwz8SeyNDZOLMj05eJJnoPIjyEfeNKcXLhh/yLZ3PRnUt6lOk/nOUdM45SKp7yaM3oyX7g10Q95NGb0ZL9wa6I1JNV3rUkj7lEuLMs8jnreZf/Q/ffVev6KZdw637Bq70er7mTPQ1/HX218TbPeTRm9GS/cGuiHvJozejJfuDXRGp++q9f0Uy7h1v2B76r1/RTLuHW/YG9Hq+5joa/jr7a+JsU0p23sll0RNppTUkh4SFQbjzpy9syQkvCZ5JzGne/wBw6fHU1wYX9Mdx2pLzPtm0/aSVuIV4UrnbRkf+xpHX7Z3V+haR8LM9EYSl4q+5ntTpNL+0ll+apFfE/luucPDriWml02tazJKUlKyMzM/ARf4Y/iiWJXI7wXCRDswsBBQ0JLXDJCUtNNp7BslKyLIiLwmZ+UYaOuzO6eqyX0rUlo4ZUXHlskwspeRGxRpPMi2DaU98ZmR6My0EY5abtpXF3rsTxyY0zUlLUdNUwbs0VNIBcHERTbCCSUOgz0d+rMzyM8klmeR5EeKbm0orLz1Y5HtOMLenOVaW7FxzlyUs/OXDHPR+k3+2NLxF6aqYuRPmFooyQxB+9+CcSaSmMUg8jjHCPwoSZZILWXiyUSvRw4IGBgpXBQ8tl0K1DQkK0llhlpJJQ22kskpSRaCIiIiIhziZo0lSjjnzOe7QvpX1XexiK0iupfF8W+bAAA9jQAAAACVYTtyxZvzf09zcwKqMfT0gk1JyCWUtTkuagJTJoNmXwEIyWSIeHaQSG20/UlKUkX1EAMgAAAAAAAAAAAAAAAAAAAAAAP5WWaFFrIx/QACV4UTzwt2dPXQFPc3MCqDH09IJNScgllLU5LmoCUyaDZl8BCMlkiHh2kEhttP1JSlJF9RDIAAAAAAAAAAAAAAAAAAAAAAAAJVhO3LFm/N/T3NzAqox9PSCTUnIJZS1OS5qAlMmg2ZfAQjJZIh4dpBIbbT9SUpSRfUQAyAAAAAAAAAAAAAAADyHcq7Mnqa9j5TyEmr0ioN52DgGYWCceS9MyPYvPL2JZFsMtikj1EovCY9eDyJcOgqYar2oX2ISKYVFzF2KeJmYRDaVuuHslr2KVkWZmeoaV7vuCUessfc26Ea85Vk87umOWdH92ntZku7tR/zXUfBDvsDu7Uf811HwQ77BpvvJkGqZcKxX9QPeTINUy4Viv6gj/wC18xatyx6pfcbl3dqP+a6j4Id9gd3aj/muo+CHfYNN95Mg1TLhWK/qB7yZBqmXCsV/UD+18w3LHql9xuXd2o/5rqPgh32DijL/ANGwkI9FKldQ5NIUvvpY4gjyLwGo9BeUxqXvJkGqZcKxX9Qfw9QdNxDSmH2Y9xtZGlSFzOKNKi1GRuaQ/tfMfVGwzqpfcdzDpSFQ3VuHD3SjWiahJZMFTCNmC0H/AI8RsNi1BMZ/uNoMjUrWZFp0GPaQw9ISKT0zTEskUhl7UFAQkM2hllotCSyzM8z0mZmZmZnmZmZmZmZjMCVtqHQQxzfEo22NpPadz0iWIrSK6l+vgAABsEUf/9k=;" vertex="1" parent="32">
                    <mxGeometry y="65.64321726804474" width="220" height="220" as="geometry"/>
                </mxCell>
                <mxCell id="34" value="" style="shape=stencil(lVjLchpBDPyavapmpHmeHec/XGUcqBDjwuT199GEmjWjXRp8w2s1I7VammYneXjfPr1tJnbvp+Ph++b37vm0neTLxLx73W6Ou5N+muRxkoeXw3Hz7Xj4+fp8/vvtqUW2Tz8Ov9o3/Dnj2BH7hmL39/zEkc//H3w9x+93r5fxmVI18c5dj5dC3sb7dD0+euIwxHtK4PtTIJEhPlKu1+MzUxnz8ULCABCJ3QBoFQcIyGUElM7xNYAbWyCZCuBIazAchdRZuEZS5pGkRBGwFAPVPABSgm0OgVwcADn0JNd1wVTHlIqjCIrmQGVMqQSKEQAcpVEZuZAAaYueIDYlBAhxUQNTAJ2OlcoojSK4055qtQBfrgOKAoqtwYNOl9hZn1mqxGAeSqXgLMCBlKpmzBaQEUDFPJ6gVTFgqRbbaWVJEKB21mdAhH1YARSKYB6WKVXXW3ln0cqbQwClddwaVecBqHXZuKqrDQFin68LgAdrpokv25Q8GNGmnHGRVR0gBMh2zVQs75yIjTT0AkPLOFEaU9I1gxqnS4WNNBjeWDqQdWycPkloREO/oC4GCLGk2lxOnAONq94usnYCmodoU7pRQ81WGo0l0AeduGg2X4Q3kHezEblsNdhkeoQ3csVi0iL8uFxvyLUGe1G3gUC8KiB+BtD0Parvo6p1K8B95mf/47CDi2x51SOQYwrOGqDWfeAFmj9aLBqkJp+sqdRtyMgAWTFppwWobyklhp5PKI2kNteICojdJ8wARwFw2k4YlaSG7Ia/MpYvOehNgu9Snj0idz+0Dij2PlE/hEjV78ujViV23tYBsuKk4Qlizb3+ekDXdKj21tXOIKshagQMQKC5X/5e8h4Pw+IHmQKQXfLFbiUFoNWq02NXgO9eYh2gxsKc4OAG8GJv3QqdhtelZFwrvK8aIyOpCQppGY+dzzIf6Xf2nfUyzmdJaLeLd3bMwdFcSkL79SnN3XgJcDNeP3y8cXjZ7ffnFxaX/7dvKPTR+e2GPP4D);lineShape=1;" vertex="1" parent="32">
                    <mxGeometry x="232.253225656822" y="78.21767438443783" width="13.249134606017506" height="19.361943230855083" as="geometry"/>
                </mxCell>
                <mxCell id="35" value="" style="shape=stencil(rVbbbtswDP0avxKSKEric9f9R4GmS7AsKdJ0l78fNUNdyMTMDOzNlnnMyzmkOOHD2/bpdTOl8HY+Hb9ufuyez9sJP00p7Q7bzWl3lqcJHyd8eDmeNl9Ox/fD8/z++tQt+9O34/f+h58zjhgwdlQKv+aTCsx/Dj7P9vvdQdtHUvaRoYVlQIlQUQFQTpIDIGisAFkAjodKkKsCEEJoy4BWLaBkYFoGcAUKukgVWnUADLUpAAfg7AAKkA6JM8To5CBVTxpQoDkeWoCkieMGDR0e5HPRAPHplJUkAFoDyEJcWRMSXkmjJ+0A0pVa75Q1EbBWayfO8yDE6ZBEXcXRkqg/ZA3I4xe3Ac0y3ZIr7yxJG0AAdAAlWKYrQ3HkXdNo+QsPwalSQ6h6yrQI2eGBE2TNg/yiODmIcoLOoRW3rDFIyCYJdjuouzBikjnjuOhJXPVocCZZz9Hou0EqLhF2zghzTg6daq2+izosqilYF+mOXg2g+gKPQzsfAHIF3nvOZC0d4VwpvatNz7VxK/0nQLZikhsCPfkRoLmDCIpDdbFjg9IQy20HVnsZIToZXHUDinodJQWoRkj+HhAsZ/6eEW3/l9HftzVk+crjtrvdN8B6WCR3ZkccXfiR7GDvtj0D6ejDuOmWBJ2jsfd6EhEyr7DPMv/LinhygYIr8qVob02/nkRj3fo3uqjZRUHU4MWzfqm9Yy8Pfzfol91+Py/gl9/txi1H87aOj78B);lineShape=1;" vertex="1" parent="32">
                    <mxGeometry x="234.76334703906787" y="132.89854263130383" width="3.847377198391349" height="14.037034623733094" as="geometry"/>
                </mxCell>
                <mxCell id="36" value="" style="shape=stencil(lVfLctswDPwaXTEkwQd4TtP/yEyc2lM3zjju6+8LVUNXgK3t5CbLWJJY7ALUxA/v+6e33ZTC++V8+rr7eXi+7Cf+NKV0eN3vzoeLPk38OPHDy+m8+3I+fX99Xn6/Pc2R89O30495hV8LLneKMqNS+L28qdTL3xefl/jj4XUVXyJxMvExU4wAIJSbAaREDezQIuViAMwkeRsglVI1gMzUwjagZxKbQ9EcGgAIcbck5ZHVfUAnzgbQMjE4UgyBQjAIYeoCtoie114ppG1AHctd4ws1ULhEbFntWrcKUhgyuCbQqYD1mdiWWevI4PxCUjxBaP3YKNgaiGoXFC0pwGYsgSIQHjcSC2idOgBkGSJY7dBAkUsjdqQmqkBHVUVjpS1lGPw+oFF2Scuw0xag2DqoEgsDwNVbV0CmCgCadLMs9UYJdAyltVl7qv8iYIlv/Lzy35Y2ivgtBJxJ1VdcEkIV8KondjlUKkCtKn6r7s6DhS17so0PUEmJkhNSG4bdaC/VEiTa8YDwdGx4t0XqIIE5Y7dDoIzsmYdqVvYUsEPOw72rHRgAdGyUmxbTkT3TTU/KUNozgD8C0KTbDUuobXMZJF5ZirjrFRJ3Y0jwBsDJF66kIcb7lVZp2MLNAx2NHvYDXQ+ZgHkqiTWnvkGFDtRtFWKBDeZmmDcoC1WZXb5CQlUTlk+9jIDVi3d+GmNroxH5Cx4V1Fey76UB9rmZm+LiIxj7enx3b8GdmiMJu3h0reDmu0QcB7zfJKJvEipmFF+oOm2OAbo1zFx18QD/6AX+//H68O9r4eVwPC4fG+v//deFvlq+TPjxDw==);lineShape=1;" vertex="1" parent="32">
                    <mxGeometry x="239.21233247158534" y="192.9473283811676" width="4.611344777868465" height="15.279826708230338" as="geometry"/>
                </mxCell>
                <mxCell id="37" value="" style="shape=stencil(nVfLctswDPwaXTEkQZDgOU3/IzNxak/dOOO4r78vVFWuCKnrcW+yjBWIBbAAB3543z+97YYU3i/n0+fd98PzZT/whyGlw+t+dz5c7Gngx4EfXk7n3afz6evr8/T77Wm0HJ++nL6NX/gx4VqgICMqhZ/TG6ZWf7/4ONkfD6+9vWpn3ygxsGeS/vuxzB63AULKHSAlGn/+E6AUcx9BoBIgQEoPqBQLBOTeQ85zVNuAStw6gCTMaqHcA0okjRAgfRpquHmkPmiNFBoE1NQnOkBADPZ/6BEFB6H+TOZUUaqZsvOgVEH1qVDpM9fanMtNQBVqwQP+FPwmoAjFPnMLHjYRkjfOVAGxWYjFAxKoJlZKzdMk4EicKQWfCFRNbF0dfaoFJIILsfMgJCAR2Zre1YbxBliSMJO4AATQ1SXMLXkFMCymGqnKCgDKVdOqIexISCxNuGQVNGDJWPdBy6wk2wArNRe0SQ9SpraqpYo9iNe+UT5BLal67Wt4pNS2qqVrVNuZVs/SzR7VuXQWLhoAZGu5tdCAM+VAnD1NFQgNy0aPImWyHvWyYXKMZONuQJ5laDEiEtKZ6PXbhhADQLLy73XGxhzq0Whp6gE2SBuaWtnrjDBFQKv6fcZ2AUUxU+sHtS0bGQzFMDfLYptRIAGroXtjXUo+Zzf2sUzNFQVsTvH6gtfJ6k/PFAA58brZXaOliOxt7LhoiRE5q2yZQ9Rjyc+QANmxqabZ2UMdYs8Pti/2/XLHeWykqdwRr0lvLnfwaftXcss8zJfNArf843r4j9vLDXt7+HtVejkcj9NNa/m/v1rZq+laxo+/AA==);lineShape=1;" vertex="1" parent="32">
                    <mxGeometry x="236.66044617979423" y="253.07441344462518" width="2.5550574272643316" height="26.925409840657313" as="geometry"/>
                </mxCell>
                <mxCell id="38" value="" style="shape=stencil(rVddb9swDPw1fiUkUV987rr/UaDpEixLijTd1n9feoadkHFuGLA3x+ZJPPJ4UgZ+eNs+vW6GFN7Op+P3za/d83k78Jchpd1huzntzvo08OPADy/H0+bb6fh+eJ5+vz6NkePTj+PPcYXfE64EKnlEpfAxvanE/OfF1yl+vztcxzN1Gx8L5XofUAO1YACpUUkA0IiTAXCj0O4DGlNsBpDLvOc6oFK1KY2sAOkeKLAtEkPSXWtiAS2RAIAIhW4AvcOUFNDFACRSKwDQKNkdJFPpABDnNi0A7UMGpJmSAygHQFobl6yWRlaAQ01U2QMEaKkkKsEDEIfMJNGTRvOg2mzVl1UAB85UXeMSRQQoXnxdKKGUOjUHqJQFkFa12sb1PLdyvayZ2HLo2hlkAtmbQI9wHlrxatUdUEo6ccE2TuXISN6JunUNXYLRAHUKxQIaCbCZGNQ2nPrUDIGT6RZ+5BjWVT83m5PUuXDrZdLPTt8d6nv0SmcbQhXZd6VoB+KqDutqKjckhDIa0krF2YB2ArBmmfW/AAp1kJLOHGffiBj/IyBl7xtN6wpIR/Gdq6oWIKZYqdmUSoMnhB7kzplyow44xDRTXE5qoQIAjaptdBJ4FWAKdhxGTsDIbuZt2fBOuFNqIUEFpWYnIc89X1epb/BiOOuTSWI1HbEcMgW7vFoLKKXKx93bFvbr+iw+HzzEHOcJvMQndKrdaCFQByOc9SQXVx8Yf+MRyy1xPX45Uy/drWD9f743/zVeHy6X9Jfdfj/d8a+/+0u9vpr+EPDjJw==);lineShape=1;" vertex="1" parent="32">
                    <mxGeometry x="7.337355894720872" y="36.88351922239883" width="4.479211555472387" height="16.263705003070054" as="geometry"/>
                </mxCell>
                <mxCell id="39" value="" style="shape=stencil(lVfbUsNACP2avDLLstdnL//RGavNWFun1tvfS8xEhUZ29i1NOVk4cIAd6Oplt3neDt69nE/Hx+37eHfeDXQ9eD8edtvTeOangW4Guro/nrYPp+Pr4W7+/byZLKenp+Pb9IWPGVcKBDehvPuc3yRw+fvF7Wy/Hw/SnoqwxwAx/g+oTh/gAxQyAB4cCQBFcNUAEEQUgBDAWyewA1UAIkIOBiBBkkEnt3xiHVAAkwRUCN4AVCDpUi5LVKsAdA6c5HUizgoi68wxD9EIolQo6oQExagNdtnJqJmHZLiUCChLQIVs0BQyeEnTHx5WEYQQqj4iGPWKGRLpINDwKetUM0toHQCoYibI6X97p0Ou/IVicATJC3uWbDYYQlr+/gEkiIZD3CGi9KhEMwcBoSqXghlCZMZdDyATBOpxiUMk7Am6Rq2eBq1TJcsTGnnjMiuq8OzCYL2X0FN5xQNd6NMq7cQ9SHUAWzzRQ+rUJ7dW1EdYLYD1Uy/0aTUZdIBV01Ss+r7wyO6TvY2431750xoNuiwas4ebsFRnY7hFQOlPY3om3YEb4zlDlQ2yNf8hdS0YiLpDNlaYCdCzI6FfKvgn4iWF6/ZJVwSZBHGGvdQxF5AlmaIVgGbBsSbVMuKADH5C1GPc1nwMesTa9rwmqITZ/mRWAHbEy3rKoYNPHkZd+Sq8tcjZYdfD6k5uTI72Ds8PvxeA+3G/n+8Pf//XFwZ+NV826OYL);lineShape=1;" vertex="1" parent="32">
                    <mxGeometry x="76.89477944360021" y="36.89019713190089" width="2.964309215827038" height="18.600009163601033" as="geometry"/>
                </mxCell>
                <mxCell id="40" value="" style="shape=stencil(7VhJbhtBDHyNrkTvy9lx/mHAcizEsQzZ2X6fmgg9EdlSOQF8SIDctJAzbLKquro38er5/uZpuwnu+eWw/7j9urt9ud/Ed5sQdo/328PuBZ828XoTr+72h+2Hw/7z4+3x+9PNErl8+rT/sjzh2zEvS05LUnDfjz908fnnD++P4Q+7x5Nwn8QXFV/F+8vxIUrMKj5Jcpfjo5em6/HS++X4lMR5Fe/EkefnICmY50fy/OLEO1N/iyS+SGmmn7Vcjq9JStT1VPqC2ka9IwEV1XQ5oTlJegKxiONv8Lqk1EaTzydgxrqnee3C+SZViRpEJUkPJMEPUK6oC5IrGTOmpMdQO8VdKhZ3rUpnQK0Dl+ugI0d2llZ1AopkCXGCUpZO5gDuBPOGIpm8ITSpcwKBRiiWzUhgdAM2DZaw6E70JQQJaWorgTf43jRBux+Sdl7BuoVG6xIJWpGQ9aIBDccTmuZDS6PRl9ZQ9Bwa4E1UCV1ymkBgeSEyAxnuukvgg+fgaxreiywQ8KUoQS+6VjrpPCk3SmJYKsmiFYt2pEvQJTs4N9B1Xiq73RyWBMKHHiz4kFDJosHgpvmASQeWgK7rOQBLTPl6txsK0JpIgnfrjrkyCGBiNXUJGn3gaCWE6KjAaCV0huh9n+QbfWCEAOeLeUOnlGtt0sounWEDulVsAkMfBus1mNCGwBIwByOufGcHI21JXirbqKcEtIHNYS6pZUlk0suiJ3y/1lZDak8N6Dy4haMcGnXiKCPEDD6URPlQxy67JoAPDN4TgVqRROT7DEehVZQQkwxAq5gRnYUGWlVYmyYp65Va9VksUSQFE/7WO8RJH94oo8KpeltUZ961DDtyktAI6XKWMGlZI5RI05EAjWVwgrMsprFws8wNFHskWGwcc5Z/p3dtU8J/7/pPeNfJlb2pdw15EPLUijLw4QCrJw3ryCga+yDkeoCt4kmXUpasB1ccfUP29p4lR6pLGWd0XRJ0JJK24kzttODHxEvCDqHhvVCKlRTskQBgyYRAqNhYJp/plrIon7k9KVSXQrXq7Rvdg3wd2PzNNTR7LQC8J+bJrGYgvrDtxFrp5flMie29RvB0uwrT9ZIb2n++QeOAtDYUzoOgyE33b4AVGcBkfDDhzOONA0jUgLoJEBADJsHWunk/TsoX+mmfz9VuOndDasiu9ofXt6+G48Ovm+K73cPD8aL59H97s4yfjrfS8foH);lineShape=1;" vertex="1" parent="32">
                    <mxGeometry x="132.88587288817405" y="40.32974509852511" width="15.438107818702706" height="16.5575240483769" as="geometry"/>
                </mxCell>
                <mxCell id="41" value="" style="shape=stencil(nVfZctswDPwavWIIggTJ5zT9j8zEqT117Yzj9Pj7QnWoGrAE1X3TwSVx7C7JgR7etk+vmyGGt/Pp+HXzY/d83g70aYhxd9huTruzPA30ONDDy/G0+XI6vh+eL++vT+PI8enb8fs4w88LLiWINKJi+PXxBXL58+HzZfx+d7geXyFXNR4RxtclQGZoGhADEC8DmCFnDahQ6jKgMJSgAFSA8zKgZkgakHKfYhbQIgQNyBGas0JjwKYBDWJyALX/7gAuEJ0+tAZB960kIKcPAmBd1oruChiCzVrqUJ3OSRJJL9EyoJc1QdNZt9ILN985IVPRgBVuSF1NSA2K0zmulkxXdZgneANCu0T2AAih2iQ+ppjXXOplnwCTRuYBeBNS6pSfBwQomq8j5Z1GJOoantjUXG6IbxRDv9Kbv+QbRqTS/OwAOEPWSYvOq5N0EXLeBaipO90/htQQarknaaF/vKusQrWqbWClcQIgI2qfGiJh07gV8knEWVdphd6jDxny+QIqCE03bk2jHIHusoFMwMkm4RlNYmCjUd/KUgQ0AN8sRaNsRO3b8f8AijamSpC9HNC6gOzF7OVws5Gy9MGzvghJk0la2Zxdi5r1ypyBnJBIqm4OQNXNIYqENV3Hujnkw9b7Op1PENgpK4ZuQ9MJKPp9ADR7Vuy2MDs+AGo1cOfiwnDTtNRtbT78m3SBnfJQ1/qULCTP5vvBa8q1Hzrmg7kxF1GFo2Nke2AIroxl+VzMeM+Jxvijnd85tglVmo3f23KIbTmxJ7SkeSym/Cu2ZbhJ7rHz7vvF6nh5+HuZednt95e70PV/e/mRT5eLEz3+Bg==);lineShape=1;" vertex="1" parent="32">
                    <mxGeometry x="196.87232629500568" y="40.32646977102968" width="5.116106951741014" height="21.246764749505065" as="geometry"/>
                </mxCell>
                <mxCell id="42" value="" style="shape=stencil(7VnLbhsxDPwaXwlJ1POctv8RIE5jNI0DJ339fWfrarPieicI2mNufogrkZwZktqdXj3dXT/ud8E9PZ+OX/Y/DjfPdzv9sAvh8HC3Px2e8WmnH3d6dXs87T+fjt8ebs7fH6+nldOnr8fv0xN+nu1ilFYmq+B+nX9RKeHPD5/O6+8PD8v1SWIe1jdJjazPEsfn+ypBqUFtgwFOFAoxKP3v2aBKZi4UyTq6HMV7atBGn7VJYU5X8W4wQNgS2wEx8YNBclKY01V09CEhMYkfadwhI6yROv0XB7NBE88SV8SNThc4zTOd0mBQndRMDIK08Ui1SCIGqpLHHRp2INAA1ExYa5Vatw08XBydriqV5KFJrGOQKke3lBF6JUh05ECSRjJkPJ+u9+N5cpFKkOpEx4jmTPnvLChyov468aO/gGkjMHX9tPP6IJk830sz6xEx8nyVaNY7ySSe8G6EaGrSCAnKhfWJ4ke9XR9J/L0XzdagkA08ZCFZj5UgwsfOkEVIPdsh978XOQtkByQtGinKkonTIXeWz6wBDsmRIBSWZqAxo6WXMuYBPHasJCDqcRQKAJUoS8rSxrDWTMVu0nNj0Dq4LhtkW6Vq7GpwGasg5yguhWOpxM6VRUloJKw4QDJYAuAJPRETU5onvSNHQkxMpiF4hRC6hQ61pQFjKApxtEdikt0uVdpEotSQ1/FI5RXGuZUMo4ywRLRVmJDLSnSs1VWqMxcyUHgMUylU6VvsBFtQjrULzVttLZwQqPW6InUjO9RksQED1iOhOcjBRqkSbEAk1BgkvoPv5WahZKzgYgfbkfgO4C0fzA6AK2sZwFHbelaqZFPPZZqGQts2ZNoyqNAuAFhKK9nwbAc0tyunWR7ajM1FCWKNEhhXjbiG3mttGbSxjIKiDN4wcCbTWRxJHJxWc6RCO/q3Gzg790z4JVEC47wpo7lL22UD1w8wjwCeZhoxMRSFoFdyJCDHFOqF3F4u7dCZ0aJxBiVnhanN3cHWpGQNVByblGKfHheDD7sHQItlhuipdhPZwNhvJyXX0bLVuToDptx/2Wq9jXp7OqW/jz7/ffRZjSbvo8+/jT5gTTEGqU8eW7OSHUwcZT6I7FadHouSut6RLzSbDlfeNsQgsieJ09B5u/AhE6dVV/U/cR9iZ+4CGkyMdHVNCk2ujDzRVueIZpErsHE6OtphTJK9usaMfAdT/0OlVWQ9FUMTMnNaOyEXl72Z+aDdxZfbZFb+J2SYi1V6c4v1ppPUPsJunScYj6lkTyEdoe15CpIduR1t/zXbhsr1eeDy+mJB9Mq9R7N357xzASQN0Ry9MUAf4uzzE1uvtiZ4mq8YLX58vyLeWm/OH/hF/lvfjry6Hh9eXsXcHu7vz29ylv/bVzf46fzaRz/+Bg==);lineShape=1;" vertex="1" parent="32">
                    <mxGeometry x="2.131480915936322" y="1.0040026823768358" width="17.587207609328335" height="27.527993292825183" as="geometry"/>
                </mxCell>
                <mxCell id="43" value="" style="shape=stencil(7VhJbhsxEHyNrg3uy9lx/mHAcizEsQzZ2X6fmgicTLdmSvAhN9+0sMiu7uqF3MWb18e7l/0uuNe30/Hr/ufh/u1xFz/tQjg8P+5Phzd82sXbXbx5OJ72X07H78/35+8vd9PK6dO3449ph19nXPLi4oQK7vf5lyjF//3h83n90+F5uT5IaWq99xIDAWTJQQGCk9oJoEgtGpClNQJoEpKm4IaR64AuWXOIWVLeBuQgSTspJXpCTtKqAuQoiXgpV/GaQ8GZ7IQmVZtUvXgSuNwlGsD8yxag6MC1OTJbJjWnAD1w0lm8jnSHG4hJsUvQJnnnxLltRKjSmz0i1m2Av2DdkRAE0MVr0q1JToTDEP/Cq4kw8FZJLUsk+zur7ZaGhRvrnbE/0Cg7G7Pmr9jvsl7vqD3B+r826UQTyfqzIuQkl6skb9cH4k/vJGoCtUgjqvZzpi8AlTDwEECxgE5CAI2GZjlkkvsIgi0WjYoI9dAZ1flh5HoU6ugaMyBKZ7nfxF+cEIkuCiqu4ZClkgpZoQwduFIkkzjAiSYOBW4gHGCx15EuIE1qxZS62QIS6YWtS3UWUAgHFKuq4wC/ReKlXmyBBOlCIt1R8AyHSvvIokTPiLmObx2RdDOcehtjXUdgZ0CQxkiki5RLEtgJKKtarlAfK2Oo6iFbAGs8EFO/OIGpDynsLzg4IibsZ7onvMRCXSFOY5KTTkgD4HQxLm3IaytHbQZV6lZURiMNyDURt2LIaeYERJqQnuqWyaA4Wuo6oI39lgAm73DBIY1yu5WjNoEgPpbUzaoVpa+Seo+MM1MGAsdIA1BNC3K0BcGkqDlAfOzeMAH8ewColU67FZNGZYA49luMVpVpKY/95tnQjfq83rPCuFbMAB443EyMlwBgHSUi48x8G2nlw3xlOfgxca2X72Cn+snRzKSPAff/D7isan8MuLurAy68mo1XO+2FMQ0RLGSXGaDYxoO8CeRiEuuweDFCB0J6AhgOmRZtmGQn4jrcsHUN8DoOGNuvlKOgTcpuPGysA7wFJD/my/XAofhoeWOLyqRRbf6EQi/0+LsZACok01K2NRg1kw2TUwnQkU6jX2+u13HjEwn+9oYBvTSEefadCQyhbBE2PcTTSRUhyDr/Hb1MIsaGrxtj4paITAvhj0LIZROwK/sXe1d19G0uNtty/BhNtp61zJzt6c02oQXq/WeBrK9/7xvv1fX48O9B+eHw9HR+j17+bx+g8dP58Tre/gE=);lineShape=1;" vertex="1" parent="32">
                    <mxGeometry x="71.65101364512748" width="11.850133143044705" height="26.8260287464683" as="geometry"/>
                </mxCell>
                <mxCell id="44" value="" style="shape=stencil(7VnLclM5FPwab1V662jNMP+RKgJxTUiokJmBv6eF0R2rr92G1WzYOY7a0nl2H+mQ3nx+uPt0f4j+8+vL81/3/x7fvT4c0h+HGI9PD/cvx1d8OqS3h/Tm/fPL/YeX57+f3p3+/nQ3Vo5PH5//Gb/w5YQrybUwUNF/PX2TXMjfv/jztP7x+HS+PrqYlvXBu94FILhGgOpSkYBQF0CMziuAd2U1IZqLwobcXeurzdk1sQMAcT1SDi5VATBnZQU0Z0kCyuqlkp3XgLzuULrrymhzLS6AWlw0aXRYAc27FCWgrG5txXkvAxf8CoCjFSDM3JwAq/JIyNaweqmHGZlrgNpWQL0Vh7QCgvfS6mQz/bctEEsRiJTm722A6LIIdexccobsawJQXVgryOAH4VdUJAFac17sEMx5AgSXhV9DZqMrQi3cGrbk3AAItQBkl9f1pTgTYQiu7io0iB7gOQhotVmcB8Vg6/o4e8KV9eQgVIeKmZ+lta3HCeV52noe1LeJrMPundd7QQzRGa3XZZBn+M/We+H/cqkFi9Jvs6Z+cr1N2js/j8ofJOgO8IO4LgOCK409GlTNFNcphZLk5pETq82lSeaEU6nboci8AKSwK+MsvZrq7FQbwGQa5ejays2gqX6DdagVJRk4+IQkUu0ycDVy6aN3qe5Y24zrBoiz21zO1ciAgnQUxd9s1y2y3MHKDuClCgPFeKq3LnnQ4EQSVTYr5CIArBd3BRSFW3ueiugMUEXL6I3rYWga4VYwN+0wmqraAT10NXoIauFWADrRVJJKEgASVeA1pbdhdF7dWqpMjV5YDaNCimgCCFwlL9mt1OiBd+g6+UhTAaByCelNYwyMlgDMSY3dKush7Uo0ya4BAPVWEHpXJQoFQ3HwkkGt7ii0u6SOZDtONx1pjEXGAJneeTb3cxWgarryoDRIUXWN/aDkpdEooFo4Dk0JH7+XYunWFplCnWdfuGYEcRbSVRH1ZYBKpt2ICwoKqkbjrMgzkitKX6Hm10425klhNEiOJtaW5ZFAo4XmSd2YhnhZs8/85Ppr4yGpE7hBzsSZRZ9plQ7903cz8Y1hr6xxaIi0sAHCu5NgijJwofIOkGQqvSFcSQrUG4GbFxHb+k2j/R7FDr9HsZ8YxXas8z+PYkgw6r9+fnMZ0DgGQ18InyLIgQAmhWHMLD1rkv0XnYVu21D3Sg2nxHnX9CXmuAqjVtRlK8KwR1oVIqiq6bBM6t4ANh19GdB2F4BZT7id75Egd5WSBIAv2+okumtessRekheGNrvJ2UWsIn8AylpAoOasbDCOQy0yl8YO1PK6VDzDhl3PVj0vddbbI5TK6M7PBjnMG+9rgL7ukLKs6eyZONHZ1BUjDkDz52jluh6IaccdkNIjIH++rp5j+GXArqYxzCkTEjspyCsoCCSS50FOqyjouEbNO1MxqMzlXlYnkoa4TUuRvKsEffs/3p749yV1euZOL19toDyM7VUZBGVDl1tBSqkx2URa38S8hvWVXvOknP3l98ib6/Hhv8fP98fHx9Pb6fn/+bEUX50eWtPbbw==);lineShape=1;" vertex="1" parent="32">
                    <mxGeometry x="131.41515379383088" y="2.631162099365156" width="18.466497684036348" height="31.871846918785803" as="geometry"/>
                </mxCell>
                <mxCell id="45" value="" style="shape=stencil(7VnLbtwwDPyavRISqec5bf8jQDbNomkSJOnr70t3Ia9J2xPkVKDozevVSCI5Q1LyQa5e7q6fjgcOL6/Pj1+OP043r3cH+XBgPj3cHZ9Pr/p0kI8Hubp9fD5+fn789nBz/v10PY2cnr4+fp9m+HnGSaMmE4rDr/ObRKn9efHpPP7+9LAc34mLGR8DNd4HpEA1WUCHKyQmsStwpVQAIJFUA5BCMQJAodKszRkDOoVoADkR131AjsTBAIpggJDYLdU41twGZApsAY0YAQoFG+iWRij3AN3GoUfqyIbgAxdDoBAgN6I1oje4hCRq1q89DXptArhT6dbqPqbYBmRiu6WmngZbYrXBsq9FirIPiELVkqlm6nkfUKk5avBw23Ychh4XVMrAZKFmw1bD2OG2xd5DpVPu++MDdbv/okwFDgrj33n8rNed8cFpTSMGOKE0tf5XbSZg7xzOeXykBuxlSm58oAzim/z8GSfI4kWTG9SAerv78QLm14SeVwskQKDIVKoHNCSBtgoZD5Jsu7RQdj5tUMYiVCygpjHFbpmyKmjqBlSmCiWXKBKkaeahkkWiqEjH3QunakoGgVafSPaZAqVTnc9JX6WcEJXmsrfQGtJ+U+m6FdKg4zZAN2C9pOoswEudR3OwBAC59byyYW4gtgGVSvRGo8B17ZFsy1MqZVBqF3VyEQhEpt59IdQk38ASWlhdIKrALNbLRpnKgBtaiaO1WukFAxF9oq+VAuKGZrKVIFDvqaW7BG9DA25tWgksNzRtCLCh8WgcF5JDuVI173JlDbAaTis4QTTYkLRZL4v6GZGos+eSCqIALmkcXIFQyVVEvjgK2gKABNFXLb1uKSCAZsZVE4DaYdVD7d5LHQRuUlz2cUBtmwK6i3SEcVCAF5AeGtAKdSTrBb3DuwGIGkzVulXfoF5G50vWS8ou1HxenDgDNDKA3socR40+b3K7jNYhyBlQ4FksNa84JUtGp5KVHnQF1FFK8NSYjlYgCfAqt2phhRWl+Myn7UxDTa52xdZoza2IGn/jlFHA/P9PGW+eMqw///1TBvubpzdM0Bi4KxI9lmTQX6iTimv0CiSpsGfFVBPQdVul6lp6fFmQND26a5447nG2AasVLuV976RUVskLVX8FuIZbawKKtPTV4a0PR+8lYNdfTJUTUEPKqiHJFIENkvwpIxccOPb5VB0dgZ61JrClxiX22+RbGc1v0Lv6LTE+4iq9XTGPEV4ZKiDYSCfqWD+u0sroynb1ZudnXEOqd1HEHmr+iB6g2FhbvOjGo5wn0UcgwH5NSdTFj0fCSb6/C6OKbo/P/vI/wFZKGekSZMR9TvV9jqoC7acNPl74IEiV7/148eZ4fbh8Kbk93d+fP7Qs//dfVvTV+auMfPwN);lineShape=1;" vertex="1" parent="32">
                    <mxGeometry x="187.8281664048775" y="3.4149903172341283" width="17.713578314216694" height="24.008259658517325" as="geometry"/>
                </mxCell>
                <mxCell id="46" value="" style="shape=stencil(lVfLctswDPwaXTEkwQd4TtP/yEycWlPXzjhOH39fqBqqBmVt4pssYykQ2F2QAz+87Z9ed0Nwb5fz6fvu1/h82Q/8ZQhhPO535/GiTwM/Dvzwcjrvvp1P78fn+ffr0xQ5Pf04/ZxW+D3jmBxPoOD+zC9iJSf/3nyd4w/j8SreOyrZAoRK2gYER+ItIFMJACDEYgEBArgQBwNgoQoAsZBPFhBJwKZTpmqrxI5C2QbkTC4aQIhUAaBwy7gBvFB02wBxlOwefCAP9iCJpBhAoeC342smtvGOHEioFkq2z544g3ihZEuUKIP8ayVebThWCBAL0IwcAHi37PCqzQl0TT9RbI24UgViUECwX1D1BIZVYsu8FCmhspZGzAUgkKraZx96AKJqTX2VVB4JNSL2HpN8k/htAPeCjgz1WcNKn1jQE8CSVdnHwDI0pdCxL7dWbgG6lFTPKKMl4SWjj7pQbbzDRFLPi108pLaypjNVqhEy29uKqhKwOsvK8NDgqct6S4EKZpHq3wJYbRy1rFLsZqFaElKztL8XYuNJpU3IneeV5mpb4kyd1vB4vhsgavO+B0RgMOJ7NWdlEth0icS2D5nbm63hGS01slIDVEmLGOwXdJwKILceALoq6Tj1ICU9YmSrNsGep2rPNiW1HAfKOs0m69vqCBnM5/VB7Gp+3d5E3zglfAZVCsS2SMr3CizGt3yX+NzG40a86+K5cfFm/EKzpQd68gSW5Np5aInX9WF8N9dKaUT8ZLxvw/pz+eRE8Z79qtAcYkRfz6Trg/2u+qVjuQKrWPFBrwoC6nPv1eLjeH34f495GQ+H+Rp0/X9/79FX852JH/8C);lineShape=1;" vertex="1" parent="32">
                    <mxGeometry x="267.09411205525475" y="83.34118030149568" width="27.09882462264012" height="3.2710530523532864" as="geometry"/>
                </mxCell>
                <mxCell id="47" value="" style="shape=stencil(lVdJcttADHwNr6gBZj87zj9cZTlSRZFcsrL9PmBYZAhIbMc3imIPGkBjmSE+vO2fXneDhLfr5fx19/PwfN0P8dMgcjjtd5fDVZ+G+DjEh5fzZfflcv5+ep5+vz6NX45P384/xhN+TbhWSeKIkvB7esOVIv9983kCHA+nFaA2is0ARCjEbUApxNaCNKqyDciJajKAGKkDSkmoWUopUErbAD0vWQupUQKUpFAQA8iFBABipZQ9oAFKmSlWAyhMoYOwJmJLSd/kdxIXLKATh21A1/Ns4mqhCiz0StlSqp0KiFLvlNgAWqQItMQhULBOqIBRqtWE2FR3nlluOSHWQs/EGYaJHaBSR5QCiU21kiwgrq3MSlgBegUA8XJVQACpVm0kR0lTDdRXMzWrjR4pA0o1UbQF0dRpZCGROG1kyiCsSsmLSTNdAKB6HzQMjMLKc80vgEwVyFUZe0Ci1ADgpiAUgMKqUXdhVUpIGprXcuN0RvJuc+9dwor7/ahNl2nVL7KgQnAlGoiBNJRSsJS0BgNqTPmmCdS5e94HMBVX0x1SGruQLdFVq7qP0MwlbyKhCuqzElZOFBDXDwPKouZVrywg1TmSWK81Dh1YiN13Mg0DKmpZZtpKrqhtMHv11TgvLPctUHdjtEBp3AygnOHI0rFfzPe6rQjQBScqdpmJCW4/GqJuY6o2BW0/SslpVZUHXEjF71e82Lyvi5sZqmlB5aObiFNehvuYisCtiDxPvPvFFnyr1xkMdKqqDNl9D4tZG0zx56M+X33xK388F9iWssx9f2vFcC31nQapdV5c/OEUEWKriIb7qX5vz+cAq2YkZOueBXZH9Tg7CwlKSEMabEhZxxRYFz58U/oPgD78u5i9HI7H6V63/t9f5PTVdAmMj38A);lineShape=1;" vertex="1" parent="32">
                    <mxGeometry x="262.1504815991193" y="79.22201181682124" width="12.286096695062998" height="12.403931905371396" as="geometry"/>
                </mxCell>
                <mxCell id="48" value="" style="shape=stencil(lVfRchshDPyae9UA4gA9p+l/ZCZO7alrZxy3Tf6+ut5wscC3dt7OWIuQdiXEwA9v26fXzRDc2/l0/Ln5u3s+bwf+NoSwO2w3p91ZvwZ+HPjh5Xja/Dgdfx+e59+vT5Pl9PXr+Gfa4X3GMSWeQMF9zAshkfP/V77P9vvd4cLeewrRAjLFCACJQmk9hLQOCJ6SWMBIUQAgdzGM9ZBXAcyUOw+B1wHRkUstgAMAJPK+8+DWAaOnEiwg1pXrgEyeW0AAxKVArgEwJC4lSg3TnmJZB+RIyQbtsZaK7meP5F3N23VAptHyEImBvSwsVXslErAgqRMGPI8U8nb/QhntL+Tt+b2QA9JWQLEpZT0RAHi3RLikSHkEQlIX2QKSowJo1qDFBpFVSBkAMhUrpMLkkIdE0XooN/IaSWyPKRoVKGhhGq3ySsJHChSsMvLC/XWAJ7YxTPWEqNasW8AYSG4AbFq5wILWIzUxaPmMOGifrVxD9bmWVrYeIuwYEtuu54hHKAz2jX1BKcqdtsmh85eWA69tG0lbKI02pbk2wTWANBnylMFtOHWARhZ6faIcSf17iVlq11wLugEUV4WyxoI09ZzhbahtOFodaXkK7tuxq2cE0P4QrJBUu6gW9OppeFCfHnSMPJKzWZIM06rlXhqA8gCy1F/QF838zhlgIh8E0U8ZSn5Cg083x3yq5c5JSXCf7GexyQOgup/2JgDIUj9PKnMCmOsnVgV40Mb6mVjw4NMN3YJn6FBbxMX+EYSs4m72Z9hXfc34xX0bgb2rE8ViH2C8rt1fR0UGHaabYbSYHJBpZ6+VEb9ynii1uu+LNy6T63355Aiv8o4v1jkYSbrVgxYFute++si7ba8fny/Kl91+Pz9IL/9vX6C6NL9e+fEf);lineShape=1;" vertex="1" parent="32">
                    <mxGeometry x="250.6454456038657" y="137.6532953966646" width="28.182587666465107" height="2.8876162675184482" as="geometry"/>
                </mxCell>
                <mxCell id="49" value="" style="shape=stencil(lVfZctswDPwavWJ4gSSe0/Q/MhOn9tS1M47T4+8L1UPFgK2d5s2WuCJ3sTg45Ye37dPrZkrh7Xw6ft/82j2ft1P+MqW0O2w3p91Zf035ccoPL8fT5tvp+H54vvx/fZpXzr9+HH/OX/h9wTFTiTMqhT+XJzFRzP+efL0A9rvDFaA0Cs0CKnUAyJVqMYCUKdd1QOqUHUCfBAAIFLoB5EwcAYCp2x1KIGmAQyJmC9BPAA76Pc4GwJEyklU8B1ZZ0zqAOwUxgJqoAtK1UrNHqo2krANaoW53aJmirAN6JLFeam3odhcgjaKVtTdK4EjSqVmVeoccRKhVA5BIAR1JSCxpUbdiQLFeEqYK3KocojuSqgS8JHW4fwGoWYCXpAyKV4COOESforMMANCFcvIAlKIaV5fTSlo6ALD3ksoQQT4oINq6pIETDEhuhwgTqFcKFqAyFBAHJc02cPoE7iCjbC2AOnRbC1x3CcTD8GvWSNUDkEqqeun+SB3b27lVUzSjHZS081KAgBi03ruE0PoMzDRXAQfQ2gbqvZKoLkcrTIj5tZVp/gQI9XwAW431kBVFLvk6c6XDfUTwnXqWGtXvNjhekSgoST8L0JYSLAm1fACBqDe69gJ1ZaHoepDqCkhz8D1ID8ngSPOoYM1UhRIaHrSsuMZbYP1OibrloM2+oYxgz4HzqOj3OfgWVAqsMzcJpwNWBNZTBd0EV6iB9IlxxGgBBBg1fS0uGxhOoelmvtI9GxrIbnzB0HhFnW8pLD5ZG/jEr0cu4qU5faxH2a8OSOzWR5Q4xZsuwDFGx1PXPiMVNK+2MfQvIYazoVo+Wn0y1JNvSvZys1lb36w+FQ4kur7YLO6jb63xbW7igR1E9WxOzzgmmvuAz97c/gOgPz4uii+7/f5yz7x+7y+W+uhyKc2PfwE=);lineShape=1;" vertex="1" parent="32">
                    <mxGeometry x="252.91678305693927" y="131.41686474092091" width="16.552081982063566" height="17.294702561552747" as="geometry"/>
                </mxCell>
                <mxCell id="50" value="" style="shape=stencil(lVfZbuMwDPwavxK6qOO52/5HgaYbY7NJkabX3y+9hpRQiabom+NwxGs4lCd/97p9fNlMzryejoc/m4/56bSd/K/JuXm/3RznkzxN/n7yd8+H4+b38fC2f1p/vzwulsvT38P7csLnimPKcQE587W+MGTM/xcPq/lu3l+Y20TFKPtCPoztvRxnlb2cYBkAxEHQAPFQxoAQKXsFcI5CHAOYqeiUz0W4CYiBktOATCaPAclR0kWSKjHwkD252HsIoA0lkO08JIoeACTpchUS6EOR87ICeCaDALn3EDxxAoBCWefAgRzinmncrIgonQPsExesk0iJHIopE+sksgAA+6RMVrNPWpNRmZg8a0Ahi0LyFEIPSIB9xVLsRjRibkhZNb+XN6CsOfeikQ0lCwFOJx1LDXII0B64Cc8wpKTZJ7oAQlpS1I0T5WE0clJWXSXRtoI67asMXcwoZKtQQ7NVVACG1KS0heQw+TJFrcbBUECA0s8DCwDMw60ZtVQQ+4TN2kX6RjdEaHSZsqghGgiRMt2I4igiDyKWmkzi06IcQt0HbWkZvEd/jpAd0Un+0k2QhWwh1wHaIhvtOas7cZaS0SbtxnqZW9AJmclOLSWrAnKQmXSasKlA/slWc1otU4BssrGyswGkDwAg8q5lQMpWQES+bv5m7+FGkcuLzpjbnrydAAUdP+Mum0qaJgG5bqSBfUeKYOE94Gr+fbvcjM7vrm9cMxrYs+aczfWKOahPt0mshedfTU2EdPDku/DrTAzYw7r6rby3J+xnt/NvzeXh/CHwPO9263fE5f/9h4O8Wj86/P0/);lineShape=1;" vertex="1" parent="32">
                    <mxGeometry x="259.5054430831997" y="199.95321893643825" width="19.212730465278817" height="3.1412539497071124" as="geometry"/>
                </mxCell>
                <mxCell id="51" value="" style="shape=stencil(lVfLctswDPwaXTF8Ezyn6X9kJk6tqWtnHPf194WqIWtC4qa5KTI3ABaLhTj5h7fj0+thcubtdr18Pfycn2/HyX+anJvPx8N1vsnT5B8n//ByuR6+XC/fz8/r369Py8nl6dvlx/Iffq04jpR4QTnze31jEwX/983nFXCaz3eA7KjEDuAsRR4DIlNMPYApuTEgBGLTAXykYMcAb6j0NQRJyYwBlqnkHpApZBAhUu5TClzf7BdtNUBoMGUMSEzedYCUIa3FUez7kAssukgNpQOwJQf6UJhcH4F97cw+oFBSEVIlegRQWiqGPGBJAMb2AE8ZSKOkTYSEaQ2bCLjTknHoxSdJchgDhJMcNgBQtLBus06JIwAYskkXzYClzJuihQZQdBZaVQQD+5Az2X4eOJMDRUtKoWeJJSXQOCma+xpE3sjIhNbSq1UGCPmSZJx8D5A+gAjFkk86ggWNE9ZzryWpKgItlVx/bgBHnOAAeQWIxGBErTFVCQ1Rqi+MQgQ1co4SLiIrQKxGMnIysxkIZK5l48aSJHIBabXaKHc87COC9u+FajARHwakoNUkjchAfrKijOp1W5TDPar0ikfIxjowbWk5vKkp9uejJw+0tNGelzWJ1Gr1TLtca9oFSEaKoyVH0Gf5ErBKGQzdO7Rt0ACyuQGpKVZKGqnVnYfm3ZNqoCyW7cDqvEW257QTvzsJKanzHs1aquk2gsih/Lk2qLWsqmr/fNuu7dsNm7AsEqf5R/bVvqLamMFFJeeN9pb3Egp9waIgixgqlcAGkF2HWpb1HMtkozn78K3hPwDy8O+S8jKfTusd5/53famRV+uFyD/+AQ==);lineShape=1;" vertex="1" parent="32">
                    <mxGeometry x="257.03111495463077" y="194.91832061170646" width="12.09452886753612" height="13.19569955145781" as="geometry"/>
                </mxCell>
                <mxCell id="52" value="" style="shape=stencil(rVfLbhsxDPyavRISqec5Tf8jQJzaqGsHjtsmf19uF3KspXe6BnpbyxyJj+GIGuThbfv0uhnYvZ1Px++b37vn83aQLwPz7rDdnHZn/RrkcZCHl+Np8+10/Hl4nn6/Po2W49eP469xh/cJF8jxCGL3MS14RyX8Xfk62e93hyt770kMIAMAO/KpBzBJBYBE2fcADwESSOIcEN0yILBxyVNOAFDb39eAuAyIiWqZAwJwKQmFPE9rFAAoVEMHqMR+2T4n8n3ddCEv2xem0jvEsMw1NNo0e0cOBFwThTrbPzGwz1RNghgdUOcBs28pWwKUHiCJEiiBd5cQGyJy4+7SEalPkpYxIkCh3PNI6yKgbJqm2LtUGfZzjVT75tEzC4haC829SxoVDFoL21dOz5QCAJ64p0ZJJKjUbu5S1nYCLpXauHwpXCEHXLKAoGS6yyXtt4gKZ4L2Qgmonk1rwA1k6ubaiSuJ4aFgjMzrZTs3lV1JbZ9bd6xsHsEyf6M/QybB/TmTANVldPVYkclKJJylmYwptQpyyeikbgFdMkJ8lYf/hLCXgzrFoNj29qkCVebG9aZjBgjbXqCa2AAqYa/oUiihqcEMAQpgMATYMWMEAIbbQUYBiOF2VBpjAGyyw1jJEGDHPU0rqrSZJ9UeyYCQMyE7IGOa054XJTQdvB0AifQNWqEEuCa6F3uGNVMR7fdXIhZwk9iRIVAG8VoJi03H1/mjQ4y/J16VbTQKm3x+7rCuXj62HdbxQRlYQbz3vl/+ba8fn4+ll91+P721rv+fP650aXqYyeMf);lineShape=1;" vertex="1" parent="32">
                    <mxGeometry x="258.05772222066366" y="266.64646583713227" width="24.80401722767102" height="2.56278871919676" as="geometry"/>
                </mxCell>
                <mxCell id="53" value="" style="shape=stencil(lVfLbhsxDPwaXwlJ1IM6p+l/BIhTG3XtwHH6+PtysZBjcr3T5rZe70gUZ8ihNvzwtnt63W5SeLucT9+3v/bPl92Gv2xS2h932/P+ok8bftzww8vpvP12Pr0fn+ffr0/Tl9PTj9PPaYXfM04KcZpQKfyZ38RMeX7zdQYc9scbQK1UogGkQDWvA0olEQvIJGUdkIVSsAChVtcBnKh1A+BCHYSUIkk2gBwooh2YUrOAQqGDM9Sx3gAUXQKktQh1C6iBegQ8dOo2pNqIZR3QZAQwAC1SBzz0PJI4ABIpIUCj4gBMDLLUOyVLnFRK4NAxBApWG9IpA4RuUS2gJ6qA6i4U7SF6oQqY07+bJULz0AERGkCzRGiQGaRJj8g2pJs83EcUr6ZpC0CdJM+1HkJQTGGR10IFhNQ6xe6JKCCvqldXpJqHBJhrC6pVTaGBM8Shzhu9JgTIFCxzukREgLaouY61ce2lNwBhAOBFkQZqCFBHL70ClAdUpMqDbfiqLlSkKjXX8EWGyawCnFrjv0JqTq2ZKgJUn1aVd0I8sLcUDTICeStxWTwAdVeVRliUaEMA9mnVNBTAwwTonwGogWTHtMCQ1LTEtj7ds4ASnaydrbw1DSAkNfJoa1p9LyBrZwo2SzUOk7lvKZGaPXTJxIBp7ZQ2otxgL144Flc4a1TKNqc6/TD4Pi60rfNVAznVHdwwo/NQR6wlP5BFtUSkC+2KloSYxpv7Z9ZO7IQEG7E2xWJ1FLCDxpHCj+8DaJKTDxT/PfZbJ9MApxI1puYSBKdDWcxuiTKKp/upnkelrnWv4IqACpr0gpdQGyPK6vpuRqKI8q/TiuU3BmiDk8MsFMcIUIcPXwEMj/zpi9J/APTh4172sj8c5mvd7f/+Hqev5jsgP/4F);lineShape=1;" vertex="1" parent="32">
                    <mxGeometry x="255.07704250149914" y="260.45244102414597" width="13.783855100808255" height="14.433967541140774" as="geometry"/>
                </mxCell>
                <mxCell id="54" value="" style="shape=stencil(lVnZchw3DPyafUWBBM9nx/kPV1mOtqJILlm5/j5gtjga9uy0ym+rEXtI4mg0MBf79OPxy/eHS9Qfb68vvz/8ff369nixXy4xXp8fH16vb/7rYp8v9unby+vDb68vfz5/vf39/ctYOX798fLXeMM/N1zv0sNARf339iRKSv8/+PW2/un6vF/fpPZlfZZcyPoqaX1/l1LJ+iytLeuDSWeAJH09UCgy/iQArSugSWKAKBZXE0V+B50m2QBFip0Dmh9gvYPpNPN9wHbFDZColVpCt1mVQPzcbNpkA3SJSgBBWloAKYg1AlAJa2Qkk0wAtUmwFeDBQmKvZgyN5K/IBGDSdA1uneF7HxCkrFbKUSoBlC4G6cMdV9xNaz5kf8IA/r41+LLvyY7kwbw6rgRJJFqLSlkdV0yM+CE3yauVSpZIgi+XGQgboIqSO7gRcQfnKXYkZ7mVBKp7moSGBwI4rsbJI3cBye+wxpKHYyB3SFF6XgFVGgF4QtpqpZFSJIGsiK6h0SL1g0UMb+cRJVTp5B7XO7QsiRzJq0dbc9qprbIdIoZGq1KI4wa5w5GadEJkIc/3bYAumfghBMw4LwCBJFCV2nA9s2oWPRxIyQ3ssL5IZ06QvIa2k38n1ccwdzzumAsSlkNncmW1R0LE97Psb9Iinp9lWsWy4PZheXOQMB5BhdWdSZ+bfwOttUElQkDEmRb3AYYM3I0qktClri5zFcSqeVTphgAjO8Qwy9gOwO7gUVcha1xJMoBNrtoAZXLyGcAAUKeSOwNA4rjaZfw4tPIaeS6nld0hYFFwQGFHUuT4IdgZ3W0qbQ8gwe38CEXBAZXxo+uPww6BpIPr8aRo1sR2KAc/1Gm3UwBYqdCuZBwJAM76zEoVBffoO1hOtzsA1li54+yYooTFPDRyPgAYzQcsbA5gvD0Kg6GVIiMBQ+Z2P+gHKXrwNKP6sUNHAPPDe6u2C77KrQSKxMObKUP3A3Jrl8bJGOptUKUF3RFFfw6RZg7viYYdKmCD6ABj/R6qVbcr63G9YwWacXVLzGoHlin0PDrzd1cSWduz2W8nwpjoUeRV152svqk0EBmJEzc6zBvqzjIBdbCLKm7PAiKsUE4tmAY1TdFxFkCh4gasK3QA5H71wvOBTFrr+QftS0f6alyShIizMAcwoedlBDsw3h95IutBakdGkHHqid2dM+O7rSzt4oiVc09kBfWsVIdZwMxxv0ViJUtz6LJrbDML1Yotm7fOmVgp6ZwDbQBu1pSwsfX2n5k1tcOQpNLGNsfJhhsgzd74bISBgMh3KFjOi9LWObeZXttkqM3SdTbowVGSN+eM4w1HeuNWxKxjDgQ7RFps3eqQcVkpB5SOk6FU54T5dKS3hnfKtLB5qOWV+JLRebIHMyi9FKisciKF3so6b1jblJr7aS+7Q8fBp2U63RrMu5rVaYGNVp0Yge29TWZN+hhxr3cYkoAdqWHwjV6IAfqUmhugzl7obK4PNOMVg03ovI0Hid5oze0Hpkz840rG4XDgXzIydmJc8/j6mmE90wAu0SK+n2mwvtHJ+/rA7FPn697XMxU8egM8D+suRl9a8TwkbXw9TJKUSp7RSUS0J8nj0Ymv9g80K0ern2A9nVzqQQUHOiz46a+FH673H++fJr9dn55uXzb3/8dPmf7o9hnUPv8H);lineShape=1;" vertex="1" parent="1">
                    <mxGeometry x="419.70668586927695" y="659.1383593278686" width="109.79170757941148" height="138.6840072288092" as="geometry"/>
                </mxCell>
                <mxCell id="55" value="now start normal 2 for loop of the 2d array&lt;br&gt;and the&amp;nbsp;" style="text;html=1;align=left;verticalAlign=middle;resizable=0;points=[];autosize=1;strokeColor=none;fillColor=none;" vertex="1" parent="1">
                    <mxGeometry x="40" y="1030" width="250" height="40" as="geometry"/>
                </mxCell>
                <mxCell id="56" value="row_no=[2,1,1,1]&lt;br&gt;col_no=[1,1,2,1]" style="text;html=1;align=center;verticalAlign=middle;resizable=0;points=[];autosize=1;strokeColor=none;fillColor=none;" vertex="1" parent="1">
                    <mxGeometry x="400" y="850" width="110" height="40" as="geometry"/>
                </mxCell>
                <mxCell id="57" value="for(int i=0;i&amp;lt;n;i++){&lt;br&gt;for(int j=0;j&amp;lt;m;j++){&lt;br&gt;&lt;br&gt;if(arr[i][j]==1){&lt;br&gt;row_no[i]==1 and col_no[j]==1{to milgaya}&lt;br&gt;}&lt;span style=&quot;white-space: pre;&quot;&gt;&#9;&lt;span style=&quot;white-space: pre;&quot;&gt;&#9;&lt;span style=&quot;white-space: pre;&quot;&gt;&#9;&lt;/span&gt;&lt;span style=&quot;white-space: pre;&quot;&gt;&#9;&lt;/span&gt;&lt;br&gt;&lt;/span&gt;&lt;/span&gt;&lt;span style=&quot;white-space: pre;&quot;&gt;&#9;&lt;/span&gt;&lt;span style=&quot;white-space: pre;&quot;&gt;&#9;&lt;/span&gt;&lt;span style=&quot;white-space: pre;&quot;&gt;&#9;&lt;/span&gt;&lt;span style=&quot;white-space: pre;&quot;&gt;&#9;&lt;/span&gt;}&lt;br&gt;&lt;span style=&quot;white-space: pre;&quot;&gt;&#9;&lt;/span&gt;&lt;span style=&quot;white-space: pre;&quot;&gt;&#9;&lt;/span&gt;&lt;span style=&quot;white-space: pre;&quot;&gt;&#9;&lt;/span&gt;&lt;span style=&quot;white-space: pre;&quot;&gt;&#9;&lt;/span&gt;}" style="text;html=1;align=left;verticalAlign=middle;resizable=0;points=[];autosize=1;strokeColor=none;fillColor=none;" vertex="1" parent="1">
                    <mxGeometry x="30" y="1090" width="250" height="130" as="geometry"/>
                </mxCell>
                <mxCell id="60" value="" style="shape=stencil(rVjLbtwwDPyavRKSKFHUOW3/I0A2zaJpNtikr78v3YVci6qnKdDbxtFYpDgcjnzgm5eH2+fjIYWX18v50/Hb6e714cDvDimdnh6Ol9Or/Trw+wPf3J8vx4+X85enu+vfz7fLyuXX5/PX5Q3fr7hIVRdQCj+uDwKx/Hrw4br88fS0WS5U07A8Ziphf32jFob1tmEu++sjUxo3SEoBBBSFhAcAW0RtH2AJRhkAOVDOAMAkbQQUiiCHVCmNIWUlATtw6BF3QAkkCQCYNI6ASAmUgYVUPSAyADRS9iHVug/IiTR7QAZ1yEIhTACQQ27E8ymBOhSm7JJOFCIAVNKRGvYKBjtIouSSzsSgcCJUXOEKBQCoRo3iARH0Q7UA2IekgHy1Uo0TAJySBt9xBqig0srUZAIALqlQzD7pAuqg2k99U+kGdmhGNdeiljQCsFcNaymkS008l0w7BQEqFQdYS/lngFJSD2ig0gZoI5dMWzMgX2u9gzfailrUADruYLKQwLHGECYVMGFSuEUb6Sqhj4w9gIw7iPbi7wHiCLCeaqhy9r6xctVegUKylhv5bT2VEfsqhZGuVUlByxn78pRDQSGV6VhrnwB7AHEt17q27QG8kgVoBQzghClHONkt6eDoyp2PewCZGiKgDqpeZxKWvra+bwPI6JTUU8NkA5Kveb3nRBFxqVF1StbgoF46btQZszPI/yyAOlbaHBHOoY45SMGFa176KsMxascqDqC9pf4TYCXC2tMVOqyWvNO1J0j5tHlqWJBoBxujzpJt5HZvUvstMtRvneyJRckgCXMbUv0xJVDq2c9o6UG+0TEZAE252ZMZoKA70OT67KQRv2dfuSQNQpqdqzkcFNLsjXWdk29032aJEJkWf8/TDqDSyw0iegAyccsdpfikFSTNE1vtWGFI60VvUzgBALvJBZdD7ne7vbuim7vWIRXsEJuXjbqa3737bnSAAOkdk9d7YZj02sCregucD9LHzWY8wIB8AlzhwAqeFowFwPp/LLLxBN3JzD66eAJ09qF7u82ERuMweA7ZCSgQ4ckRx9qn3d768fxjghe+4OeOWQ4Yfna2ravfznLvX6ArjD740K3AzvKc3HI0z/7x49Zfl9uP39/R7k+Pj9fPcNv/++9u9uj6zY7f/wQ=);lineShape=1;" vertex="1" parent="1">
                    <mxGeometry x="273.4445181337536" y="1152.2766927139235" width="57.35020071978054" height="4.544149689226532" as="geometry"/>
                </mxCell>
                <mxCell id="61" value="" style="shape=stencil(lVdJcttADHwNr6jZgTk7zj9cZTlSRbFcsrL9PmBYpASY7EQ3ajSNrbHNkB/e909vuyGF98v59HX38/B82Q/505DS4XW/Ox8u+jXkxyE/vJzOuy/n0/fX5+n329N4c/z6dvoxSvg14YQp5BGVwu/pJDZK4e/J5wlwPLzeALhRdIBOqWwDWqYmBpAy5bYNqHE2YAEItbQNKIGi1ZALdaBB5fVuACVTBU5noWqdHo2s0IfuAEIRaGjVh7UVakADK3HWBw4wrH2RtwA6jFJnalaDJGoRADrVYgGVOnBaAY4H6ZAHBQSbGj3P+bsOaNTYAjR/QS6pvGSj1IUKSG+12PGgRjIIqygPxQM68EGU1+JNQgBec1oEALLnoS8n6wBNBMdDoIqyVQE2vaVhH4oPq2iJguRTpyVaQJgDvRXWmmw9CAYUEusDLxWylRqpe0BHBZSpOJNUBCBu5NXyIBH6MBaQTQ31igFxMQRfciKzW1sqikumSIIATNW2767NEHcyr4GJGQCCb9+jkYjqpUksQ+4ah3VEJP6gIqMSYk/d2G+BE3cDKlN2zDU8R8s8QG5KqKCxqJ3JjZRMEZiku0WxRapzT4BJ1XeByrDff0hWHewoM9hPrBxnC9cd4DmVb5YZtP3oqiE2RHFpVOskaCJZDTHCeqvVN402S1jfNLof6xluJpoDbOUr66AnaZ+Oxd2HlVPnpeJ6H9qjPVTc/YZ6pIqz8iPs2mO34jvio03bbZ9lLtSt+93GR/lCQ6F4+wXfz57f+I8AJWJbNDHNo3ErQm5Bj4uNm4PQhjRWuKve/Sr5D4B+XB9BL4fjcXpD3f7vH016ND248uMf);lineShape=1;" vertex="1" parent="1">
                    <mxGeometry x="273.0342808833341" y="1148.3154513643099" width="10.43682916140436" height="12.871553646918763" as="geometry"/>
                </mxCell>
                <mxCell id="62" value="at i=3 and j=3 you see there is a single guy in the 2d matrix" style="text;html=1;align=center;verticalAlign=middle;resizable=0;points=[];autosize=1;strokeColor=none;fillColor=none;" vertex="1" parent="1">
                    <mxGeometry x="330.79" y="1131.1899999999998" width="340" height="30" as="geometry"/>
                </mxCell>
                <mxCell id="63" value="row_no=[2,1,1,1]&lt;br&gt;col_no=[1,1,2,1]" style="text;html=1;align=center;verticalAlign=middle;resizable=0;points=[];autosize=1;strokeColor=none;fillColor=none;" vertex="1" parent="1">
                    <mxGeometry x="349.6" y="1200" width="110" height="40" as="geometry"/>
                </mxCell>
                <mxCell id="66" value="" style="shape=stencil(7VnLUhsxEPwaX6ckjZ5nQv6DKkxwhQAF5PX36Y1Lm9Xsuh1XcuRmjNramenuGWl3evV6f/O83wX3+vby9Hn//XD7dr/TD7sQDo/3+5fDGz7t9HqnV3dPL/tPL09fH2+Pfz/fTCunT1+evk2/8OOI0yq1Tajgfh6/iZLT7y8+Htc/HB6X65s4P6xvUjNdr2lY75PESAFlBIQgsZwGRCeujoAqxVOA5gGgSQIHJJOj0PfcBnhJOgKKFEcAQfIYQ1K+QxQ1gCrKspSkxQGQVRLboUgbs5RRShJDchLHLJUsuRGAlzxSqapEVgcksYzc89IC4VIWHYNuSqkBMucxhjbXfhsQehLnGJIkQm9fLPmql8IAQcIYQ6niSNBFQhjXR/FM0VLGBypBPFE0/muex3dL2FzvpI1aAI8y4ZGT4Mb19czvO7MeVVe23nAiw/GIcvzqeVQ8yT8YMeY/+07bbVbb+mZHZZMljP6YWlfq5vra7XaxPpN8etfTsQSQDcDQqjYCz3aIVscANKKBsHqkDDsjOZ1EMFpLcdSAFc5jVIM8kyposbSojnrR1BPGGGqmvI51tYN209/209h5P8fQJBAAiOmM9GPfcxuQbNeBlivRGrJuxZC6/20DSq/rQj2RsRt2ZB7J9ea7DYjWL9A5md5QpjRyKRXaamuTaBSaqcU3WIazgMoAyTYRPBKTaCu97S007UmWGnq9t3VwJEverX1YqQ9ji2IASTJRUKs2rxlhMUDudVrQNRJ+Yzow7X8iMAOsjAmARgC19Ol6uQPpzqCrndtan7NOCaJ6myVGJswfaVUH1rAA8KtRMhKfmSYcM0qiqTKNqmUf6BpYlmbmLATBJFfXXRGSI0Fj0jTT7SRqRr64coHSozql0bUxsQkdeqirNkrpDbM2Xhl6UzoFaIZLkWepruwbUZHCXQyAgLxpckofCeTLY1rLPCFvt6DZe5cTOtmhBHsARctgO0Bfpg7wEUaNaZ4yx5JIZ3SMAn4MGuyKJK04HppRYGHo2wNQ6r41b9GoC+BsZSQHf2adOqidNiBCx6Y+Z6OeCsFG+9RNYlHqxnpWl/yCS0xx72er97PVP5+tgo3gv56tfLUTCWrARANSN/NIhZ4aQltdDPlex1PWYqeqzG/DguUpDmPsXKLzwLIEsOOet/c8aDv0BNrsYQzSqezqqVgvmrjK0prtRQ9cvzLxJDsOx0ZnesjH2N2Ze08A2kU3q3gkI9Azd7cApHGHM7fDIdkB48z9M9Kql1xwY300d730Ah3rza2n8i5Y+u3dHDEPuFoteHohifD8WGQnhSnB2bnWUbuAcswMeWaumO+A/3J9tFPwmefJtudA+ez3MbWHC/KpVfz4PLxeWu3RnPPh4hc2Z9fjw5+3Q3eHh4fjy6Xl/+3bJHx1fBOl178A);lineShape=1;" vertex="1" parent="1">
                    <mxGeometry x="439.9941880386589" y="1192.1269989944517" width="9.669262909264571" height="12.854568807525876" as="geometry"/>
                </mxCell>
                <mxCell id="67" value="" style="shape=stencil(lVfLbttADPwaXQnue3lO0/8IEKc26tqB4/Tx96UqrGPS8hS5yesdicMhh7tTenjbPr1upshv59Px++bX7vm8ndKXKcbdYbs57c76NKXHKT28HE+bb6fj++F5+f36NO+cn34cf85v+L3gIlMqMyryn2WlEdd/C1+X/fvd4Xp/ohjM/lCJIwAIxWQAiSkDQEpUmgHkRDkDQKVuKZTLyiogR8rVAKpQaPcBJVFwSSrEIKQaiC2HWsc3VwH6PpelLNRBSE2I2QIaJb4P6MmTzoWkA0D3pLMqDdIqkUr1IWUBgErRCcdQB+nUowUkauALgdmnqTTIWoSqUy5SCgDQhk5XUkNAHiFfVV9BrJlattUXxsq6cvWmXCNVEFIPVNgDGFVfo9gtQJUDQrREYpWrDUo9U3RZSjCtCgjWmIpAY1KA2LQWVQb1aKboaolJEKBRdR3UiRPUQZwLaIuALKnSxWZJmxrZhoSVpu6AgxQKN8YUEEBtw2Upjuq613HNNpDad0E+IySWQ2XqqKc7VcuhYvtW0q40ah+J/gQAmavmxFZrz7iBwqicAdBvFqCDVn+zLXplhvfGItu8zokDQiQtJtvUooMSsI5xzIMLaxUCAEKm6oyJx8o6IFC1rNXvGbkxJStcVhMALapj3J1mIjXwfjVeyzgGyPjmOKaMBNTFzXwTGA77iasTGmzXWG30ekwBfaPy2k7Glp3Hvxeu1EC5VT+ktBTQFCQJbjvqec1z9q9H3RIS9ez2F5TK6o+EOnRRPG3Mlo9kwvhlnKovlTxG7rpWnz34/3e/PnzcMl52+/1ySbn+399KdGm50aTHvw==);lineShape=1;" vertex="1" parent="1">
                    <mxGeometry x="442.5504661805694" y="1182.9206659610759" width="5.813990125310589" height="6.285210152372986" as="geometry"/>
                </mxCell>
                <mxCell id="68" value="" style="shape=stencil(fZbdcgIhDIWfZm8zQAg/17Z9j85U606tdqz9e/tmZ0c0uJ47xP0I5JwEBl59bp8/1kNwn6fj4W39M76ctgM/DCGM++36OJ50NPDjwKvN4bh+PR6+9i/z74/n6ctp9H74nlb4nbmSKZeJCu5vngmZ6jzzNAO7cX8FVKEsBuBKrgKg9oAE8gkCbLeUhEoEQKSUDZDLeWYRKIl8MEDRmHwfyBrBG6Amyu4+kDxxMoB3jhwgYu7TVAsVkFcWCs4CTBEoF4RctKeOxHIf8IXYpikHikAIf+MNUW94AGSSaoAoFIE3AlOyeWU+p2E5S9yfQZcQILVuQOwZdJNoS9Ls3wA5u2XZTIHECqeJ9kDpSaauRiNVcAY1QhdBzeLBli5WazpkSsBLV25uRaqWRyFawTQzRRIQYirJzq5atkBqLfouwqUxLBepthWb10vrWZY6UOAeyKCCtDV625mm9gmUC4Wc3VLJMMIE1BsA2FW9JraVlQB7n3c9oMKhCLEvIM1zBPZ25/umNQ1tVEC2G+fFCC8g398O2hNQuQlVu752DBfA+q0ptnqO5JFmeuIuo9DY7KjY71UxdJV4EntifPWorW++R/dC4t7V3DlIB5cHx2bc7eb3yvX//QNFp+bHDT/+Aw==);lineShape=1;" vertex="1" parent="1">
                    <mxGeometry x="441.2529006091496" y="1178.4659443780831" width="1.2801478827714163" height="1.27814690859115" as="geometry"/>
                </mxCell>
                <mxCell id="69" value="" style="shape=stencil(lVfbctpADP0av2qkve9zmv5HZkIKUwoZQtrm7yPqrsPK5nh4M0bHup0j7Q7+4W379LoZHL+dT8efmz+75/N28N8G53aH7ea0O+vT4B8H//ByPG1+nI7vh+fx9+vTxfLy9Ov4+/KFvyOuVvL5gnL8Mb4JlPjfi++j/X53uLZ3JL19pRxu25dIqXT2EkkqADCV3oFUqgCQI3HvQVOIIKRUyPUePFNCgECBe0Cg6gFAKLi+qNw+sQiIhbLpQqTqACBRDR0gMgkCaJX6kKJWCYUUKPdJJ6YsEPC/TRMgUUwwJN97yEouUFYFROkBhRhQI87IVwIJyiFS6QE1UAHU0KRNp2uigELSNhkPmWq+DQiekvFQYad9pCAWUADAacS+VxwzMeCG5DYjrlwgBWkAsbdXwheQdHN/VSREVtWv+b7KJyJ7SbbNDsTjKJqmOUqA2rn9O9kL/L4oywyA25BaDshb3hWdw0A73lFI9wCCEPt7Qgo6Vv09SUdv9X+pKvCg6sxGCrhtCnAGgHkRZaZ/TLyQ7FhdYbafLZ8V6ah2Qs/tNXUqu02rVwaAOHLRAuAyoVRtlSqQg8wCwkOSZ/JXfQCuLtqDmiqRe/uVtcD2jLSyd9iOi5XFxlTNqtXNCWgqVjgJH2CU1b29Hh8YCM03GU720nbK8nmnsWU6vWRiFD9b1ei0EQSYn8Bi49QyoFghe/WAZBasLjWrhAaqNMpMgElGt5TPvWo0SNSFECwtxEMPOlAt76iitnHLcEqBMihqcuRNBvgYHO2alSa8Wwdzw1MNEMSfva2oChvZ5zaav+zRIC3OHnPUHny/ZMshbitx+VQkFJ3NF/RXl5ewrSeyz7aeAm9SOvXNnHZw7F4tokll8Ipw92Vz1V4fvm62L7v9frwYX/9vb8L6arxF+8dP);lineShape=1;" vertex="1" parent="1">
                    <mxGeometry x="440.7271413444537" y="1237.360793926113" width="3.03103854407298" height="16.374654878953848" as="geometry"/>
                </mxCell>
                <mxCell id="70" value="" style="shape=stencil(lVdJchsxDHzNXFHcl7Pj/MNVlqOpKJJLlpP49wYzRWYAjVrJbUShia2xcPIPb/un193kzNvlfPq++zU/X/aT/zI5Nx/3u/N84a/JP07+4eV03n07n96Pz8vv16cm2b5+nH62G34vOEfFNJAzH8tBSmTzn5Ovi/xhPq7kM2Uv5GPtN2zK29CvGwBLvtwGOEMxCUBwZCwAFIpFALylAFzwgZw0yVmqDgAqBScA7DOQD4VCEPKGDIhRTJRkElyPwaZ8YgeqkOcoV6Agle7fUJAoAg+yJyct8plSAIBCTmoImWq8DSiBspW8iFQBLyoHVTIvh27kNqBSkrzIlQwwyZqRpo5gKxFXWYWPElB7KrcBmYr0unJ9IA2RovS64kRUR1mWT4sDSDVbnIsGIDKV1P8eAE4NoCsHUWWOvYIAR0kBLNkKAFanmo20yOlrgKEMekYzSZZ0jpRRlNhpSY1se1e4GVZZQalgQL1q3ZkMcLpRo2iARwAmn/QhMeHv0FvVqINhbQUk2ZpzP/nnGuVmCbjR6C+7feHOBOZJY7Pq9qOmtgFJO8EnsEY9ZaWhkkWAQc7R8A0eKeUqE02FB4DYK2ztBAhT8d3kdZhQzW0CgEk8hILKnIPtOA2LV/RDgz0ZshLQTgCAZ5TqTHfGXGCCSx94+0igIoLv9w0NnBnAPj8m+RikAW8zzByZ6YTXH96O1ILFYXWg5GzsQVxNXggwfcMbmcZOF50G7p4B7TOd+6seYEAWYm8pa3mUZh1StseD+53eotlfg9qezgAXkwP+Gr1c8XiroNRMX0JGwgp5KK+aME/DCCrT6HWSGVRAw2P71fDkG2B81HTmyVYB4f731XNfnj/+PrFe5sNheaGt/9dPMj5annP+8RM=);lineShape=1;" vertex="1" parent="1">
                    <mxGeometry x="438.3409835711233" y="1236.3558742312139" width="9.413501097166012" height="5.2526417232831895" as="geometry"/>
                </mxCell>
                <mxCell id="71" value="" style="shape=stencil(lVdbctswDDyNfzEgQRLkd5reIzNxak9dO+O4r9sXqoaOAUuQ9acHlsRjAS439PSxe3nfbiJ+XM6n79vf+9fLbkNfNjHuj7vteX+Rpw09b+jp7XTefjuffh5fx/f3l8FyePpx+jWs8GfEBURAHGAR/46fMoT6/8PXEXDYH28ArUHJyj4kqMUF1KAAsQBHF4BNAahC9nbgvl4HpAbJ26FAZB1zBfQACUgHXTJgcAABmo6BCcgBVElrUoAaIDQHwBAM4Jq3SQBLTjRA0pBpHlDEJR2DVCbhPCA3aFVT45Nd0wiEwnaLlucBxJatA1ucvAqbUfskbKHkAPrfa1orEM/bSwTaoSrkcta/a7dKbvvcrx8gOWW+81/qTs76kh9jL93klKxC0t3MpdNk0j5ECHeA5NAuZOBkAR4nQoWm25+r2zoxAJHOqVTFcUmSyjqGGiE6SRVAM4DUmT7nkgWUPkGmg5apamKovfumAQWqaTXsA2EaQHbmyVCL3syDQmvsiyXGgkMEIa+KGLCsSalwQCdooWZoD5EFUoS7Ce+zLgHqeBdozX3uPNo3aBmx1JmpH8OP9j5D05RYGC7DtDMAf3qtBhBBM1UgKA5LU+pFugJyL8z0QM0QowWwAyjcBdcN8apDbDmYjd4RZpBTOJb5ZbKErqLi3M+kq96JkJ3eFAei3iEXIO8Ywf77qtmqqzuH5tJBixZgxyWpq2GrTBxPFUrWTQMtKNvh5NYCyZfOskEwIfT+mLO3yhnY8yfbQyS4QlskJOkBgD2gOY1qhDm6NZZ53uz6nhps0R7kC/aSH1zjj+hdu74XryhF47+fz0GK6kb26yX2rNf3+bD6rvYAQB4+r4Zv+8NhvFne/rdXSfk0XkPp+R8=);lineShape=1;" vertex="1" parent="1">
                    <mxGeometry x="435.3170783819651" y="1261.0444029800583" width="7.377266801898769" height="11.388317648764327" as="geometry"/>
                </mxCell>
                <mxCell id="72" value="" style="shape=stencil(fZbdcgIhDIWfZm8zQAg/17Z9j85U606tdqz9e/tmZ0c0uJ47xP0I5JwEBl59bp8/1kNwn6fj4W39M76ctgM/DCGM++36OJ50NPDjwKvN4bh+PR6+9i/z74/n6ctp9H74nlb4nbmSKZeJCu5vngmZ6jzzNAO7cX8FVKEsBuBKrgKg9oAE8gkCbLeUhEoEQKSUDZDLeWYRKIl8MEDRmHwfyBrBG6Amyu4+kDxxMoB3jhwgYu7TVAsVkFcWCs4CTBEoF4RctKeOxHIf8IXYpikHikAIf+MNUW94AGSSaoAoFIE3AlOyeWU+p2E5S9yfQZcQILVuQOwZdJNoS9Ls3wA5u2XZTIHECqeJ9kDpSaauRiNVcAY1QhdBzeLBli5WazpkSsBLV25uRaqWRyFawTQzRRIQYirJzq5atkBqLfouwqUxLBepthWb10vrWZY6UOAeyKCCtDV625mm9gmUC4Wc3VLJMMIE1BsA2FW9JraVlQB7n3c9oMKhCLEvIM1zBPZ25/umNQ1tVEC2G+fFCC8g398O2hNQuQlVu752DBfA+q0ptnqO5JFmeuIuo9DY7KjY71UxdJV4EntifPWorW++R/dC4t7V3DlIB5cHx2bc7eb3yvX//QNFp+bHDT/+Aw==);lineShape=1;" vertex="1" parent="1">
                    <mxGeometry x="441.2529006091496" y="1256.318016897882" width="1.2801478827714163" height="1.27814690859115" as="geometry"/>
                </mxCell>
                <mxCell id="74" value="" style="shape=stencil(7VnZchs3EPwavk7hGhzPjvMfrrIcsSxLLlnx8fcZhMF60eA2o0rlzW8UOa0FZqZ7jj3FN1/u332+OwX35eX56ePdt/P7l/tT/O0Uwvnx/u75/GKfTvHtKb758PR898fz05+P7y9/f37XLfunT09f+3/4fsEF0dZBwf24fBFVWv77m98v9g/nx519Gb9u9lV8Orb3XooioHgCUCnwhCaBAZqUioBcjgEhSk0IqOQOoYpTBDQCiEHC8gTm1ZjFudccKfnhk72XGEAlFoxDbgRQpXkEsDhoEAeBK1IZII/M2QGiIwDzSZwBWSq5Q47SIDVUUiCAIh4unSQwOjgpELgoPhJAkghesmSpBGCMiwj4Jx2vAqqXBEfy0hggScoIYMlXq8SGgEy8ZAAQgRQkES9V4wOkhgWOHSmKzoEz0tI7LF7yJmQk+QygYX6Ck0jS2wB+vrQvtwAgAj7dOpKbOe2dVJ4akHxlBObIvkLcBqGu24clClTrLWpxtt9udJSpYfaQGz6+bq/iA9g75lBLuwj2mSWRyU+B+zoiL7VgtU38vhVTKNPK1ixHIeUirc5tUSO7cSIeamXo545nkT3BCh/UHXMC0QrvHNJA46jwR2eCjiH7W7eGtDbdV+bXIHU+UlEaiGo9yaxfliqeMScjc+yQmVEnSAOxcDy5S8amxGITWKnSoT4boFC6lYWeLdL6XOKg1+YmcxwHpLmgG8UDCYQBMBAmkYSivT7PFC28xyhLY2XPbDwOCiIcxLMeo2C6FtNlBmjiGh6J6pLJKNxBR7U7AgCr7Zme1zZwq2k/E5pen2dCmHiynrsXQ2BQoKlhdwizW5uOVuvIrX6+Q6uiDFBG37VjXOWpkTMCmApYmKB1M4o2lq1Lr2eXdpxxMF1ZkQmMQBZXiHS+xekMkQ685044N5RKk8+8BKlh/6Iw1chYd8s2Jx9FGspipyiL9DZ87Z6Q2JFeCzAngvJlSz5WgnT0arsymnhXD261ETASPrRFNWwMYGLcywdMJpmmt1E+ztmaGheyhrsAO1JmulSwRbTJJNyYrqBHrKPW/5+DBrv0r0Hj16DxnwaNbg9qRCXbmA9iZBmnxKHGfJ2JbDeOrEXXK4sYtq7qdW8GpEKlotc9mEuUrxgKdlVq6sWiFlAfDcBoYx0JFAXlceszwPIElng/G8cdgC31rMikOdJq1CdFIeexL9sAdcT+OiDgUk/bUJt/uTbs3xAvrYtJA7BKuK4+7Q5s5bYuV/ulX7W+NQBj9LogtjiwsrOuoJUPPn1vuaQGi3Rfoy+AG4t6GOw1891BG7V7B2C65BUXJsZpVv69x+5WE62E22Jht8yozEmLZlg/QtjgsXlW3jx7HA3Vj5bpqr3VJXCQo/OCw0Jrqc7aVIfnSZkGYFkOpXTLftk8M3VxuCRJjuaowwSKdYj4gT2+Pyv0PH7ZzWdqH7Anj1urcWD/uvd/t+3tw8+XjR/ODw+Xd5X73/HlpH11ebEZ3/4F);lineShape=1;" vertex="1" parent="1">
                    <mxGeometry x="671.0211353362943" y="1159.3690397133996" width="66.70862538685796" height="18.923519883197876" as="geometry"/>
                </mxCell>
                <mxCell id="75" value="row_no=[2,1,1,1]&lt;br&gt;col_no=[1,1,2,1]" style="text;html=1;align=center;verticalAlign=middle;resizable=0;points=[];autosize=1;strokeColor=none;fillColor=none;" vertex="1" parent="1">
                    <mxGeometry x="780" y="1164.98" width="110" height="40" as="geometry"/>
                </mxCell>
                <mxCell id="76" value="u might argue that at i=1 and j=1" style="text;html=1;align=center;verticalAlign=middle;resizable=0;points=[];autosize=1;strokeColor=none;fillColor=none;" vertex="1" parent="1">
                    <mxGeometry x="740" y="1118.32" width="200" height="30" as="geometry"/>
                </mxCell>
                <mxCell id="77" value="" style="shape=stencil(lVjLctswDPwaXzl8Azyn6X9kJk7jaRpnHPf194XqoSqu7FVzUxSuBSyABcBdunt/fnjb76J/P5+OX/c/D4/n5136tIvx8Pq8Px3O9rRL97t093Q87b+cjt9fHy9/vz1MJ6enb8cf0y/8uuBKck0nVPS/L2+yy/L3xefL+ZfD6/J8diEP55uLSs+X8XwoHFCcDwMgBlc5ILURIK5GCpA4AJL5nCmgjV/IwQkzqbo4+pCbC4UCwAd7EwIFAK01uZwooMoAEO9ypQAZTZL5zS1AG53W6ISZJBhpVVd5HEIac89iT2jNq2QN3jvvbyNSQpuaWUlsslzzY/0085oBAjqh0kNzFTDVS0VeC/GhuTSmt4gTxhJ6IMkVEreZwTn1aqf56nnBcqveKamesAYEl4jD0RgCi0x1CKUW5TBSWhtNi+x7vS85IsWQpVO4CIJyXQXJ0EB10updMgIq8UGiSxVNisQHaVgLxhLzQb0rQKu4RjRGrdog0pWKklYs6FpcIVqvzRVFQCTJbdULWm8AJkqtrlgyqSW0NsX6rEoj3Vr/vYV0Ux+aa6D1c+xvAQJIhnVEQquJYizYHCLpV201BljyFUarZT/4oP3N9UhbfXkEJMKSmouKJgkpoKm+BJ3ORFitgGpGWoXQahZXUI1Ic8kAAoC5Bm+Z1KCAlAKs10BqWHo3xpLNb2NqWAEJ+4L2VFuWKKHVUkNXNc1mH5sSvKAPLJcsvSv4wFPDCigBwISH+LCYQ+bIBa4zrQvdogWxtj4B0ocAvs+oc0fJrrLIBewo9hOeqIClfxoDMckt4XWaLACQqQ+2zkDkDKCss8cupTMg0C+k0jNhMbWyFhRXLUi5CsSIKqC8qKcJcTWqszYawkq+AwXE1LeRRUGwGS7qSisjbXJGa1qpcSVFbSsYDH3TWMxGMuNkZMlaBlt1U0WWVKlJBgAV2NiA0hym/9yxDFBWowALnAEEAsf3RAPoaNLGJpoE9X5j1zUA7DMb23RazdIb+7oBwIeNG4GkGOmNOwcDAK0btxqpYQHxaxM7D+MPv5ax85DcFma+0EBbj73+blUbnA/9g7dkNY+MejoE2KYOm4DvWXL9fMHth+/10z4WPnK+YVvg9hSP06f5y9a9iLcAnE/ra7D48HjZeRnzh+fDh68BN8/bw787x6fDy8vlynL5f7yjtFeX+810/wc=);lineShape=1;" vertex="1" parent="1">
                    <mxGeometry x="848.3196340332561" y="1156.9313497966095" width="8.30450730354149" height="13.548848508551398" as="geometry"/>
                </mxCell>
                <mxCell id="78" value="" style="shape=stencil(lVfLbttADPwaXYkluc9zmv5HgDi1UdcOHKePvy9ddV0tbU0RIAdF5kic5XBITfrwtn163UwS3s6n49fNj93zeTvpp0lkd9huTruzXU36OOnDy/G0+XI6vh+e5/9fny6Rl6tvx++XJ/yccRLIIJe/8Gu+k6nmPzc+z/H73WEZr8Q8xHMibgDQKKUBIIU0rAM0URszUgPUdUBkKmNK0TiAlGKlFAZAaiTgDSlRHd9QAiUAyIWiAwi1sg4oqT/vWoZMggCNtI0ApQqOtdrPYx2yQA715pQMUOI6oElXzhUQSYCWWqaYPOkGUmrVS8PqkGUdwCFQGEmUSAVoozVfCDvpgEgUymMhqmAS0TdEzcQJAALFMSUrjQDW1TooeEADpCuTNA9QQLoU4ug5RJBS0d6RV4DiN7AXk9UhAg4GEFe4RALkah0pThpMQQHACqejXM2YEOnan7doCMTBlKPOjK2nAAc79b+usmxqwKExRQdQygwAidQBTF2oH0ybrqnNqlBK7cZctb9zFeAqbT2IU3KkTfDQyRKVsQ7WUgLM9cOAXH3hFlZ1fwaFfuwdcaEFfMamZht71IwkALkqd6O7kgjdoO+P9tR9a1HqClLi1k3iOngLPCZWv53E2If9/Zbzdq8CR5D41cH2oQTig5+6LBQA45vxYwcESmDLmGsFSkCnVrAxPEFPNXcZBaEUQWNG7/HcN4j7ku5bXQ8PsFLVj80AD5KZuPh4rJzMLj4CU7Et1q1H5pTgLLlQGfOxqQ/omvRlbC4TMuqtj+7l/423i38fAS+7/X7+hlj+7j8a7Nb8waGPvwE=);lineShape=1;" vertex="1" parent="1">
                    <mxGeometry x="851.3185875623283" y="1148.132798576884" width="5.884560957652462" height="6.385145809505401" as="geometry"/>
                </mxCell>
                <mxCell id="79" value="" style="shape=stencil(fZbdcgIhDIWfZm8zQAg/17Z9j85U606tdqz9e/tmZ0c0uJ47xP0I5JwEBl59bp8/1kNwn6fj4W39M76ctgM/DCGM++36OJ50NPDjwKvN4bh+PR6+9i/z74/n6ctp9H74nlb4nbmSKZeJCu5vngmZ6jzzNAO7cX8FVKEsBuBKrgKg9oAE8gkCbLeUhEoEQKSUDZDLeWYRKIl8MEDRmHwfyBrBG6Amyu4+kDxxMoB3jhwgYu7TVAsVkFcWCs4CTBEoF4RctKeOxHIf8IXYpikHikAIf+MNUW94AGSSaoAoFIE3AlOyeWU+p2E5S9yfQZcQILVuQOwZdJNoS9Ls3wA5u2XZTIHECqeJ9kDpSaauRiNVcAY1QhdBzeLBli5WazpkSsBLV25uRaqWRyFawTQzRRIQYirJzq5atkBqLfouwqUxLBepthWb10vrWZY6UOAeyKCCtDV625mm9gmUC4Wc3VLJMMIE1BsA2FW9JraVlQB7n3c9oMKhCLEvIM1zBPZ25/umNQ1tVEC2G+fFCC8g398O2hNQuQlVu752DBfA+q0ptnqO5JFmeuIuo9DY7KjY71UxdJV4EntifPWorW++R/dC4t7V3DlIB5cHx2bc7eb3yvX//QNFp+bHDT/+Aw==);lineShape=1;" vertex="1" parent="1">
                    <mxGeometry x="849.4661356365309" y="1143.8806477749358" width="1.2979277144765748" height="1.2958989489882495" as="geometry"/>
                </mxCell>
                <mxCell id="80" value="" style="shape=stencil(lVhJchsxDHyNrijuy9lx/uEqy7EqiuWSne336YnCkYAZtaPbWGaTQANogNzEu7fnh9ftJri39+Ph6/bn7vH9eRM/bULYvTxvj7t3fG3i/SbePR2O2y/Hw/eXx9Pfrw/Tyunr2+HHtMOvE64E8W1CBff79EuU5P7+8Pm0fr97uVzvpOj1RVy7vj43aUmt72OD9fVFclbrfZIaKaAXDejSMwFUyUEB4HLlLjh9QqgSAwUYH6KTxgHGh5gkMh+6RKcBMDJRQNYnJC+NOd2lRQ3IkipNDMNS6uIYIIjTJ2SkHmGpFAldA6o0wlKNEnQccGYkLNUyOJkBSEdSDQ1x1SZVRwPXQKI2qSZphKUOWs0JiD0JXE+DkwFokWZrb2O/GVBp4LyDTTr7epbKnMAR2olexTObohQDwBZEBVoZqTMDugRiUp1L+ALAkqnUEdhZZ848XBWabI+o/jogtSFcFwB2Qgo2m8DrPyVZBUAlqq65XgbT1wCmPSDULJsSKkLLABKS+oDImRPC2GKd1iSpWIAjuVGiVdfuJROnoRu93wJAhWV3i0nYL/VbnJ7qxQRuNnId0EfHuQwcSb6pXkwcCu3U2C/XRfIx7etjUvjP9Ia6WpZQQAQA8a06Dh/VKLqWLQguA9lLWQoNoSmlIVyXUkaaUMSAFC2vniTT1PpvkuN1APEh1oUwuTFErQPQqvUJZ4FeBwQJekxsQSphCSNY0HGooJU4HRaDLsq8kgryVZJXgNKHVK0DgmQzPSSqAlmKLiAMXZ65YAsuZ9pPFm06Q5xJMTgJZuQDyUSUFuWZIh3VUWs6ixIvTm8HRKSVJznh7QyArCrEHm9bFe4mbIgOdopBBGkVWP4Dn7njiM6sXlxQF7MkrkqOxMs7m3AYOBifuHlpgvIoiasVYwilNeybvUuiaxI+QZ9pgl4i8Tck6y/P/yn83axnkoJLmrHHiSf7Q9nNmMDzH62jWXvYXRsXrr6wn+lPsgXsaLxwTfXJ8B+Igi6bq6f5Nr1FmIKRQuJ789vFh+vxcX4oedrt96d3lsv/24cV/HR6lIn3fwA=);lineShape=1;" vertex="1" parent="1">
                    <mxGeometry x="851.3670542090217" y="1199.5879163564812" width="2.74075766155963" height="20.067270097153038" as="geometry"/>
                </mxCell>
                <mxCell id="81" value="" style="shape=stencil(lVfLbhsxDPwaXwmJep/T9D8CxGmMpnHgJH38fccwtFnS9rS5rdc7kjgcDqlNunl9vHvZbjS8vh3237e/dvdvj5v0ZaO6e37cHnZveNqk2026edgftt8O+/fn+9Pvl7vjl8enH/ufxxV+n3A5SApHlIY/pzfaJZzefD0BnnbPK0DKMiwAS7R2HYD1igWUIr0QgErNBlC7dL0OiE1SMYA2pPTrgCbVnqhhBbZBlJ7siaI0BqhShyWpSc8k5ihqAeA5MZKKBLV5A22V5C1KtIAmMZHvh6Rmvg9UFwhw2O+jBLJ+qZKrO08glNY6l1vW75TSVs4oVXqinqXbCHKdHFwEjDaFvxJqjAQwfLE1nVm5rKOwkL4gqjSiC2zRbNQ9SiFbjC7N7tCLDELTqJP2BYBqY1FnyXaHgXoaBBC9AQylBtD7NJQVQMmRep31vgACTQS04QBYopFy60mCPVLX6YOXAShfZ2LtXztEV0DYkwGyFOdi4I3YJEKs0QKKVFIQEEK04quJqzXKOAMkJr48fXcBQF1sB7icFR+MZDDxLZwstIZZIdcqztkGnCcy2xgyXOLwhte0y/RHKq8F7TKNCskMAK+0OyAzyo6ks8GuKq4yLQ3vlcclSB568/0KJTqY+DCYqA+adaxPA1qfeV2ZMRNfPfPWqrMDXG6KQ4KbG7i3luCnsdRpxeU407QACp19EtqyNYHMXQNdVl3Q6EBs9mlntPIjYRLJNgaoiw1LER7hGgoyTbRU/OyzasQXAZfatJKCq35ihTAi4QgTaLEnKiqDCAMzcbXiRuaVkZrn38tAif5DQtDhdwDNg8SQgh+Ko04nvKYkJz3QkEnaUprF8pE3KWyH4usNACWulOocslcAOnb3OWWvYmA9FHN3drQmUUIrrl/ZaikWGgOE4NoJxNKIlgBwtELviR0p+gLVREdvAIKVN0qw8qA/d239DwAePm7JD7unp9Mle/2/v1Xj1elGnm7/Ag==);lineShape=1;" vertex="1" parent="1">
                    <mxGeometry x="848.664589771988" y="1199.8261492149716" width="9.32612387245475" height="5.486270195746481" as="geometry"/>
                </mxCell>
                <mxCell id="82" value="" style="shape=stencil(lVfbctpADP0av2p2pb0+p+l/ZCakMKWQIbRN/r5yPQ5I4EN4M0bHq8vRkXaQh7f10+tq4PB2POx/rv5uno/rQb4NzJvdenXYHPVpkMdBHl72h9WPw/737nn6/fo0Wo5Pv/Z/xi+8T7heqcqI4vAxvakU0v8X3yf77WZn7Vs19jFT6QDQKLEBcKEmENCjAUgmzgDQKVtAKhSBSzEECsEgsgYR8RHFAEqmjtNUbZqqRo0A4gEtUa/LgFaodgPokXpbBlTNoq20OinApSIkNkuaBgEupUqpWW6cMn0VIUwt+yMaKN0F+3omAfaJgvu+UAIhRBJnH6jxsr2GZ3PaPvtpwZ6Tr3IGxNOSWt61CO0zBdsKteN2pmC/X+ucgev+KE0tJ5TXBQQctf2TB3RwAjNVS6LaiEHJVE7Y5ShQKgDQKLuiCTEgkWbJsUKbD7FITyhW81qngoLW77neZMqgcVh8oXuiCgqtdXCF6yqSgNla6d48ALmkSbIxa2sinVc5Yh8Bo5ApugDiLJkLrebUq7VZMZda2dlnylAqnJw2hrQTL13amhXp9dxXZ63ZkFTwXM+zTqvAoagTqV0AQMU05BS9S7cA4R6ANIqXvYxIdHHCCABZ1aGWL05AI6pGii5LOkLQiBLfCCXB/aWmWUy+uI0owE2FGwtP/WTyF1cqJYKbmzeWtnEKWGrcWAtHqrm5AAeVEsd5lOGgUvtuv6+TC9mrfNkyM1yOdA6z24OheumIcUtqmJvpun2et7+TPaKpilsOd9jrXuM4hP3RvYnDHfGq+Id+Rz7H4WLlDtdLd1d3rcB8uHrPudfe+K8Pp0vVy2a7ne5k5//7S5i+mi5w8vgP);lineShape=1;" vertex="1" parent="1">
                    <mxGeometry x="848.687723098793" y="1228.1280361313563" width="5.850803315948698" height="8.651325147407837" as="geometry"/>
                </mxCell>
                <mxCell id="83" value="" style="shape=stencil(fZbdcgIhDIWfZm8zQAg/17Z9j85U606tdqz9e/tmZ0c0uJ47xP0I5JwEBl59bp8/1kNwn6fj4W39M76ctgM/DCGM++36OJ50NPDjwKvN4bh+PR6+9i/z74/n6ctp9H74nlb4nbmSKZeJCu5vngmZ6jzzNAO7cX8FVKEsBuBKrgKg9oAE8gkCbLeUhEoEQKSUDZDLeWYRKIl8MEDRmHwfyBrBG6Amyu4+kDxxMoB3jhwgYu7TVAsVkFcWCs4CTBEoF4RctKeOxHIf8IXYpikHikAIf+MNUW94AGSSaoAoFIE3AlOyeWU+p2E5S9yfQZcQILVuQOwZdJNoS9Ls3wA5u2XZTIHECqeJ9kDpSaauRiNVcAY1QhdBzeLBli5WazpkSsBLV25uRaqWRyFawTQzRRIQYirJzq5atkBqLfouwqUxLBepthWb10vrWZY6UOAeyKCCtDV625mm9gmUC4Wc3VLJMMIE1BsA2FW9JraVlQB7n3c9oMKhCLEvIM1zBPZ25/umNQ1tVEC2G+fFCC8g398O2hNQuQlVu752DBfA+q0ptnqO5JFmeuIuo9DY7KjY71UxdJV4EntifPWorW++R/dC4t7V3DlIB5cHx2bc7eb3yvX//QNFp+bHDT/+Aw==);lineShape=1;" vertex="1" parent="1">
                    <mxGeometry x="853.4661339411098" y="1224.4139763610904" width="1.2979277144765748" height="1.2958989489882495" as="geometry"/>
                </mxCell>
                <mxCell id="84" value="" style="shape=stencil(7VrLchs3EPwaXlHA4H22nf9wleWIFUVyyYoff59BaKwWPdxmfHSVb+QSTWBmep7YU3zz+f79p7uT+M8vz09/3X09f3i5P8W3J5Hz4/3d8/lFP53iu1N88/Hp+e7P56d/Hj9cvn96P1aOT38/fRn/8O2CE1fSAIn/fnmQikvlvyd/XNY/nB9365PrFdfHfLy+udBwfUjH64M4AUB2rRFAdkkQUCMBNFcTAko4BqiOggFkBth+3gF+HPI6oLkSERCJlqK4bgBChI7FtYKAQADJu2R28ORIKbngV4ByhTGpOZ8NgKg1KzUEAbETQHEZuBRdJXYowQVBAGNrseSLVEtFyecNgPhPtf6gAOIPVd2lIkCI0LU7bwCFAJq4FtAOwmJAdr0h4IcargOKk5Wt2bvKdoiuA5cqpUYLLkcUOhBAVRddDRfblOrQDgBIrnBLg+Gid564aFUXXYWWjfDXyVcx2EucTnsdkKa7TMAInuRIRVxchQ5p6u26i3bXAcCFVkBdqdFp8Nb1cSVrmw+O1vuVq4Wmn2y8R0PCjfMALSiNhrxgM1cqsYB3cT2PMp1E4RHyVhJ5HiIFo7anflM0WnlY7xnljCfr/zN5k2u4vjAfyOgDgebyUjD+CuXb8IAI5xF2njJD5+48RF51+rD+f56J+vr6iGm50VKkFlyvDtmJwTR9gMAh0gpSY3UEiQt1mVbRBKG7RHTUvcsQGIWStEcM7qpVT47UiytrFJJKadc7llNawglRa/AeHUcTTmBn0gzVF0CSGQuOhMC6tsw69EhNUPxrWqaG2GLPBtC6lnGjY0rT+NdYpZCxYlOHakQGLV7SKkPlpYXyO61q1cxO07I2ROuR9C8yc7mIKaSl+eQoBvj1SK05YUGyzEp8S5pCj1SMlpRdnQECkk8ZfyNP1RWwY/xRJoQWRrdoZIuRmgUBwvqFNpuundSRFSPVNZC6TtMcAaCg6nkq7nAHEDrRfKIyQLBUr2WhTAEdhJapt8OKBLgRXGIp3RtuBNqRDDJ5BNAkLfMAOxnoDptOdlpi1FAAlFWdF7YKgICv4ZapVQECMlSuVjFqbS4zGYKJAp1magV449SddbdbrbYHkB3y5pA7QGYepyIaF6UO1IylK9+hznSwM1xgMigAPC7Nmv3oSMGQj/YMZmig9KZNzM8ClHzQBTQutGYUaJO0o24kjZaGjV6t1KdrwMJeG2TWmVTTrJYteF4HVCxEh5ezI/XZ/O6qE5aoW8QKK/PubZQzMKZrNKFobQwpa4y4WP2j5fpquNhpwdRNmIlcrbaGi2mmyaNpT1sNp7VxJDlO1QpB4MYQoHmcJ2m5zoKxUkNgh0Qjn5IP1Dr6RD686avQ4ulAVskMoTLUm530ukMIU9G/Ryun36OVX260Uk2/ypuYPicpr/yknV7AscHrZdSR04MBQubDm4JT58DbKs04soogfPrfzAB2DCbY5DxhqRADv9Cr2BrGTIcAmg9gaqAZp7JpjGCk05zGDN23n3dZk05jPHpCTrSVVKGhsM1lXmweqRXGaAPAUxT0w5lHO01RPqIMlZU76QqAGU5TFKh1AFhAKnjPk294qCD5BoCX/9UajgESxuzM2ZoDepwCWPUyCjSYcRUatu1FaeZX4vYqVgGeWNpe9qoMnQhtr5Nzpv5gL6wVwMhnr8QVwFzUXrorgHW39lp/WJoBzN3tGE4Soe2rCQoQQm/z7kO+cSNuxquJJizz7oauL4RIgq3wDfcMMwDt1rOCwc9yblsfaUI395dZKOs81lO6nhU8ZoKuzs0u5+16T/3MnCd1ep1q5NXYwfhj9JkqZzTaK5Xp1/+PD4nfH//su0K31+uH1xeTPp4fHi7vNe1/xxeZ9NHlJaj47l8=);lineShape=1;" vertex="1" parent="1">
                    <mxGeometry x="900.6472714366253" y="1176.6002857567912" width="23.116987915217855" height="15.04237541963726" as="geometry"/>
                </mxCell>
                <mxCell id="85" value="ab 2d array me dekho&lt;br&gt;waha to koi he hi nahi" style="text;html=1;align=center;verticalAlign=middle;resizable=0;points=[];autosize=1;strokeColor=none;fillColor=none;" vertex="1" parent="1">
                    <mxGeometry x="765" y="1240" width="140" height="40" as="geometry"/>
                </mxCell>
                <mxCell id="86" value="&lt;div style=&quot;text-align: left;&quot;&gt;&lt;span style=&quot;background-color: initial;&quot;&gt;this means&lt;/span&gt;&lt;/div&gt;&lt;div style=&quot;text-align: left;&quot;&gt;&lt;span style=&quot;background-color: initial;&quot;&gt;ki&lt;/span&gt;&lt;/div&gt;&lt;div style=&quot;text-align: left;&quot;&gt;&lt;span style=&quot;background-color: initial;&quot;&gt;always check ki pehle wala element he ya nahi&lt;/span&gt;&lt;/div&gt;&lt;div style=&quot;text-align: left;&quot;&gt;&lt;span style=&quot;background-color: initial;&quot;&gt;only then check row_no and col_no&lt;/span&gt;&lt;/div&gt;" style="text;html=1;align=center;verticalAlign=middle;resizable=0;points=[];autosize=1;strokeColor=none;fillColor=none;" vertex="1" parent="1">
                    <mxGeometry x="970" y="1135.31" width="270" height="70" as="geometry"/>
                </mxCell>
            </root>
        </mxGraphModel>
    </diagram>
</mxfile>